%TF.GenerationSoftware,KiCad,Pcbnew,(5.1.10)-1*%
%TF.CreationDate,2021-07-06T22:39:24+01:00*%
%TF.ProjectId,2114_sram_tester,32313134-5f73-4726-916d-5f7465737465,rev?*%
%TF.SameCoordinates,Original*%
%TF.FileFunction,Copper,L2,Bot*%
%TF.FilePolarity,Positive*%
%FSLAX46Y46*%
G04 Gerber Fmt 4.6, Leading zero omitted, Abs format (unit mm)*
G04 Created by KiCad (PCBNEW (5.1.10)-1) date 2021-07-06 22:39:24*
%MOMM*%
%LPD*%
G01*
G04 APERTURE LIST*
%TA.AperFunction,ComponentPad*%
%ADD10C,2.000000*%
%TD*%
%TA.AperFunction,ComponentPad*%
%ADD11O,1.600000X1.600000*%
%TD*%
%TA.AperFunction,ComponentPad*%
%ADD12C,1.600000*%
%TD*%
%TA.AperFunction,ComponentPad*%
%ADD13R,1.600000X1.600000*%
%TD*%
%TA.AperFunction,ComponentPad*%
%ADD14C,1.800000*%
%TD*%
%TA.AperFunction,ComponentPad*%
%ADD15R,1.800000X1.800000*%
%TD*%
%TA.AperFunction,ViaPad*%
%ADD16C,0.800000*%
%TD*%
%TA.AperFunction,Conductor*%
%ADD17C,0.250000*%
%TD*%
%TA.AperFunction,Conductor*%
%ADD18C,0.254000*%
%TD*%
%TA.AperFunction,Conductor*%
%ADD19C,0.100000*%
%TD*%
G04 APERTURE END LIST*
D10*
%TO.P,SW1,1*%
%TO.N,GND*%
X145360000Y-97640000D03*
%TO.P,SW1,2*%
%TO.N,Switch*%
X149860000Y-97640000D03*
%TO.P,SW1,1*%
%TO.N,GND*%
X145360000Y-104140000D03*
%TO.P,SW1,2*%
%TO.N,Switch*%
X149860000Y-104140000D03*
%TD*%
D11*
%TO.P,R3,2*%
%TO.N,5vPower*%
X148590000Y-80010000D03*
D12*
%TO.P,R3,1*%
%TO.N,Switch*%
X148590000Y-92710000D03*
%TD*%
D11*
%TO.P,R2,2*%
%TO.N,GND*%
X151130000Y-71120000D03*
D12*
%TO.P,R2,1*%
%TO.N,Net-(D2-Pad1)*%
X138430000Y-71120000D03*
%TD*%
D11*
%TO.P,R1,2*%
%TO.N,Net-(D1-Pad1)*%
X138430000Y-62230000D03*
D12*
%TO.P,R1,1*%
%TO.N,GND*%
X151130000Y-62230000D03*
%TD*%
D11*
%TO.P,A1,16*%
%TO.N,SRAM_A9*%
X114300000Y-97790000D03*
%TO.P,A1,15*%
%TO.N,SRAM_A8*%
X99060000Y-97790000D03*
%TO.P,A1,30*%
%TO.N,Net-(A1-Pad30)*%
X114300000Y-62230000D03*
%TO.P,A1,14*%
%TO.N,SRAM_A7*%
X99060000Y-95250000D03*
%TO.P,A1,29*%
%TO.N,GND*%
X114300000Y-64770000D03*
%TO.P,A1,13*%
%TO.N,SRAM_A6*%
X99060000Y-92710000D03*
%TO.P,A1,28*%
%TO.N,Net-(A1-Pad28)*%
X114300000Y-67310000D03*
%TO.P,A1,12*%
%TO.N,SRAM_A5*%
X99060000Y-90170000D03*
%TO.P,A1,27*%
%TO.N,5vPower*%
X114300000Y-69850000D03*
%TO.P,A1,11*%
%TO.N,SRAM_A4*%
X99060000Y-87630000D03*
%TO.P,A1,26*%
%TO.N,Net-(A1-Pad26)*%
X114300000Y-72390000D03*
%TO.P,A1,10*%
%TO.N,SRAM_A3*%
X99060000Y-85090000D03*
%TO.P,A1,25*%
%TO.N,Switch*%
X114300000Y-74930000D03*
%TO.P,A1,9*%
%TO.N,SRAM_A2*%
X99060000Y-82550000D03*
%TO.P,A1,24*%
%TO.N,Red_LED*%
X114300000Y-77470000D03*
%TO.P,A1,8*%
%TO.N,SRAM_A1*%
X99060000Y-80010000D03*
%TO.P,A1,23*%
%TO.N,Green_LED*%
X114300000Y-80010000D03*
%TO.P,A1,7*%
%TO.N,SRAM_A0*%
X99060000Y-77470000D03*
%TO.P,A1,22*%
%TO.N,Data_4*%
X114300000Y-82550000D03*
%TO.P,A1,6*%
%TO.N,Write_Enable*%
X99060000Y-74930000D03*
%TO.P,A1,21*%
%TO.N,Data_3*%
X114300000Y-85090000D03*
%TO.P,A1,5*%
%TO.N,Chip_Select*%
X99060000Y-72390000D03*
%TO.P,A1,20*%
%TO.N,Data_2*%
X114300000Y-87630000D03*
%TO.P,A1,4*%
%TO.N,GND*%
X99060000Y-69850000D03*
%TO.P,A1,19*%
%TO.N,Data_1*%
X114300000Y-90170000D03*
%TO.P,A1,3*%
%TO.N,Net-(A1-Pad3)*%
X99060000Y-67310000D03*
%TO.P,A1,18*%
%TO.N,Net-(A1-Pad18)*%
X114300000Y-92710000D03*
%TO.P,A1,2*%
%TO.N,Net-(A1-Pad2)*%
X99060000Y-64770000D03*
%TO.P,A1,17*%
%TO.N,Net-(A1-Pad17)*%
X114300000Y-95250000D03*
D13*
%TO.P,A1,1*%
%TO.N,Net-(A1-Pad1)*%
X99060000Y-62230000D03*
%TD*%
D11*
%TO.P,J1,18*%
%TO.N,5vPower*%
X138430000Y-80010000D03*
%TO.P,J1,9*%
%TO.N,GND*%
X130810000Y-100330000D03*
%TO.P,J1,17*%
%TO.N,SRAM_A7*%
X138430000Y-82550000D03*
%TO.P,J1,8*%
%TO.N,Chip_Select*%
X130810000Y-97790000D03*
%TO.P,J1,16*%
%TO.N,SRAM_A8*%
X138430000Y-85090000D03*
%TO.P,J1,7*%
%TO.N,SRAM_A2*%
X130810000Y-95250000D03*
%TO.P,J1,15*%
%TO.N,SRAM_A9*%
X138430000Y-87630000D03*
%TO.P,J1,6*%
%TO.N,SRAM_A1*%
X130810000Y-92710000D03*
%TO.P,J1,14*%
%TO.N,Data_1*%
X138430000Y-90170000D03*
%TO.P,J1,5*%
%TO.N,SRAM_A0*%
X130810000Y-90170000D03*
%TO.P,J1,13*%
%TO.N,Data_2*%
X138430000Y-92710000D03*
%TO.P,J1,4*%
%TO.N,SRAM_A3*%
X130810000Y-87630000D03*
%TO.P,J1,12*%
%TO.N,Data_3*%
X138430000Y-95250000D03*
%TO.P,J1,3*%
%TO.N,SRAM_A4*%
X130810000Y-85090000D03*
%TO.P,J1,11*%
%TO.N,Data_4*%
X138430000Y-97790000D03*
%TO.P,J1,2*%
%TO.N,SRAM_A5*%
X130810000Y-82550000D03*
%TO.P,J1,10*%
%TO.N,Write_Enable*%
X138430000Y-100330000D03*
D13*
%TO.P,J1,1*%
%TO.N,SRAM_A6*%
X130810000Y-80010000D03*
%TD*%
D14*
%TO.P,D2,2*%
%TO.N,Green_LED*%
X121920000Y-71120000D03*
D15*
%TO.P,D2,1*%
%TO.N,Net-(D2-Pad1)*%
X124460000Y-71120000D03*
%TD*%
D14*
%TO.P,D1,2*%
%TO.N,Red_LED*%
X121920000Y-62230000D03*
D15*
%TO.P,D1,1*%
%TO.N,Net-(D1-Pad1)*%
X124460000Y-62230000D03*
%TD*%
D16*
%TO.N,SRAM_A7*%
X110490000Y-78740000D03*
%TO.N,SRAM_A4*%
X111760000Y-83820000D03*
%TO.N,SRAM_A3*%
X110490000Y-86360000D03*
%TO.N,Write_Enable*%
X134620000Y-99060000D03*
X95250000Y-97790000D03*
%TO.N,Data_3*%
X133350000Y-86360000D03*
%TO.N,Chip_Select*%
X96520000Y-101600000D03*
%TO.N,Data_2*%
X134620000Y-88900000D03*
%TO.N,Switch*%
X124460000Y-77470000D03*
%TD*%
D17*
%TO.N,SRAM_A8*%
X133546998Y-85090000D02*
X138430000Y-85090000D01*
X132624999Y-86011999D02*
X133546998Y-85090000D01*
X132624999Y-95100003D02*
X132624999Y-86011999D01*
X131350001Y-96375001D02*
X132624999Y-95100003D01*
X100474999Y-96375001D02*
X131350001Y-96375001D01*
X99060000Y-97790000D02*
X100474999Y-96375001D01*
%TO.N,SRAM_A7*%
X138430000Y-81675002D02*
X138430000Y-82550000D01*
X135494998Y-78740000D02*
X138430000Y-81675002D01*
X110490000Y-78740000D02*
X135494998Y-78740000D01*
%TO.N,GND*%
X109220000Y-69850000D02*
X114300000Y-64770000D01*
X99060000Y-69850000D02*
X109220000Y-69850000D01*
X148590000Y-64770000D02*
X151130000Y-62230000D01*
X114300000Y-64770000D02*
X148590000Y-64770000D01*
X151130000Y-71120000D02*
X151130000Y-67310000D01*
X151130000Y-67310000D02*
X148590000Y-64770000D01*
%TO.N,SRAM_A5*%
X97934999Y-89044999D02*
X99060000Y-90170000D01*
X98519999Y-76344999D02*
X97934999Y-76929999D01*
X97934999Y-76929999D02*
X97934999Y-89044999D01*
X99600001Y-76344999D02*
X98519999Y-76344999D01*
X104680001Y-81424999D02*
X99600001Y-76344999D01*
X129684999Y-81424999D02*
X104680001Y-81424999D01*
X130810000Y-82550000D02*
X129684999Y-81424999D01*
%TO.N,5vPower*%
X114300000Y-69850000D02*
X115570000Y-69850000D01*
X115570000Y-69850000D02*
X121920000Y-76200000D01*
X134620000Y-76200000D02*
X138430000Y-80010000D01*
X121920000Y-76200000D02*
X134620000Y-76200000D01*
X138430000Y-80010000D02*
X148590000Y-80010000D01*
%TO.N,SRAM_A4*%
X130810000Y-85090000D02*
X129684999Y-83964999D01*
X111904999Y-83964999D02*
X111760000Y-83820000D01*
X129684999Y-83964999D02*
X111904999Y-83964999D01*
%TO.N,SRAM_A3*%
X129540000Y-86360000D02*
X110490000Y-86360000D01*
X130810000Y-87630000D02*
X129540000Y-86360000D01*
%TO.N,SRAM_A2*%
X110345001Y-93835001D02*
X99060000Y-82550000D01*
X129395001Y-93835001D02*
X110345001Y-93835001D01*
X130810000Y-95250000D02*
X129395001Y-93835001D01*
%TO.N,SRAM_A1*%
X110634999Y-91584999D02*
X99060000Y-80010000D01*
X129684999Y-91584999D02*
X110634999Y-91584999D01*
X130810000Y-92710000D02*
X129684999Y-91584999D01*
%TO.N,SRAM_A0*%
X110634999Y-89044999D02*
X99060000Y-77470000D01*
X129684999Y-89044999D02*
X110634999Y-89044999D01*
X130810000Y-90170000D02*
X129684999Y-89044999D01*
%TO.N,Write_Enable*%
X95250000Y-78740000D02*
X99060000Y-74930000D01*
X95250000Y-95645002D02*
X95250000Y-78740000D01*
X135890000Y-100330000D02*
X134620000Y-99060000D01*
X138430000Y-100330000D02*
X135890000Y-100330000D01*
X95250000Y-97790000D02*
X95250000Y-95250000D01*
%TO.N,Data_3*%
X133350000Y-90170000D02*
X138430000Y-95250000D01*
X133350000Y-86360000D02*
X133350000Y-90170000D01*
%TO.N,Chip_Select*%
X130810000Y-97790000D02*
X121920000Y-97790000D01*
X118110000Y-101600000D02*
X96520000Y-101600000D01*
X121920000Y-97790000D02*
X118110000Y-101600000D01*
%TO.N,Data_2*%
X134620000Y-88900000D02*
X138430000Y-92710000D01*
%TO.N,Net-(D1-Pad1)*%
X138430000Y-62230000D02*
X124460000Y-62230000D01*
%TO.N,Net-(D2-Pad1)*%
X138430000Y-71120000D02*
X124460000Y-71120000D01*
%TO.N,Switch*%
X116840000Y-77470000D02*
X114300000Y-74930000D01*
X124460000Y-77470000D02*
X116840000Y-77470000D01*
X148590000Y-96370000D02*
X149860000Y-97640000D01*
X148590000Y-92710000D02*
X148590000Y-96370000D01*
X149860000Y-97640000D02*
X149860000Y-104140000D01*
%TD*%
D18*
%TO.N,GND*%
X156083000Y-109093000D02*
X91567000Y-109093000D01*
X91567000Y-105275413D01*
X144404192Y-105275413D01*
X144499956Y-105539814D01*
X144789571Y-105680704D01*
X145101108Y-105762384D01*
X145422595Y-105781718D01*
X145741675Y-105737961D01*
X146046088Y-105632795D01*
X146220044Y-105539814D01*
X146315808Y-105275413D01*
X145360000Y-104319605D01*
X144404192Y-105275413D01*
X91567000Y-105275413D01*
X91567000Y-104202595D01*
X143718282Y-104202595D01*
X143762039Y-104521675D01*
X143867205Y-104826088D01*
X143960186Y-105000044D01*
X144224587Y-105095808D01*
X145180395Y-104140000D01*
X145539605Y-104140000D01*
X146495413Y-105095808D01*
X146759814Y-105000044D01*
X146900704Y-104710429D01*
X146982384Y-104398892D01*
X147001718Y-104077405D01*
X146957961Y-103758325D01*
X146852795Y-103453912D01*
X146759814Y-103279956D01*
X146495413Y-103184192D01*
X145539605Y-104140000D01*
X145180395Y-104140000D01*
X144224587Y-103184192D01*
X143960186Y-103279956D01*
X143819296Y-103569571D01*
X143737616Y-103881108D01*
X143718282Y-104202595D01*
X91567000Y-104202595D01*
X91567000Y-103004587D01*
X144404192Y-103004587D01*
X145360000Y-103960395D01*
X146315808Y-103004587D01*
X146220044Y-102740186D01*
X145930429Y-102599296D01*
X145618892Y-102517616D01*
X145297405Y-102498282D01*
X144978325Y-102542039D01*
X144673912Y-102647205D01*
X144499956Y-102740186D01*
X144404192Y-103004587D01*
X91567000Y-103004587D01*
X91567000Y-97688061D01*
X94215000Y-97688061D01*
X94215000Y-97891939D01*
X94254774Y-98091898D01*
X94332795Y-98280256D01*
X94446063Y-98449774D01*
X94590226Y-98593937D01*
X94759744Y-98707205D01*
X94948102Y-98785226D01*
X95148061Y-98825000D01*
X95351939Y-98825000D01*
X95551898Y-98785226D01*
X95740256Y-98707205D01*
X95909774Y-98593937D01*
X96053937Y-98449774D01*
X96167205Y-98280256D01*
X96245226Y-98091898D01*
X96285000Y-97891939D01*
X96285000Y-97688061D01*
X96245226Y-97488102D01*
X96167205Y-97299744D01*
X96053937Y-97130226D01*
X96010000Y-97086289D01*
X96010000Y-79054801D01*
X97174999Y-77889802D01*
X97175000Y-89007667D01*
X97171323Y-89044999D01*
X97175000Y-89082332D01*
X97185997Y-89193985D01*
X97199179Y-89237441D01*
X97229453Y-89337245D01*
X97300025Y-89469275D01*
X97353986Y-89535026D01*
X97394999Y-89585000D01*
X97423997Y-89608798D01*
X97661312Y-89846113D01*
X97625000Y-90028665D01*
X97625000Y-90311335D01*
X97680147Y-90588574D01*
X97788320Y-90849727D01*
X97945363Y-91084759D01*
X98145241Y-91284637D01*
X98377759Y-91440000D01*
X98145241Y-91595363D01*
X97945363Y-91795241D01*
X97788320Y-92030273D01*
X97680147Y-92291426D01*
X97625000Y-92568665D01*
X97625000Y-92851335D01*
X97680147Y-93128574D01*
X97788320Y-93389727D01*
X97945363Y-93624759D01*
X98145241Y-93824637D01*
X98377759Y-93980000D01*
X98145241Y-94135363D01*
X97945363Y-94335241D01*
X97788320Y-94570273D01*
X97680147Y-94831426D01*
X97625000Y-95108665D01*
X97625000Y-95391335D01*
X97680147Y-95668574D01*
X97788320Y-95929727D01*
X97945363Y-96164759D01*
X98145241Y-96364637D01*
X98377759Y-96520000D01*
X98145241Y-96675363D01*
X97945363Y-96875241D01*
X97788320Y-97110273D01*
X97680147Y-97371426D01*
X97625000Y-97648665D01*
X97625000Y-97931335D01*
X97680147Y-98208574D01*
X97788320Y-98469727D01*
X97945363Y-98704759D01*
X98145241Y-98904637D01*
X98380273Y-99061680D01*
X98641426Y-99169853D01*
X98918665Y-99225000D01*
X99201335Y-99225000D01*
X99478574Y-99169853D01*
X99739727Y-99061680D01*
X99974759Y-98904637D01*
X100174637Y-98704759D01*
X100331680Y-98469727D01*
X100439853Y-98208574D01*
X100495000Y-97931335D01*
X100495000Y-97648665D01*
X100458688Y-97466114D01*
X100789801Y-97135001D01*
X113018077Y-97135001D01*
X112920147Y-97371426D01*
X112865000Y-97648665D01*
X112865000Y-97931335D01*
X112920147Y-98208574D01*
X113028320Y-98469727D01*
X113185363Y-98704759D01*
X113385241Y-98904637D01*
X113620273Y-99061680D01*
X113881426Y-99169853D01*
X114158665Y-99225000D01*
X114441335Y-99225000D01*
X114718574Y-99169853D01*
X114979727Y-99061680D01*
X115214759Y-98904637D01*
X115414637Y-98704759D01*
X115571680Y-98469727D01*
X115679853Y-98208574D01*
X115735000Y-97931335D01*
X115735000Y-97648665D01*
X115679853Y-97371426D01*
X115581923Y-97135001D01*
X121533188Y-97135001D01*
X121495724Y-97155026D01*
X121379999Y-97249999D01*
X121356201Y-97278997D01*
X117795199Y-100840000D01*
X97223711Y-100840000D01*
X97179774Y-100796063D01*
X97010256Y-100682795D01*
X96821898Y-100604774D01*
X96621939Y-100565000D01*
X96418061Y-100565000D01*
X96218102Y-100604774D01*
X96029744Y-100682795D01*
X95860226Y-100796063D01*
X95716063Y-100940226D01*
X95602795Y-101109744D01*
X95524774Y-101298102D01*
X95485000Y-101498061D01*
X95485000Y-101701939D01*
X95524774Y-101901898D01*
X95602795Y-102090256D01*
X95716063Y-102259774D01*
X95860226Y-102403937D01*
X96029744Y-102517205D01*
X96218102Y-102595226D01*
X96418061Y-102635000D01*
X96621939Y-102635000D01*
X96821898Y-102595226D01*
X97010256Y-102517205D01*
X97179774Y-102403937D01*
X97223711Y-102360000D01*
X118072678Y-102360000D01*
X118110000Y-102363676D01*
X118147322Y-102360000D01*
X118147333Y-102360000D01*
X118258986Y-102349003D01*
X118402247Y-102305546D01*
X118534276Y-102234974D01*
X118650001Y-102140001D01*
X118673804Y-102110997D01*
X120105762Y-100679039D01*
X129418096Y-100679039D01*
X129458754Y-100813087D01*
X129578963Y-101067420D01*
X129746481Y-101293414D01*
X129954869Y-101482385D01*
X130196119Y-101627070D01*
X130460960Y-101721909D01*
X130683000Y-101600624D01*
X130683000Y-100457000D01*
X130937000Y-100457000D01*
X130937000Y-101600624D01*
X131159040Y-101721909D01*
X131423881Y-101627070D01*
X131665131Y-101482385D01*
X131873519Y-101293414D01*
X132041037Y-101067420D01*
X132161246Y-100813087D01*
X132201904Y-100679039D01*
X132079915Y-100457000D01*
X130937000Y-100457000D01*
X130683000Y-100457000D01*
X129540085Y-100457000D01*
X129418096Y-100679039D01*
X120105762Y-100679039D01*
X122234802Y-98550000D01*
X129591957Y-98550000D01*
X129695363Y-98704759D01*
X129895241Y-98904637D01*
X130130273Y-99061680D01*
X130140865Y-99066067D01*
X129954869Y-99177615D01*
X129746481Y-99366586D01*
X129578963Y-99592580D01*
X129458754Y-99846913D01*
X129418096Y-99980961D01*
X129540085Y-100203000D01*
X130683000Y-100203000D01*
X130683000Y-100183000D01*
X130937000Y-100183000D01*
X130937000Y-100203000D01*
X132079915Y-100203000D01*
X132201904Y-99980961D01*
X132161246Y-99846913D01*
X132041037Y-99592580D01*
X131873519Y-99366586D01*
X131665131Y-99177615D01*
X131479135Y-99066067D01*
X131489727Y-99061680D01*
X131724759Y-98904637D01*
X131924637Y-98704759D01*
X132081680Y-98469727D01*
X132189853Y-98208574D01*
X132245000Y-97931335D01*
X132245000Y-97648665D01*
X132189853Y-97371426D01*
X132081680Y-97110273D01*
X131924637Y-96875241D01*
X131924600Y-96875204D01*
X133136008Y-95663797D01*
X133165000Y-95640004D01*
X133188794Y-95611011D01*
X133188798Y-95611007D01*
X133259972Y-95524280D01*
X133259973Y-95524279D01*
X133330545Y-95392250D01*
X133374002Y-95248989D01*
X133384999Y-95137336D01*
X133384999Y-95137327D01*
X133388675Y-95100004D01*
X133384999Y-95062681D01*
X133384999Y-91279800D01*
X137031312Y-94926114D01*
X136995000Y-95108665D01*
X136995000Y-95391335D01*
X137050147Y-95668574D01*
X137158320Y-95929727D01*
X137315363Y-96164759D01*
X137515241Y-96364637D01*
X137747759Y-96520000D01*
X137515241Y-96675363D01*
X137315363Y-96875241D01*
X137158320Y-97110273D01*
X137050147Y-97371426D01*
X136995000Y-97648665D01*
X136995000Y-97931335D01*
X137050147Y-98208574D01*
X137158320Y-98469727D01*
X137315363Y-98704759D01*
X137515241Y-98904637D01*
X137747759Y-99060000D01*
X137515241Y-99215363D01*
X137315363Y-99415241D01*
X137211957Y-99570000D01*
X136204802Y-99570000D01*
X135655000Y-99020199D01*
X135655000Y-98958061D01*
X135615226Y-98758102D01*
X135537205Y-98569744D01*
X135423937Y-98400226D01*
X135279774Y-98256063D01*
X135110256Y-98142795D01*
X134921898Y-98064774D01*
X134721939Y-98025000D01*
X134518061Y-98025000D01*
X134318102Y-98064774D01*
X134129744Y-98142795D01*
X133960226Y-98256063D01*
X133816063Y-98400226D01*
X133702795Y-98569744D01*
X133624774Y-98758102D01*
X133585000Y-98958061D01*
X133585000Y-99161939D01*
X133624774Y-99361898D01*
X133702795Y-99550256D01*
X133816063Y-99719774D01*
X133960226Y-99863937D01*
X134129744Y-99977205D01*
X134318102Y-100055226D01*
X134518061Y-100095000D01*
X134580199Y-100095000D01*
X135326201Y-100841003D01*
X135349999Y-100870001D01*
X135465724Y-100964974D01*
X135597753Y-101035546D01*
X135741014Y-101079003D01*
X135852667Y-101090000D01*
X135852676Y-101090000D01*
X135889999Y-101093676D01*
X135927322Y-101090000D01*
X137211957Y-101090000D01*
X137315363Y-101244759D01*
X137515241Y-101444637D01*
X137750273Y-101601680D01*
X138011426Y-101709853D01*
X138288665Y-101765000D01*
X138571335Y-101765000D01*
X138848574Y-101709853D01*
X139109727Y-101601680D01*
X139344759Y-101444637D01*
X139544637Y-101244759D01*
X139701680Y-101009727D01*
X139809853Y-100748574D01*
X139865000Y-100471335D01*
X139865000Y-100188665D01*
X139809853Y-99911426D01*
X139701680Y-99650273D01*
X139544637Y-99415241D01*
X139344759Y-99215363D01*
X139112241Y-99060000D01*
X139344759Y-98904637D01*
X139473983Y-98775413D01*
X144404192Y-98775413D01*
X144499956Y-99039814D01*
X144789571Y-99180704D01*
X145101108Y-99262384D01*
X145422595Y-99281718D01*
X145741675Y-99237961D01*
X146046088Y-99132795D01*
X146220044Y-99039814D01*
X146315808Y-98775413D01*
X145360000Y-97819605D01*
X144404192Y-98775413D01*
X139473983Y-98775413D01*
X139544637Y-98704759D01*
X139701680Y-98469727D01*
X139809853Y-98208574D01*
X139865000Y-97931335D01*
X139865000Y-97702595D01*
X143718282Y-97702595D01*
X143762039Y-98021675D01*
X143867205Y-98326088D01*
X143960186Y-98500044D01*
X144224587Y-98595808D01*
X145180395Y-97640000D01*
X145539605Y-97640000D01*
X146495413Y-98595808D01*
X146759814Y-98500044D01*
X146900704Y-98210429D01*
X146982384Y-97898892D01*
X147001718Y-97577405D01*
X146957961Y-97258325D01*
X146852795Y-96953912D01*
X146759814Y-96779956D01*
X146495413Y-96684192D01*
X145539605Y-97640000D01*
X145180395Y-97640000D01*
X144224587Y-96684192D01*
X143960186Y-96779956D01*
X143819296Y-97069571D01*
X143737616Y-97381108D01*
X143718282Y-97702595D01*
X139865000Y-97702595D01*
X139865000Y-97648665D01*
X139809853Y-97371426D01*
X139701680Y-97110273D01*
X139544637Y-96875241D01*
X139344759Y-96675363D01*
X139112241Y-96520000D01*
X139135308Y-96504587D01*
X144404192Y-96504587D01*
X145360000Y-97460395D01*
X146315808Y-96504587D01*
X146220044Y-96240186D01*
X145930429Y-96099296D01*
X145618892Y-96017616D01*
X145297405Y-95998282D01*
X144978325Y-96042039D01*
X144673912Y-96147205D01*
X144499956Y-96240186D01*
X144404192Y-96504587D01*
X139135308Y-96504587D01*
X139344759Y-96364637D01*
X139544637Y-96164759D01*
X139701680Y-95929727D01*
X139809853Y-95668574D01*
X139865000Y-95391335D01*
X139865000Y-95108665D01*
X139809853Y-94831426D01*
X139701680Y-94570273D01*
X139544637Y-94335241D01*
X139344759Y-94135363D01*
X139112241Y-93980000D01*
X139344759Y-93824637D01*
X139544637Y-93624759D01*
X139701680Y-93389727D01*
X139809853Y-93128574D01*
X139865000Y-92851335D01*
X139865000Y-92568665D01*
X147155000Y-92568665D01*
X147155000Y-92851335D01*
X147210147Y-93128574D01*
X147318320Y-93389727D01*
X147475363Y-93624759D01*
X147675241Y-93824637D01*
X147830000Y-93928044D01*
X147830001Y-96332668D01*
X147826324Y-96370000D01*
X147830001Y-96407333D01*
X147840933Y-96518320D01*
X147840998Y-96518985D01*
X147884454Y-96662246D01*
X147955026Y-96794276D01*
X148013509Y-96865537D01*
X148050000Y-96910001D01*
X148078998Y-96933799D01*
X148293823Y-97148624D01*
X148287832Y-97163088D01*
X148225000Y-97478967D01*
X148225000Y-97801033D01*
X148287832Y-98116912D01*
X148411082Y-98414463D01*
X148590013Y-98682252D01*
X148817748Y-98909987D01*
X149085537Y-99088918D01*
X149100000Y-99094909D01*
X149100001Y-102685091D01*
X149085537Y-102691082D01*
X148817748Y-102870013D01*
X148590013Y-103097748D01*
X148411082Y-103365537D01*
X148287832Y-103663088D01*
X148225000Y-103978967D01*
X148225000Y-104301033D01*
X148287832Y-104616912D01*
X148411082Y-104914463D01*
X148590013Y-105182252D01*
X148817748Y-105409987D01*
X149085537Y-105588918D01*
X149383088Y-105712168D01*
X149698967Y-105775000D01*
X150021033Y-105775000D01*
X150336912Y-105712168D01*
X150634463Y-105588918D01*
X150902252Y-105409987D01*
X151129987Y-105182252D01*
X151308918Y-104914463D01*
X151432168Y-104616912D01*
X151495000Y-104301033D01*
X151495000Y-103978967D01*
X151432168Y-103663088D01*
X151308918Y-103365537D01*
X151129987Y-103097748D01*
X150902252Y-102870013D01*
X150634463Y-102691082D01*
X150620000Y-102685091D01*
X150620000Y-99094909D01*
X150634463Y-99088918D01*
X150902252Y-98909987D01*
X151129987Y-98682252D01*
X151308918Y-98414463D01*
X151432168Y-98116912D01*
X151495000Y-97801033D01*
X151495000Y-97478967D01*
X151432168Y-97163088D01*
X151308918Y-96865537D01*
X151129987Y-96597748D01*
X150902252Y-96370013D01*
X150634463Y-96191082D01*
X150336912Y-96067832D01*
X150021033Y-96005000D01*
X149698967Y-96005000D01*
X149383088Y-96067832D01*
X149368624Y-96073823D01*
X149350000Y-96055199D01*
X149350000Y-93928043D01*
X149504759Y-93824637D01*
X149704637Y-93624759D01*
X149861680Y-93389727D01*
X149969853Y-93128574D01*
X150025000Y-92851335D01*
X150025000Y-92568665D01*
X149969853Y-92291426D01*
X149861680Y-92030273D01*
X149704637Y-91795241D01*
X149504759Y-91595363D01*
X149269727Y-91438320D01*
X149008574Y-91330147D01*
X148731335Y-91275000D01*
X148448665Y-91275000D01*
X148171426Y-91330147D01*
X147910273Y-91438320D01*
X147675241Y-91595363D01*
X147475363Y-91795241D01*
X147318320Y-92030273D01*
X147210147Y-92291426D01*
X147155000Y-92568665D01*
X139865000Y-92568665D01*
X139809853Y-92291426D01*
X139701680Y-92030273D01*
X139544637Y-91795241D01*
X139344759Y-91595363D01*
X139112241Y-91440000D01*
X139344759Y-91284637D01*
X139544637Y-91084759D01*
X139701680Y-90849727D01*
X139809853Y-90588574D01*
X139865000Y-90311335D01*
X139865000Y-90028665D01*
X139809853Y-89751426D01*
X139701680Y-89490273D01*
X139544637Y-89255241D01*
X139344759Y-89055363D01*
X139112241Y-88900000D01*
X139344759Y-88744637D01*
X139544637Y-88544759D01*
X139701680Y-88309727D01*
X139809853Y-88048574D01*
X139865000Y-87771335D01*
X139865000Y-87488665D01*
X139809853Y-87211426D01*
X139701680Y-86950273D01*
X139544637Y-86715241D01*
X139344759Y-86515363D01*
X139112241Y-86360000D01*
X139344759Y-86204637D01*
X139544637Y-86004759D01*
X139701680Y-85769727D01*
X139809853Y-85508574D01*
X139865000Y-85231335D01*
X139865000Y-84948665D01*
X139809853Y-84671426D01*
X139701680Y-84410273D01*
X139544637Y-84175241D01*
X139344759Y-83975363D01*
X139112241Y-83820000D01*
X139344759Y-83664637D01*
X139544637Y-83464759D01*
X139701680Y-83229727D01*
X139809853Y-82968574D01*
X139865000Y-82691335D01*
X139865000Y-82408665D01*
X139809853Y-82131426D01*
X139701680Y-81870273D01*
X139544637Y-81635241D01*
X139344759Y-81435363D01*
X139112241Y-81280000D01*
X139344759Y-81124637D01*
X139544637Y-80924759D01*
X139648043Y-80770000D01*
X147371957Y-80770000D01*
X147475363Y-80924759D01*
X147675241Y-81124637D01*
X147910273Y-81281680D01*
X148171426Y-81389853D01*
X148448665Y-81445000D01*
X148731335Y-81445000D01*
X149008574Y-81389853D01*
X149269727Y-81281680D01*
X149504759Y-81124637D01*
X149704637Y-80924759D01*
X149861680Y-80689727D01*
X149969853Y-80428574D01*
X150025000Y-80151335D01*
X150025000Y-79868665D01*
X149969853Y-79591426D01*
X149861680Y-79330273D01*
X149704637Y-79095241D01*
X149504759Y-78895363D01*
X149269727Y-78738320D01*
X149008574Y-78630147D01*
X148731335Y-78575000D01*
X148448665Y-78575000D01*
X148171426Y-78630147D01*
X147910273Y-78738320D01*
X147675241Y-78895363D01*
X147475363Y-79095241D01*
X147371957Y-79250000D01*
X139648043Y-79250000D01*
X139544637Y-79095241D01*
X139344759Y-78895363D01*
X139109727Y-78738320D01*
X138848574Y-78630147D01*
X138571335Y-78575000D01*
X138288665Y-78575000D01*
X138106114Y-78611312D01*
X135183804Y-75689003D01*
X135160001Y-75659999D01*
X135044276Y-75565026D01*
X134912247Y-75494454D01*
X134768986Y-75450997D01*
X134657333Y-75440000D01*
X134657322Y-75440000D01*
X134620000Y-75436324D01*
X134582678Y-75440000D01*
X122234802Y-75440000D01*
X117763618Y-70968816D01*
X120385000Y-70968816D01*
X120385000Y-71271184D01*
X120443989Y-71567743D01*
X120559701Y-71847095D01*
X120727688Y-72098505D01*
X120941495Y-72312312D01*
X121192905Y-72480299D01*
X121472257Y-72596011D01*
X121768816Y-72655000D01*
X122071184Y-72655000D01*
X122367743Y-72596011D01*
X122647095Y-72480299D01*
X122898505Y-72312312D01*
X122964944Y-72245873D01*
X122970498Y-72264180D01*
X123029463Y-72374494D01*
X123108815Y-72471185D01*
X123205506Y-72550537D01*
X123315820Y-72609502D01*
X123435518Y-72645812D01*
X123560000Y-72658072D01*
X125360000Y-72658072D01*
X125484482Y-72645812D01*
X125604180Y-72609502D01*
X125714494Y-72550537D01*
X125811185Y-72471185D01*
X125890537Y-72374494D01*
X125949502Y-72264180D01*
X125985812Y-72144482D01*
X125998072Y-72020000D01*
X125998072Y-71880000D01*
X137211957Y-71880000D01*
X137315363Y-72034759D01*
X137515241Y-72234637D01*
X137750273Y-72391680D01*
X138011426Y-72499853D01*
X138288665Y-72555000D01*
X138571335Y-72555000D01*
X138848574Y-72499853D01*
X139109727Y-72391680D01*
X139344759Y-72234637D01*
X139544637Y-72034759D01*
X139701680Y-71799727D01*
X139809853Y-71538574D01*
X139823684Y-71469039D01*
X149738096Y-71469039D01*
X149778754Y-71603087D01*
X149898963Y-71857420D01*
X150066481Y-72083414D01*
X150274869Y-72272385D01*
X150516119Y-72417070D01*
X150780960Y-72511909D01*
X151003000Y-72390624D01*
X151003000Y-71247000D01*
X151257000Y-71247000D01*
X151257000Y-72390624D01*
X151479040Y-72511909D01*
X151743881Y-72417070D01*
X151985131Y-72272385D01*
X152193519Y-72083414D01*
X152361037Y-71857420D01*
X152481246Y-71603087D01*
X152521904Y-71469039D01*
X152399915Y-71247000D01*
X151257000Y-71247000D01*
X151003000Y-71247000D01*
X149860085Y-71247000D01*
X149738096Y-71469039D01*
X139823684Y-71469039D01*
X139865000Y-71261335D01*
X139865000Y-70978665D01*
X139823685Y-70770961D01*
X149738096Y-70770961D01*
X149860085Y-70993000D01*
X151003000Y-70993000D01*
X151003000Y-69849376D01*
X151257000Y-69849376D01*
X151257000Y-70993000D01*
X152399915Y-70993000D01*
X152521904Y-70770961D01*
X152481246Y-70636913D01*
X152361037Y-70382580D01*
X152193519Y-70156586D01*
X151985131Y-69967615D01*
X151743881Y-69822930D01*
X151479040Y-69728091D01*
X151257000Y-69849376D01*
X151003000Y-69849376D01*
X150780960Y-69728091D01*
X150516119Y-69822930D01*
X150274869Y-69967615D01*
X150066481Y-70156586D01*
X149898963Y-70382580D01*
X149778754Y-70636913D01*
X149738096Y-70770961D01*
X139823685Y-70770961D01*
X139809853Y-70701426D01*
X139701680Y-70440273D01*
X139544637Y-70205241D01*
X139344759Y-70005363D01*
X139109727Y-69848320D01*
X138848574Y-69740147D01*
X138571335Y-69685000D01*
X138288665Y-69685000D01*
X138011426Y-69740147D01*
X137750273Y-69848320D01*
X137515241Y-70005363D01*
X137315363Y-70205241D01*
X137211957Y-70360000D01*
X125998072Y-70360000D01*
X125998072Y-70220000D01*
X125985812Y-70095518D01*
X125949502Y-69975820D01*
X125890537Y-69865506D01*
X125811185Y-69768815D01*
X125714494Y-69689463D01*
X125604180Y-69630498D01*
X125484482Y-69594188D01*
X125360000Y-69581928D01*
X123560000Y-69581928D01*
X123435518Y-69594188D01*
X123315820Y-69630498D01*
X123205506Y-69689463D01*
X123108815Y-69768815D01*
X123029463Y-69865506D01*
X122970498Y-69975820D01*
X122964944Y-69994127D01*
X122898505Y-69927688D01*
X122647095Y-69759701D01*
X122367743Y-69643989D01*
X122071184Y-69585000D01*
X121768816Y-69585000D01*
X121472257Y-69643989D01*
X121192905Y-69759701D01*
X120941495Y-69927688D01*
X120727688Y-70141495D01*
X120559701Y-70392905D01*
X120443989Y-70672257D01*
X120385000Y-70968816D01*
X117763618Y-70968816D01*
X116133804Y-69339003D01*
X116110001Y-69309999D01*
X115994276Y-69215026D01*
X115862247Y-69144454D01*
X115718986Y-69100997D01*
X115607333Y-69090000D01*
X115607322Y-69090000D01*
X115570000Y-69086324D01*
X115532678Y-69090000D01*
X115518043Y-69090000D01*
X115414637Y-68935241D01*
X115214759Y-68735363D01*
X114982241Y-68580000D01*
X115214759Y-68424637D01*
X115414637Y-68224759D01*
X115571680Y-67989727D01*
X115679853Y-67728574D01*
X115735000Y-67451335D01*
X115735000Y-67168665D01*
X115679853Y-66891426D01*
X115571680Y-66630273D01*
X115414637Y-66395241D01*
X115214759Y-66195363D01*
X114979727Y-66038320D01*
X114969135Y-66033933D01*
X115155131Y-65922385D01*
X115363519Y-65733414D01*
X115531037Y-65507420D01*
X115651246Y-65253087D01*
X115691904Y-65119039D01*
X115569915Y-64897000D01*
X114427000Y-64897000D01*
X114427000Y-64917000D01*
X114173000Y-64917000D01*
X114173000Y-64897000D01*
X113030085Y-64897000D01*
X112908096Y-65119039D01*
X112948754Y-65253087D01*
X113068963Y-65507420D01*
X113236481Y-65733414D01*
X113444869Y-65922385D01*
X113630865Y-66033933D01*
X113620273Y-66038320D01*
X113385241Y-66195363D01*
X113185363Y-66395241D01*
X113028320Y-66630273D01*
X112920147Y-66891426D01*
X112865000Y-67168665D01*
X112865000Y-67451335D01*
X112920147Y-67728574D01*
X113028320Y-67989727D01*
X113185363Y-68224759D01*
X113385241Y-68424637D01*
X113617759Y-68580000D01*
X113385241Y-68735363D01*
X113185363Y-68935241D01*
X113028320Y-69170273D01*
X112920147Y-69431426D01*
X112865000Y-69708665D01*
X112865000Y-69991335D01*
X112920147Y-70268574D01*
X113028320Y-70529727D01*
X113185363Y-70764759D01*
X113385241Y-70964637D01*
X113617759Y-71120000D01*
X113385241Y-71275363D01*
X113185363Y-71475241D01*
X113028320Y-71710273D01*
X112920147Y-71971426D01*
X112865000Y-72248665D01*
X112865000Y-72531335D01*
X112920147Y-72808574D01*
X113028320Y-73069727D01*
X113185363Y-73304759D01*
X113385241Y-73504637D01*
X113617759Y-73660000D01*
X113385241Y-73815363D01*
X113185363Y-74015241D01*
X113028320Y-74250273D01*
X112920147Y-74511426D01*
X112865000Y-74788665D01*
X112865000Y-75071335D01*
X112920147Y-75348574D01*
X113028320Y-75609727D01*
X113185363Y-75844759D01*
X113385241Y-76044637D01*
X113617759Y-76200000D01*
X113385241Y-76355363D01*
X113185363Y-76555241D01*
X113028320Y-76790273D01*
X112920147Y-77051426D01*
X112865000Y-77328665D01*
X112865000Y-77611335D01*
X112920147Y-77888574D01*
X112958017Y-77980000D01*
X111193711Y-77980000D01*
X111149774Y-77936063D01*
X110980256Y-77822795D01*
X110791898Y-77744774D01*
X110591939Y-77705000D01*
X110388061Y-77705000D01*
X110188102Y-77744774D01*
X109999744Y-77822795D01*
X109830226Y-77936063D01*
X109686063Y-78080226D01*
X109572795Y-78249744D01*
X109494774Y-78438102D01*
X109455000Y-78638061D01*
X109455000Y-78841939D01*
X109494774Y-79041898D01*
X109572795Y-79230256D01*
X109686063Y-79399774D01*
X109830226Y-79543937D01*
X109999744Y-79657205D01*
X110188102Y-79735226D01*
X110388061Y-79775000D01*
X110591939Y-79775000D01*
X110791898Y-79735226D01*
X110980256Y-79657205D01*
X111149774Y-79543937D01*
X111193711Y-79500000D01*
X112958017Y-79500000D01*
X112920147Y-79591426D01*
X112865000Y-79868665D01*
X112865000Y-80151335D01*
X112920147Y-80428574D01*
X113018077Y-80664999D01*
X104994803Y-80664999D01*
X100174600Y-75844796D01*
X100174637Y-75844759D01*
X100331680Y-75609727D01*
X100439853Y-75348574D01*
X100495000Y-75071335D01*
X100495000Y-74788665D01*
X100439853Y-74511426D01*
X100331680Y-74250273D01*
X100174637Y-74015241D01*
X99974759Y-73815363D01*
X99742241Y-73660000D01*
X99974759Y-73504637D01*
X100174637Y-73304759D01*
X100331680Y-73069727D01*
X100439853Y-72808574D01*
X100495000Y-72531335D01*
X100495000Y-72248665D01*
X100439853Y-71971426D01*
X100331680Y-71710273D01*
X100174637Y-71475241D01*
X99974759Y-71275363D01*
X99739727Y-71118320D01*
X99729135Y-71113933D01*
X99915131Y-71002385D01*
X100123519Y-70813414D01*
X100291037Y-70587420D01*
X100411246Y-70333087D01*
X100451904Y-70199039D01*
X100329915Y-69977000D01*
X99187000Y-69977000D01*
X99187000Y-69997000D01*
X98933000Y-69997000D01*
X98933000Y-69977000D01*
X97790085Y-69977000D01*
X97668096Y-70199039D01*
X97708754Y-70333087D01*
X97828963Y-70587420D01*
X97996481Y-70813414D01*
X98204869Y-71002385D01*
X98390865Y-71113933D01*
X98380273Y-71118320D01*
X98145241Y-71275363D01*
X97945363Y-71475241D01*
X97788320Y-71710273D01*
X97680147Y-71971426D01*
X97625000Y-72248665D01*
X97625000Y-72531335D01*
X97680147Y-72808574D01*
X97788320Y-73069727D01*
X97945363Y-73304759D01*
X98145241Y-73504637D01*
X98377759Y-73660000D01*
X98145241Y-73815363D01*
X97945363Y-74015241D01*
X97788320Y-74250273D01*
X97680147Y-74511426D01*
X97625000Y-74788665D01*
X97625000Y-75071335D01*
X97661312Y-75253886D01*
X94738998Y-78176201D01*
X94710000Y-78199999D01*
X94686202Y-78228997D01*
X94686201Y-78228998D01*
X94615026Y-78315724D01*
X94544454Y-78447754D01*
X94514180Y-78547558D01*
X94502933Y-78584637D01*
X94500998Y-78591015D01*
X94486324Y-78740000D01*
X94490001Y-78777333D01*
X94490000Y-95682334D01*
X94490001Y-95682342D01*
X94490000Y-97086289D01*
X94446063Y-97130226D01*
X94332795Y-97299744D01*
X94254774Y-97488102D01*
X94215000Y-97688061D01*
X91567000Y-97688061D01*
X91567000Y-61430000D01*
X97621928Y-61430000D01*
X97621928Y-63030000D01*
X97634188Y-63154482D01*
X97670498Y-63274180D01*
X97729463Y-63384494D01*
X97808815Y-63481185D01*
X97905506Y-63560537D01*
X98015820Y-63619502D01*
X98135518Y-63655812D01*
X98143961Y-63656643D01*
X97945363Y-63855241D01*
X97788320Y-64090273D01*
X97680147Y-64351426D01*
X97625000Y-64628665D01*
X97625000Y-64911335D01*
X97680147Y-65188574D01*
X97788320Y-65449727D01*
X97945363Y-65684759D01*
X98145241Y-65884637D01*
X98377759Y-66040000D01*
X98145241Y-66195363D01*
X97945363Y-66395241D01*
X97788320Y-66630273D01*
X97680147Y-66891426D01*
X97625000Y-67168665D01*
X97625000Y-67451335D01*
X97680147Y-67728574D01*
X97788320Y-67989727D01*
X97945363Y-68224759D01*
X98145241Y-68424637D01*
X98380273Y-68581680D01*
X98390865Y-68586067D01*
X98204869Y-68697615D01*
X97996481Y-68886586D01*
X97828963Y-69112580D01*
X97708754Y-69366913D01*
X97668096Y-69500961D01*
X97790085Y-69723000D01*
X98933000Y-69723000D01*
X98933000Y-69703000D01*
X99187000Y-69703000D01*
X99187000Y-69723000D01*
X100329915Y-69723000D01*
X100451904Y-69500961D01*
X100411246Y-69366913D01*
X100291037Y-69112580D01*
X100123519Y-68886586D01*
X99915131Y-68697615D01*
X99729135Y-68586067D01*
X99739727Y-68581680D01*
X99974759Y-68424637D01*
X100174637Y-68224759D01*
X100331680Y-67989727D01*
X100439853Y-67728574D01*
X100495000Y-67451335D01*
X100495000Y-67168665D01*
X100439853Y-66891426D01*
X100331680Y-66630273D01*
X100174637Y-66395241D01*
X99974759Y-66195363D01*
X99742241Y-66040000D01*
X99974759Y-65884637D01*
X100174637Y-65684759D01*
X100331680Y-65449727D01*
X100439853Y-65188574D01*
X100495000Y-64911335D01*
X100495000Y-64628665D01*
X100439853Y-64351426D01*
X100331680Y-64090273D01*
X100174637Y-63855241D01*
X99976039Y-63656643D01*
X99984482Y-63655812D01*
X100104180Y-63619502D01*
X100214494Y-63560537D01*
X100311185Y-63481185D01*
X100390537Y-63384494D01*
X100449502Y-63274180D01*
X100485812Y-63154482D01*
X100498072Y-63030000D01*
X100498072Y-62088665D01*
X112865000Y-62088665D01*
X112865000Y-62371335D01*
X112920147Y-62648574D01*
X113028320Y-62909727D01*
X113185363Y-63144759D01*
X113385241Y-63344637D01*
X113620273Y-63501680D01*
X113630865Y-63506067D01*
X113444869Y-63617615D01*
X113236481Y-63806586D01*
X113068963Y-64032580D01*
X112948754Y-64286913D01*
X112908096Y-64420961D01*
X113030085Y-64643000D01*
X114173000Y-64643000D01*
X114173000Y-64623000D01*
X114427000Y-64623000D01*
X114427000Y-64643000D01*
X115569915Y-64643000D01*
X115691904Y-64420961D01*
X115651246Y-64286913D01*
X115531037Y-64032580D01*
X115363519Y-63806586D01*
X115155131Y-63617615D01*
X114969135Y-63506067D01*
X114979727Y-63501680D01*
X115214759Y-63344637D01*
X115414637Y-63144759D01*
X115571680Y-62909727D01*
X115679853Y-62648574D01*
X115735000Y-62371335D01*
X115735000Y-62088665D01*
X115733041Y-62078816D01*
X120385000Y-62078816D01*
X120385000Y-62381184D01*
X120443989Y-62677743D01*
X120559701Y-62957095D01*
X120727688Y-63208505D01*
X120941495Y-63422312D01*
X121192905Y-63590299D01*
X121472257Y-63706011D01*
X121768816Y-63765000D01*
X122071184Y-63765000D01*
X122367743Y-63706011D01*
X122647095Y-63590299D01*
X122898505Y-63422312D01*
X122964944Y-63355873D01*
X122970498Y-63374180D01*
X123029463Y-63484494D01*
X123108815Y-63581185D01*
X123205506Y-63660537D01*
X123315820Y-63719502D01*
X123435518Y-63755812D01*
X123560000Y-63768072D01*
X125360000Y-63768072D01*
X125484482Y-63755812D01*
X125604180Y-63719502D01*
X125714494Y-63660537D01*
X125811185Y-63581185D01*
X125890537Y-63484494D01*
X125949502Y-63374180D01*
X125985812Y-63254482D01*
X125998072Y-63130000D01*
X125998072Y-62990000D01*
X137211957Y-62990000D01*
X137315363Y-63144759D01*
X137515241Y-63344637D01*
X137750273Y-63501680D01*
X138011426Y-63609853D01*
X138288665Y-63665000D01*
X138571335Y-63665000D01*
X138848574Y-63609853D01*
X139109727Y-63501680D01*
X139344759Y-63344637D01*
X139466694Y-63222702D01*
X150316903Y-63222702D01*
X150388486Y-63466671D01*
X150643996Y-63587571D01*
X150918184Y-63656300D01*
X151200512Y-63670217D01*
X151480130Y-63628787D01*
X151746292Y-63533603D01*
X151871514Y-63466671D01*
X151943097Y-63222702D01*
X151130000Y-62409605D01*
X150316903Y-63222702D01*
X139466694Y-63222702D01*
X139544637Y-63144759D01*
X139701680Y-62909727D01*
X139809853Y-62648574D01*
X139865000Y-62371335D01*
X139865000Y-62300512D01*
X149689783Y-62300512D01*
X149731213Y-62580130D01*
X149826397Y-62846292D01*
X149893329Y-62971514D01*
X150137298Y-63043097D01*
X150950395Y-62230000D01*
X151309605Y-62230000D01*
X152122702Y-63043097D01*
X152366671Y-62971514D01*
X152487571Y-62716004D01*
X152556300Y-62441816D01*
X152570217Y-62159488D01*
X152528787Y-61879870D01*
X152433603Y-61613708D01*
X152366671Y-61488486D01*
X152122702Y-61416903D01*
X151309605Y-62230000D01*
X150950395Y-62230000D01*
X150137298Y-61416903D01*
X149893329Y-61488486D01*
X149772429Y-61743996D01*
X149703700Y-62018184D01*
X149689783Y-62300512D01*
X139865000Y-62300512D01*
X139865000Y-62088665D01*
X139809853Y-61811426D01*
X139701680Y-61550273D01*
X139544637Y-61315241D01*
X139466694Y-61237298D01*
X150316903Y-61237298D01*
X151130000Y-62050395D01*
X151943097Y-61237298D01*
X151871514Y-60993329D01*
X151616004Y-60872429D01*
X151341816Y-60803700D01*
X151059488Y-60789783D01*
X150779870Y-60831213D01*
X150513708Y-60926397D01*
X150388486Y-60993329D01*
X150316903Y-61237298D01*
X139466694Y-61237298D01*
X139344759Y-61115363D01*
X139109727Y-60958320D01*
X138848574Y-60850147D01*
X138571335Y-60795000D01*
X138288665Y-60795000D01*
X138011426Y-60850147D01*
X137750273Y-60958320D01*
X137515241Y-61115363D01*
X137315363Y-61315241D01*
X137211957Y-61470000D01*
X125998072Y-61470000D01*
X125998072Y-61330000D01*
X125985812Y-61205518D01*
X125949502Y-61085820D01*
X125890537Y-60975506D01*
X125811185Y-60878815D01*
X125714494Y-60799463D01*
X125604180Y-60740498D01*
X125484482Y-60704188D01*
X125360000Y-60691928D01*
X123560000Y-60691928D01*
X123435518Y-60704188D01*
X123315820Y-60740498D01*
X123205506Y-60799463D01*
X123108815Y-60878815D01*
X123029463Y-60975506D01*
X122970498Y-61085820D01*
X122964944Y-61104127D01*
X122898505Y-61037688D01*
X122647095Y-60869701D01*
X122367743Y-60753989D01*
X122071184Y-60695000D01*
X121768816Y-60695000D01*
X121472257Y-60753989D01*
X121192905Y-60869701D01*
X120941495Y-61037688D01*
X120727688Y-61251495D01*
X120559701Y-61502905D01*
X120443989Y-61782257D01*
X120385000Y-62078816D01*
X115733041Y-62078816D01*
X115679853Y-61811426D01*
X115571680Y-61550273D01*
X115414637Y-61315241D01*
X115214759Y-61115363D01*
X114979727Y-60958320D01*
X114718574Y-60850147D01*
X114441335Y-60795000D01*
X114158665Y-60795000D01*
X113881426Y-60850147D01*
X113620273Y-60958320D01*
X113385241Y-61115363D01*
X113185363Y-61315241D01*
X113028320Y-61550273D01*
X112920147Y-61811426D01*
X112865000Y-62088665D01*
X100498072Y-62088665D01*
X100498072Y-61430000D01*
X100485812Y-61305518D01*
X100449502Y-61185820D01*
X100390537Y-61075506D01*
X100311185Y-60978815D01*
X100214494Y-60899463D01*
X100104180Y-60840498D01*
X99984482Y-60804188D01*
X99860000Y-60791928D01*
X98260000Y-60791928D01*
X98135518Y-60804188D01*
X98015820Y-60840498D01*
X97905506Y-60899463D01*
X97808815Y-60978815D01*
X97729463Y-61075506D01*
X97670498Y-61185820D01*
X97634188Y-61305518D01*
X97621928Y-61430000D01*
X91567000Y-61430000D01*
X91567000Y-50927000D01*
X156083000Y-50927000D01*
X156083000Y-109093000D01*
%TA.AperFunction,Conductor*%
D19*
G36*
X156083000Y-109093000D02*
G01*
X91567000Y-109093000D01*
X91567000Y-105275413D01*
X144404192Y-105275413D01*
X144499956Y-105539814D01*
X144789571Y-105680704D01*
X145101108Y-105762384D01*
X145422595Y-105781718D01*
X145741675Y-105737961D01*
X146046088Y-105632795D01*
X146220044Y-105539814D01*
X146315808Y-105275413D01*
X145360000Y-104319605D01*
X144404192Y-105275413D01*
X91567000Y-105275413D01*
X91567000Y-104202595D01*
X143718282Y-104202595D01*
X143762039Y-104521675D01*
X143867205Y-104826088D01*
X143960186Y-105000044D01*
X144224587Y-105095808D01*
X145180395Y-104140000D01*
X145539605Y-104140000D01*
X146495413Y-105095808D01*
X146759814Y-105000044D01*
X146900704Y-104710429D01*
X146982384Y-104398892D01*
X147001718Y-104077405D01*
X146957961Y-103758325D01*
X146852795Y-103453912D01*
X146759814Y-103279956D01*
X146495413Y-103184192D01*
X145539605Y-104140000D01*
X145180395Y-104140000D01*
X144224587Y-103184192D01*
X143960186Y-103279956D01*
X143819296Y-103569571D01*
X143737616Y-103881108D01*
X143718282Y-104202595D01*
X91567000Y-104202595D01*
X91567000Y-103004587D01*
X144404192Y-103004587D01*
X145360000Y-103960395D01*
X146315808Y-103004587D01*
X146220044Y-102740186D01*
X145930429Y-102599296D01*
X145618892Y-102517616D01*
X145297405Y-102498282D01*
X144978325Y-102542039D01*
X144673912Y-102647205D01*
X144499956Y-102740186D01*
X144404192Y-103004587D01*
X91567000Y-103004587D01*
X91567000Y-97688061D01*
X94215000Y-97688061D01*
X94215000Y-97891939D01*
X94254774Y-98091898D01*
X94332795Y-98280256D01*
X94446063Y-98449774D01*
X94590226Y-98593937D01*
X94759744Y-98707205D01*
X94948102Y-98785226D01*
X95148061Y-98825000D01*
X95351939Y-98825000D01*
X95551898Y-98785226D01*
X95740256Y-98707205D01*
X95909774Y-98593937D01*
X96053937Y-98449774D01*
X96167205Y-98280256D01*
X96245226Y-98091898D01*
X96285000Y-97891939D01*
X96285000Y-97688061D01*
X96245226Y-97488102D01*
X96167205Y-97299744D01*
X96053937Y-97130226D01*
X96010000Y-97086289D01*
X96010000Y-79054801D01*
X97174999Y-77889802D01*
X97175000Y-89007667D01*
X97171323Y-89044999D01*
X97175000Y-89082332D01*
X97185997Y-89193985D01*
X97199179Y-89237441D01*
X97229453Y-89337245D01*
X97300025Y-89469275D01*
X97353986Y-89535026D01*
X97394999Y-89585000D01*
X97423997Y-89608798D01*
X97661312Y-89846113D01*
X97625000Y-90028665D01*
X97625000Y-90311335D01*
X97680147Y-90588574D01*
X97788320Y-90849727D01*
X97945363Y-91084759D01*
X98145241Y-91284637D01*
X98377759Y-91440000D01*
X98145241Y-91595363D01*
X97945363Y-91795241D01*
X97788320Y-92030273D01*
X97680147Y-92291426D01*
X97625000Y-92568665D01*
X97625000Y-92851335D01*
X97680147Y-93128574D01*
X97788320Y-93389727D01*
X97945363Y-93624759D01*
X98145241Y-93824637D01*
X98377759Y-93980000D01*
X98145241Y-94135363D01*
X97945363Y-94335241D01*
X97788320Y-94570273D01*
X97680147Y-94831426D01*
X97625000Y-95108665D01*
X97625000Y-95391335D01*
X97680147Y-95668574D01*
X97788320Y-95929727D01*
X97945363Y-96164759D01*
X98145241Y-96364637D01*
X98377759Y-96520000D01*
X98145241Y-96675363D01*
X97945363Y-96875241D01*
X97788320Y-97110273D01*
X97680147Y-97371426D01*
X97625000Y-97648665D01*
X97625000Y-97931335D01*
X97680147Y-98208574D01*
X97788320Y-98469727D01*
X97945363Y-98704759D01*
X98145241Y-98904637D01*
X98380273Y-99061680D01*
X98641426Y-99169853D01*
X98918665Y-99225000D01*
X99201335Y-99225000D01*
X99478574Y-99169853D01*
X99739727Y-99061680D01*
X99974759Y-98904637D01*
X100174637Y-98704759D01*
X100331680Y-98469727D01*
X100439853Y-98208574D01*
X100495000Y-97931335D01*
X100495000Y-97648665D01*
X100458688Y-97466114D01*
X100789801Y-97135001D01*
X113018077Y-97135001D01*
X112920147Y-97371426D01*
X112865000Y-97648665D01*
X112865000Y-97931335D01*
X112920147Y-98208574D01*
X113028320Y-98469727D01*
X113185363Y-98704759D01*
X113385241Y-98904637D01*
X113620273Y-99061680D01*
X113881426Y-99169853D01*
X114158665Y-99225000D01*
X114441335Y-99225000D01*
X114718574Y-99169853D01*
X114979727Y-99061680D01*
X115214759Y-98904637D01*
X115414637Y-98704759D01*
X115571680Y-98469727D01*
X115679853Y-98208574D01*
X115735000Y-97931335D01*
X115735000Y-97648665D01*
X115679853Y-97371426D01*
X115581923Y-97135001D01*
X121533188Y-97135001D01*
X121495724Y-97155026D01*
X121379999Y-97249999D01*
X121356201Y-97278997D01*
X117795199Y-100840000D01*
X97223711Y-100840000D01*
X97179774Y-100796063D01*
X97010256Y-100682795D01*
X96821898Y-100604774D01*
X96621939Y-100565000D01*
X96418061Y-100565000D01*
X96218102Y-100604774D01*
X96029744Y-100682795D01*
X95860226Y-100796063D01*
X95716063Y-100940226D01*
X95602795Y-101109744D01*
X95524774Y-101298102D01*
X95485000Y-101498061D01*
X95485000Y-101701939D01*
X95524774Y-101901898D01*
X95602795Y-102090256D01*
X95716063Y-102259774D01*
X95860226Y-102403937D01*
X96029744Y-102517205D01*
X96218102Y-102595226D01*
X96418061Y-102635000D01*
X96621939Y-102635000D01*
X96821898Y-102595226D01*
X97010256Y-102517205D01*
X97179774Y-102403937D01*
X97223711Y-102360000D01*
X118072678Y-102360000D01*
X118110000Y-102363676D01*
X118147322Y-102360000D01*
X118147333Y-102360000D01*
X118258986Y-102349003D01*
X118402247Y-102305546D01*
X118534276Y-102234974D01*
X118650001Y-102140001D01*
X118673804Y-102110997D01*
X120105762Y-100679039D01*
X129418096Y-100679039D01*
X129458754Y-100813087D01*
X129578963Y-101067420D01*
X129746481Y-101293414D01*
X129954869Y-101482385D01*
X130196119Y-101627070D01*
X130460960Y-101721909D01*
X130683000Y-101600624D01*
X130683000Y-100457000D01*
X130937000Y-100457000D01*
X130937000Y-101600624D01*
X131159040Y-101721909D01*
X131423881Y-101627070D01*
X131665131Y-101482385D01*
X131873519Y-101293414D01*
X132041037Y-101067420D01*
X132161246Y-100813087D01*
X132201904Y-100679039D01*
X132079915Y-100457000D01*
X130937000Y-100457000D01*
X130683000Y-100457000D01*
X129540085Y-100457000D01*
X129418096Y-100679039D01*
X120105762Y-100679039D01*
X122234802Y-98550000D01*
X129591957Y-98550000D01*
X129695363Y-98704759D01*
X129895241Y-98904637D01*
X130130273Y-99061680D01*
X130140865Y-99066067D01*
X129954869Y-99177615D01*
X129746481Y-99366586D01*
X129578963Y-99592580D01*
X129458754Y-99846913D01*
X129418096Y-99980961D01*
X129540085Y-100203000D01*
X130683000Y-100203000D01*
X130683000Y-100183000D01*
X130937000Y-100183000D01*
X130937000Y-100203000D01*
X132079915Y-100203000D01*
X132201904Y-99980961D01*
X132161246Y-99846913D01*
X132041037Y-99592580D01*
X131873519Y-99366586D01*
X131665131Y-99177615D01*
X131479135Y-99066067D01*
X131489727Y-99061680D01*
X131724759Y-98904637D01*
X131924637Y-98704759D01*
X132081680Y-98469727D01*
X132189853Y-98208574D01*
X132245000Y-97931335D01*
X132245000Y-97648665D01*
X132189853Y-97371426D01*
X132081680Y-97110273D01*
X131924637Y-96875241D01*
X131924600Y-96875204D01*
X133136008Y-95663797D01*
X133165000Y-95640004D01*
X133188794Y-95611011D01*
X133188798Y-95611007D01*
X133259972Y-95524280D01*
X133259973Y-95524279D01*
X133330545Y-95392250D01*
X133374002Y-95248989D01*
X133384999Y-95137336D01*
X133384999Y-95137327D01*
X133388675Y-95100004D01*
X133384999Y-95062681D01*
X133384999Y-91279800D01*
X137031312Y-94926114D01*
X136995000Y-95108665D01*
X136995000Y-95391335D01*
X137050147Y-95668574D01*
X137158320Y-95929727D01*
X137315363Y-96164759D01*
X137515241Y-96364637D01*
X137747759Y-96520000D01*
X137515241Y-96675363D01*
X137315363Y-96875241D01*
X137158320Y-97110273D01*
X137050147Y-97371426D01*
X136995000Y-97648665D01*
X136995000Y-97931335D01*
X137050147Y-98208574D01*
X137158320Y-98469727D01*
X137315363Y-98704759D01*
X137515241Y-98904637D01*
X137747759Y-99060000D01*
X137515241Y-99215363D01*
X137315363Y-99415241D01*
X137211957Y-99570000D01*
X136204802Y-99570000D01*
X135655000Y-99020199D01*
X135655000Y-98958061D01*
X135615226Y-98758102D01*
X135537205Y-98569744D01*
X135423937Y-98400226D01*
X135279774Y-98256063D01*
X135110256Y-98142795D01*
X134921898Y-98064774D01*
X134721939Y-98025000D01*
X134518061Y-98025000D01*
X134318102Y-98064774D01*
X134129744Y-98142795D01*
X133960226Y-98256063D01*
X133816063Y-98400226D01*
X133702795Y-98569744D01*
X133624774Y-98758102D01*
X133585000Y-98958061D01*
X133585000Y-99161939D01*
X133624774Y-99361898D01*
X133702795Y-99550256D01*
X133816063Y-99719774D01*
X133960226Y-99863937D01*
X134129744Y-99977205D01*
X134318102Y-100055226D01*
X134518061Y-100095000D01*
X134580199Y-100095000D01*
X135326201Y-100841003D01*
X135349999Y-100870001D01*
X135465724Y-100964974D01*
X135597753Y-101035546D01*
X135741014Y-101079003D01*
X135852667Y-101090000D01*
X135852676Y-101090000D01*
X135889999Y-101093676D01*
X135927322Y-101090000D01*
X137211957Y-101090000D01*
X137315363Y-101244759D01*
X137515241Y-101444637D01*
X137750273Y-101601680D01*
X138011426Y-101709853D01*
X138288665Y-101765000D01*
X138571335Y-101765000D01*
X138848574Y-101709853D01*
X139109727Y-101601680D01*
X139344759Y-101444637D01*
X139544637Y-101244759D01*
X139701680Y-101009727D01*
X139809853Y-100748574D01*
X139865000Y-100471335D01*
X139865000Y-100188665D01*
X139809853Y-99911426D01*
X139701680Y-99650273D01*
X139544637Y-99415241D01*
X139344759Y-99215363D01*
X139112241Y-99060000D01*
X139344759Y-98904637D01*
X139473983Y-98775413D01*
X144404192Y-98775413D01*
X144499956Y-99039814D01*
X144789571Y-99180704D01*
X145101108Y-99262384D01*
X145422595Y-99281718D01*
X145741675Y-99237961D01*
X146046088Y-99132795D01*
X146220044Y-99039814D01*
X146315808Y-98775413D01*
X145360000Y-97819605D01*
X144404192Y-98775413D01*
X139473983Y-98775413D01*
X139544637Y-98704759D01*
X139701680Y-98469727D01*
X139809853Y-98208574D01*
X139865000Y-97931335D01*
X139865000Y-97702595D01*
X143718282Y-97702595D01*
X143762039Y-98021675D01*
X143867205Y-98326088D01*
X143960186Y-98500044D01*
X144224587Y-98595808D01*
X145180395Y-97640000D01*
X145539605Y-97640000D01*
X146495413Y-98595808D01*
X146759814Y-98500044D01*
X146900704Y-98210429D01*
X146982384Y-97898892D01*
X147001718Y-97577405D01*
X146957961Y-97258325D01*
X146852795Y-96953912D01*
X146759814Y-96779956D01*
X146495413Y-96684192D01*
X145539605Y-97640000D01*
X145180395Y-97640000D01*
X144224587Y-96684192D01*
X143960186Y-96779956D01*
X143819296Y-97069571D01*
X143737616Y-97381108D01*
X143718282Y-97702595D01*
X139865000Y-97702595D01*
X139865000Y-97648665D01*
X139809853Y-97371426D01*
X139701680Y-97110273D01*
X139544637Y-96875241D01*
X139344759Y-96675363D01*
X139112241Y-96520000D01*
X139135308Y-96504587D01*
X144404192Y-96504587D01*
X145360000Y-97460395D01*
X146315808Y-96504587D01*
X146220044Y-96240186D01*
X145930429Y-96099296D01*
X145618892Y-96017616D01*
X145297405Y-95998282D01*
X144978325Y-96042039D01*
X144673912Y-96147205D01*
X144499956Y-96240186D01*
X144404192Y-96504587D01*
X139135308Y-96504587D01*
X139344759Y-96364637D01*
X139544637Y-96164759D01*
X139701680Y-95929727D01*
X139809853Y-95668574D01*
X139865000Y-95391335D01*
X139865000Y-95108665D01*
X139809853Y-94831426D01*
X139701680Y-94570273D01*
X139544637Y-94335241D01*
X139344759Y-94135363D01*
X139112241Y-93980000D01*
X139344759Y-93824637D01*
X139544637Y-93624759D01*
X139701680Y-93389727D01*
X139809853Y-93128574D01*
X139865000Y-92851335D01*
X139865000Y-92568665D01*
X147155000Y-92568665D01*
X147155000Y-92851335D01*
X147210147Y-93128574D01*
X147318320Y-93389727D01*
X147475363Y-93624759D01*
X147675241Y-93824637D01*
X147830000Y-93928044D01*
X147830001Y-96332668D01*
X147826324Y-96370000D01*
X147830001Y-96407333D01*
X147840933Y-96518320D01*
X147840998Y-96518985D01*
X147884454Y-96662246D01*
X147955026Y-96794276D01*
X148013509Y-96865537D01*
X148050000Y-96910001D01*
X148078998Y-96933799D01*
X148293823Y-97148624D01*
X148287832Y-97163088D01*
X148225000Y-97478967D01*
X148225000Y-97801033D01*
X148287832Y-98116912D01*
X148411082Y-98414463D01*
X148590013Y-98682252D01*
X148817748Y-98909987D01*
X149085537Y-99088918D01*
X149100000Y-99094909D01*
X149100001Y-102685091D01*
X149085537Y-102691082D01*
X148817748Y-102870013D01*
X148590013Y-103097748D01*
X148411082Y-103365537D01*
X148287832Y-103663088D01*
X148225000Y-103978967D01*
X148225000Y-104301033D01*
X148287832Y-104616912D01*
X148411082Y-104914463D01*
X148590013Y-105182252D01*
X148817748Y-105409987D01*
X149085537Y-105588918D01*
X149383088Y-105712168D01*
X149698967Y-105775000D01*
X150021033Y-105775000D01*
X150336912Y-105712168D01*
X150634463Y-105588918D01*
X150902252Y-105409987D01*
X151129987Y-105182252D01*
X151308918Y-104914463D01*
X151432168Y-104616912D01*
X151495000Y-104301033D01*
X151495000Y-103978967D01*
X151432168Y-103663088D01*
X151308918Y-103365537D01*
X151129987Y-103097748D01*
X150902252Y-102870013D01*
X150634463Y-102691082D01*
X150620000Y-102685091D01*
X150620000Y-99094909D01*
X150634463Y-99088918D01*
X150902252Y-98909987D01*
X151129987Y-98682252D01*
X151308918Y-98414463D01*
X151432168Y-98116912D01*
X151495000Y-97801033D01*
X151495000Y-97478967D01*
X151432168Y-97163088D01*
X151308918Y-96865537D01*
X151129987Y-96597748D01*
X150902252Y-96370013D01*
X150634463Y-96191082D01*
X150336912Y-96067832D01*
X150021033Y-96005000D01*
X149698967Y-96005000D01*
X149383088Y-96067832D01*
X149368624Y-96073823D01*
X149350000Y-96055199D01*
X149350000Y-93928043D01*
X149504759Y-93824637D01*
X149704637Y-93624759D01*
X149861680Y-93389727D01*
X149969853Y-93128574D01*
X150025000Y-92851335D01*
X150025000Y-92568665D01*
X149969853Y-92291426D01*
X149861680Y-92030273D01*
X149704637Y-91795241D01*
X149504759Y-91595363D01*
X149269727Y-91438320D01*
X149008574Y-91330147D01*
X148731335Y-91275000D01*
X148448665Y-91275000D01*
X148171426Y-91330147D01*
X147910273Y-91438320D01*
X147675241Y-91595363D01*
X147475363Y-91795241D01*
X147318320Y-92030273D01*
X147210147Y-92291426D01*
X147155000Y-92568665D01*
X139865000Y-92568665D01*
X139809853Y-92291426D01*
X139701680Y-92030273D01*
X139544637Y-91795241D01*
X139344759Y-91595363D01*
X139112241Y-91440000D01*
X139344759Y-91284637D01*
X139544637Y-91084759D01*
X139701680Y-90849727D01*
X139809853Y-90588574D01*
X139865000Y-90311335D01*
X139865000Y-90028665D01*
X139809853Y-89751426D01*
X139701680Y-89490273D01*
X139544637Y-89255241D01*
X139344759Y-89055363D01*
X139112241Y-88900000D01*
X139344759Y-88744637D01*
X139544637Y-88544759D01*
X139701680Y-88309727D01*
X139809853Y-88048574D01*
X139865000Y-87771335D01*
X139865000Y-87488665D01*
X139809853Y-87211426D01*
X139701680Y-86950273D01*
X139544637Y-86715241D01*
X139344759Y-86515363D01*
X139112241Y-86360000D01*
X139344759Y-86204637D01*
X139544637Y-86004759D01*
X139701680Y-85769727D01*
X139809853Y-85508574D01*
X139865000Y-85231335D01*
X139865000Y-84948665D01*
X139809853Y-84671426D01*
X139701680Y-84410273D01*
X139544637Y-84175241D01*
X139344759Y-83975363D01*
X139112241Y-83820000D01*
X139344759Y-83664637D01*
X139544637Y-83464759D01*
X139701680Y-83229727D01*
X139809853Y-82968574D01*
X139865000Y-82691335D01*
X139865000Y-82408665D01*
X139809853Y-82131426D01*
X139701680Y-81870273D01*
X139544637Y-81635241D01*
X139344759Y-81435363D01*
X139112241Y-81280000D01*
X139344759Y-81124637D01*
X139544637Y-80924759D01*
X139648043Y-80770000D01*
X147371957Y-80770000D01*
X147475363Y-80924759D01*
X147675241Y-81124637D01*
X147910273Y-81281680D01*
X148171426Y-81389853D01*
X148448665Y-81445000D01*
X148731335Y-81445000D01*
X149008574Y-81389853D01*
X149269727Y-81281680D01*
X149504759Y-81124637D01*
X149704637Y-80924759D01*
X149861680Y-80689727D01*
X149969853Y-80428574D01*
X150025000Y-80151335D01*
X150025000Y-79868665D01*
X149969853Y-79591426D01*
X149861680Y-79330273D01*
X149704637Y-79095241D01*
X149504759Y-78895363D01*
X149269727Y-78738320D01*
X149008574Y-78630147D01*
X148731335Y-78575000D01*
X148448665Y-78575000D01*
X148171426Y-78630147D01*
X147910273Y-78738320D01*
X147675241Y-78895363D01*
X147475363Y-79095241D01*
X147371957Y-79250000D01*
X139648043Y-79250000D01*
X139544637Y-79095241D01*
X139344759Y-78895363D01*
X139109727Y-78738320D01*
X138848574Y-78630147D01*
X138571335Y-78575000D01*
X138288665Y-78575000D01*
X138106114Y-78611312D01*
X135183804Y-75689003D01*
X135160001Y-75659999D01*
X135044276Y-75565026D01*
X134912247Y-75494454D01*
X134768986Y-75450997D01*
X134657333Y-75440000D01*
X134657322Y-75440000D01*
X134620000Y-75436324D01*
X134582678Y-75440000D01*
X122234802Y-75440000D01*
X117763618Y-70968816D01*
X120385000Y-70968816D01*
X120385000Y-71271184D01*
X120443989Y-71567743D01*
X120559701Y-71847095D01*
X120727688Y-72098505D01*
X120941495Y-72312312D01*
X121192905Y-72480299D01*
X121472257Y-72596011D01*
X121768816Y-72655000D01*
X122071184Y-72655000D01*
X122367743Y-72596011D01*
X122647095Y-72480299D01*
X122898505Y-72312312D01*
X122964944Y-72245873D01*
X122970498Y-72264180D01*
X123029463Y-72374494D01*
X123108815Y-72471185D01*
X123205506Y-72550537D01*
X123315820Y-72609502D01*
X123435518Y-72645812D01*
X123560000Y-72658072D01*
X125360000Y-72658072D01*
X125484482Y-72645812D01*
X125604180Y-72609502D01*
X125714494Y-72550537D01*
X125811185Y-72471185D01*
X125890537Y-72374494D01*
X125949502Y-72264180D01*
X125985812Y-72144482D01*
X125998072Y-72020000D01*
X125998072Y-71880000D01*
X137211957Y-71880000D01*
X137315363Y-72034759D01*
X137515241Y-72234637D01*
X137750273Y-72391680D01*
X138011426Y-72499853D01*
X138288665Y-72555000D01*
X138571335Y-72555000D01*
X138848574Y-72499853D01*
X139109727Y-72391680D01*
X139344759Y-72234637D01*
X139544637Y-72034759D01*
X139701680Y-71799727D01*
X139809853Y-71538574D01*
X139823684Y-71469039D01*
X149738096Y-71469039D01*
X149778754Y-71603087D01*
X149898963Y-71857420D01*
X150066481Y-72083414D01*
X150274869Y-72272385D01*
X150516119Y-72417070D01*
X150780960Y-72511909D01*
X151003000Y-72390624D01*
X151003000Y-71247000D01*
X151257000Y-71247000D01*
X151257000Y-72390624D01*
X151479040Y-72511909D01*
X151743881Y-72417070D01*
X151985131Y-72272385D01*
X152193519Y-72083414D01*
X152361037Y-71857420D01*
X152481246Y-71603087D01*
X152521904Y-71469039D01*
X152399915Y-71247000D01*
X151257000Y-71247000D01*
X151003000Y-71247000D01*
X149860085Y-71247000D01*
X149738096Y-71469039D01*
X139823684Y-71469039D01*
X139865000Y-71261335D01*
X139865000Y-70978665D01*
X139823685Y-70770961D01*
X149738096Y-70770961D01*
X149860085Y-70993000D01*
X151003000Y-70993000D01*
X151003000Y-69849376D01*
X151257000Y-69849376D01*
X151257000Y-70993000D01*
X152399915Y-70993000D01*
X152521904Y-70770961D01*
X152481246Y-70636913D01*
X152361037Y-70382580D01*
X152193519Y-70156586D01*
X151985131Y-69967615D01*
X151743881Y-69822930D01*
X151479040Y-69728091D01*
X151257000Y-69849376D01*
X151003000Y-69849376D01*
X150780960Y-69728091D01*
X150516119Y-69822930D01*
X150274869Y-69967615D01*
X150066481Y-70156586D01*
X149898963Y-70382580D01*
X149778754Y-70636913D01*
X149738096Y-70770961D01*
X139823685Y-70770961D01*
X139809853Y-70701426D01*
X139701680Y-70440273D01*
X139544637Y-70205241D01*
X139344759Y-70005363D01*
X139109727Y-69848320D01*
X138848574Y-69740147D01*
X138571335Y-69685000D01*
X138288665Y-69685000D01*
X138011426Y-69740147D01*
X137750273Y-69848320D01*
X137515241Y-70005363D01*
X137315363Y-70205241D01*
X137211957Y-70360000D01*
X125998072Y-70360000D01*
X125998072Y-70220000D01*
X125985812Y-70095518D01*
X125949502Y-69975820D01*
X125890537Y-69865506D01*
X125811185Y-69768815D01*
X125714494Y-69689463D01*
X125604180Y-69630498D01*
X125484482Y-69594188D01*
X125360000Y-69581928D01*
X123560000Y-69581928D01*
X123435518Y-69594188D01*
X123315820Y-69630498D01*
X123205506Y-69689463D01*
X123108815Y-69768815D01*
X123029463Y-69865506D01*
X122970498Y-69975820D01*
X122964944Y-69994127D01*
X122898505Y-69927688D01*
X122647095Y-69759701D01*
X122367743Y-69643989D01*
X122071184Y-69585000D01*
X121768816Y-69585000D01*
X121472257Y-69643989D01*
X121192905Y-69759701D01*
X120941495Y-69927688D01*
X120727688Y-70141495D01*
X120559701Y-70392905D01*
X120443989Y-70672257D01*
X120385000Y-70968816D01*
X117763618Y-70968816D01*
X116133804Y-69339003D01*
X116110001Y-69309999D01*
X115994276Y-69215026D01*
X115862247Y-69144454D01*
X115718986Y-69100997D01*
X115607333Y-69090000D01*
X115607322Y-69090000D01*
X115570000Y-69086324D01*
X115532678Y-69090000D01*
X115518043Y-69090000D01*
X115414637Y-68935241D01*
X115214759Y-68735363D01*
X114982241Y-68580000D01*
X115214759Y-68424637D01*
X115414637Y-68224759D01*
X115571680Y-67989727D01*
X115679853Y-67728574D01*
X115735000Y-67451335D01*
X115735000Y-67168665D01*
X115679853Y-66891426D01*
X115571680Y-66630273D01*
X115414637Y-66395241D01*
X115214759Y-66195363D01*
X114979727Y-66038320D01*
X114969135Y-66033933D01*
X115155131Y-65922385D01*
X115363519Y-65733414D01*
X115531037Y-65507420D01*
X115651246Y-65253087D01*
X115691904Y-65119039D01*
X115569915Y-64897000D01*
X114427000Y-64897000D01*
X114427000Y-64917000D01*
X114173000Y-64917000D01*
X114173000Y-64897000D01*
X113030085Y-64897000D01*
X112908096Y-65119039D01*
X112948754Y-65253087D01*
X113068963Y-65507420D01*
X113236481Y-65733414D01*
X113444869Y-65922385D01*
X113630865Y-66033933D01*
X113620273Y-66038320D01*
X113385241Y-66195363D01*
X113185363Y-66395241D01*
X113028320Y-66630273D01*
X112920147Y-66891426D01*
X112865000Y-67168665D01*
X112865000Y-67451335D01*
X112920147Y-67728574D01*
X113028320Y-67989727D01*
X113185363Y-68224759D01*
X113385241Y-68424637D01*
X113617759Y-68580000D01*
X113385241Y-68735363D01*
X113185363Y-68935241D01*
X113028320Y-69170273D01*
X112920147Y-69431426D01*
X112865000Y-69708665D01*
X112865000Y-69991335D01*
X112920147Y-70268574D01*
X113028320Y-70529727D01*
X113185363Y-70764759D01*
X113385241Y-70964637D01*
X113617759Y-71120000D01*
X113385241Y-71275363D01*
X113185363Y-71475241D01*
X113028320Y-71710273D01*
X112920147Y-71971426D01*
X112865000Y-72248665D01*
X112865000Y-72531335D01*
X112920147Y-72808574D01*
X113028320Y-73069727D01*
X113185363Y-73304759D01*
X113385241Y-73504637D01*
X113617759Y-73660000D01*
X113385241Y-73815363D01*
X113185363Y-74015241D01*
X113028320Y-74250273D01*
X112920147Y-74511426D01*
X112865000Y-74788665D01*
X112865000Y-75071335D01*
X112920147Y-75348574D01*
X113028320Y-75609727D01*
X113185363Y-75844759D01*
X113385241Y-76044637D01*
X113617759Y-76200000D01*
X113385241Y-76355363D01*
X113185363Y-76555241D01*
X113028320Y-76790273D01*
X112920147Y-77051426D01*
X112865000Y-77328665D01*
X112865000Y-77611335D01*
X112920147Y-77888574D01*
X112958017Y-77980000D01*
X111193711Y-77980000D01*
X111149774Y-77936063D01*
X110980256Y-77822795D01*
X110791898Y-77744774D01*
X110591939Y-77705000D01*
X110388061Y-77705000D01*
X110188102Y-77744774D01*
X109999744Y-77822795D01*
X109830226Y-77936063D01*
X109686063Y-78080226D01*
X109572795Y-78249744D01*
X109494774Y-78438102D01*
X109455000Y-78638061D01*
X109455000Y-78841939D01*
X109494774Y-79041898D01*
X109572795Y-79230256D01*
X109686063Y-79399774D01*
X109830226Y-79543937D01*
X109999744Y-79657205D01*
X110188102Y-79735226D01*
X110388061Y-79775000D01*
X110591939Y-79775000D01*
X110791898Y-79735226D01*
X110980256Y-79657205D01*
X111149774Y-79543937D01*
X111193711Y-79500000D01*
X112958017Y-79500000D01*
X112920147Y-79591426D01*
X112865000Y-79868665D01*
X112865000Y-80151335D01*
X112920147Y-80428574D01*
X113018077Y-80664999D01*
X104994803Y-80664999D01*
X100174600Y-75844796D01*
X100174637Y-75844759D01*
X100331680Y-75609727D01*
X100439853Y-75348574D01*
X100495000Y-75071335D01*
X100495000Y-74788665D01*
X100439853Y-74511426D01*
X100331680Y-74250273D01*
X100174637Y-74015241D01*
X99974759Y-73815363D01*
X99742241Y-73660000D01*
X99974759Y-73504637D01*
X100174637Y-73304759D01*
X100331680Y-73069727D01*
X100439853Y-72808574D01*
X100495000Y-72531335D01*
X100495000Y-72248665D01*
X100439853Y-71971426D01*
X100331680Y-71710273D01*
X100174637Y-71475241D01*
X99974759Y-71275363D01*
X99739727Y-71118320D01*
X99729135Y-71113933D01*
X99915131Y-71002385D01*
X100123519Y-70813414D01*
X100291037Y-70587420D01*
X100411246Y-70333087D01*
X100451904Y-70199039D01*
X100329915Y-69977000D01*
X99187000Y-69977000D01*
X99187000Y-69997000D01*
X98933000Y-69997000D01*
X98933000Y-69977000D01*
X97790085Y-69977000D01*
X97668096Y-70199039D01*
X97708754Y-70333087D01*
X97828963Y-70587420D01*
X97996481Y-70813414D01*
X98204869Y-71002385D01*
X98390865Y-71113933D01*
X98380273Y-71118320D01*
X98145241Y-71275363D01*
X97945363Y-71475241D01*
X97788320Y-71710273D01*
X97680147Y-71971426D01*
X97625000Y-72248665D01*
X97625000Y-72531335D01*
X97680147Y-72808574D01*
X97788320Y-73069727D01*
X97945363Y-73304759D01*
X98145241Y-73504637D01*
X98377759Y-73660000D01*
X98145241Y-73815363D01*
X97945363Y-74015241D01*
X97788320Y-74250273D01*
X97680147Y-74511426D01*
X97625000Y-74788665D01*
X97625000Y-75071335D01*
X97661312Y-75253886D01*
X94738998Y-78176201D01*
X94710000Y-78199999D01*
X94686202Y-78228997D01*
X94686201Y-78228998D01*
X94615026Y-78315724D01*
X94544454Y-78447754D01*
X94514180Y-78547558D01*
X94502933Y-78584637D01*
X94500998Y-78591015D01*
X94486324Y-78740000D01*
X94490001Y-78777333D01*
X94490000Y-95682334D01*
X94490001Y-95682342D01*
X94490000Y-97086289D01*
X94446063Y-97130226D01*
X94332795Y-97299744D01*
X94254774Y-97488102D01*
X94215000Y-97688061D01*
X91567000Y-97688061D01*
X91567000Y-61430000D01*
X97621928Y-61430000D01*
X97621928Y-63030000D01*
X97634188Y-63154482D01*
X97670498Y-63274180D01*
X97729463Y-63384494D01*
X97808815Y-63481185D01*
X97905506Y-63560537D01*
X98015820Y-63619502D01*
X98135518Y-63655812D01*
X98143961Y-63656643D01*
X97945363Y-63855241D01*
X97788320Y-64090273D01*
X97680147Y-64351426D01*
X97625000Y-64628665D01*
X97625000Y-64911335D01*
X97680147Y-65188574D01*
X97788320Y-65449727D01*
X97945363Y-65684759D01*
X98145241Y-65884637D01*
X98377759Y-66040000D01*
X98145241Y-66195363D01*
X97945363Y-66395241D01*
X97788320Y-66630273D01*
X97680147Y-66891426D01*
X97625000Y-67168665D01*
X97625000Y-67451335D01*
X97680147Y-67728574D01*
X97788320Y-67989727D01*
X97945363Y-68224759D01*
X98145241Y-68424637D01*
X98380273Y-68581680D01*
X98390865Y-68586067D01*
X98204869Y-68697615D01*
X97996481Y-68886586D01*
X97828963Y-69112580D01*
X97708754Y-69366913D01*
X97668096Y-69500961D01*
X97790085Y-69723000D01*
X98933000Y-69723000D01*
X98933000Y-69703000D01*
X99187000Y-69703000D01*
X99187000Y-69723000D01*
X100329915Y-69723000D01*
X100451904Y-69500961D01*
X100411246Y-69366913D01*
X100291037Y-69112580D01*
X100123519Y-68886586D01*
X99915131Y-68697615D01*
X99729135Y-68586067D01*
X99739727Y-68581680D01*
X99974759Y-68424637D01*
X100174637Y-68224759D01*
X100331680Y-67989727D01*
X100439853Y-67728574D01*
X100495000Y-67451335D01*
X100495000Y-67168665D01*
X100439853Y-66891426D01*
X100331680Y-66630273D01*
X100174637Y-66395241D01*
X99974759Y-66195363D01*
X99742241Y-66040000D01*
X99974759Y-65884637D01*
X100174637Y-65684759D01*
X100331680Y-65449727D01*
X100439853Y-65188574D01*
X100495000Y-64911335D01*
X100495000Y-64628665D01*
X100439853Y-64351426D01*
X100331680Y-64090273D01*
X100174637Y-63855241D01*
X99976039Y-63656643D01*
X99984482Y-63655812D01*
X100104180Y-63619502D01*
X100214494Y-63560537D01*
X100311185Y-63481185D01*
X100390537Y-63384494D01*
X100449502Y-63274180D01*
X100485812Y-63154482D01*
X100498072Y-63030000D01*
X100498072Y-62088665D01*
X112865000Y-62088665D01*
X112865000Y-62371335D01*
X112920147Y-62648574D01*
X113028320Y-62909727D01*
X113185363Y-63144759D01*
X113385241Y-63344637D01*
X113620273Y-63501680D01*
X113630865Y-63506067D01*
X113444869Y-63617615D01*
X113236481Y-63806586D01*
X113068963Y-64032580D01*
X112948754Y-64286913D01*
X112908096Y-64420961D01*
X113030085Y-64643000D01*
X114173000Y-64643000D01*
X114173000Y-64623000D01*
X114427000Y-64623000D01*
X114427000Y-64643000D01*
X115569915Y-64643000D01*
X115691904Y-64420961D01*
X115651246Y-64286913D01*
X115531037Y-64032580D01*
X115363519Y-63806586D01*
X115155131Y-63617615D01*
X114969135Y-63506067D01*
X114979727Y-63501680D01*
X115214759Y-63344637D01*
X115414637Y-63144759D01*
X115571680Y-62909727D01*
X115679853Y-62648574D01*
X115735000Y-62371335D01*
X115735000Y-62088665D01*
X115733041Y-62078816D01*
X120385000Y-62078816D01*
X120385000Y-62381184D01*
X120443989Y-62677743D01*
X120559701Y-62957095D01*
X120727688Y-63208505D01*
X120941495Y-63422312D01*
X121192905Y-63590299D01*
X121472257Y-63706011D01*
X121768816Y-63765000D01*
X122071184Y-63765000D01*
X122367743Y-63706011D01*
X122647095Y-63590299D01*
X122898505Y-63422312D01*
X122964944Y-63355873D01*
X122970498Y-63374180D01*
X123029463Y-63484494D01*
X123108815Y-63581185D01*
X123205506Y-63660537D01*
X123315820Y-63719502D01*
X123435518Y-63755812D01*
X123560000Y-63768072D01*
X125360000Y-63768072D01*
X125484482Y-63755812D01*
X125604180Y-63719502D01*
X125714494Y-63660537D01*
X125811185Y-63581185D01*
X125890537Y-63484494D01*
X125949502Y-63374180D01*
X125985812Y-63254482D01*
X125998072Y-63130000D01*
X125998072Y-62990000D01*
X137211957Y-62990000D01*
X137315363Y-63144759D01*
X137515241Y-63344637D01*
X137750273Y-63501680D01*
X138011426Y-63609853D01*
X138288665Y-63665000D01*
X138571335Y-63665000D01*
X138848574Y-63609853D01*
X139109727Y-63501680D01*
X139344759Y-63344637D01*
X139466694Y-63222702D01*
X150316903Y-63222702D01*
X150388486Y-63466671D01*
X150643996Y-63587571D01*
X150918184Y-63656300D01*
X151200512Y-63670217D01*
X151480130Y-63628787D01*
X151746292Y-63533603D01*
X151871514Y-63466671D01*
X151943097Y-63222702D01*
X151130000Y-62409605D01*
X150316903Y-63222702D01*
X139466694Y-63222702D01*
X139544637Y-63144759D01*
X139701680Y-62909727D01*
X139809853Y-62648574D01*
X139865000Y-62371335D01*
X139865000Y-62300512D01*
X149689783Y-62300512D01*
X149731213Y-62580130D01*
X149826397Y-62846292D01*
X149893329Y-62971514D01*
X150137298Y-63043097D01*
X150950395Y-62230000D01*
X151309605Y-62230000D01*
X152122702Y-63043097D01*
X152366671Y-62971514D01*
X152487571Y-62716004D01*
X152556300Y-62441816D01*
X152570217Y-62159488D01*
X152528787Y-61879870D01*
X152433603Y-61613708D01*
X152366671Y-61488486D01*
X152122702Y-61416903D01*
X151309605Y-62230000D01*
X150950395Y-62230000D01*
X150137298Y-61416903D01*
X149893329Y-61488486D01*
X149772429Y-61743996D01*
X149703700Y-62018184D01*
X149689783Y-62300512D01*
X139865000Y-62300512D01*
X139865000Y-62088665D01*
X139809853Y-61811426D01*
X139701680Y-61550273D01*
X139544637Y-61315241D01*
X139466694Y-61237298D01*
X150316903Y-61237298D01*
X151130000Y-62050395D01*
X151943097Y-61237298D01*
X151871514Y-60993329D01*
X151616004Y-60872429D01*
X151341816Y-60803700D01*
X151059488Y-60789783D01*
X150779870Y-60831213D01*
X150513708Y-60926397D01*
X150388486Y-60993329D01*
X150316903Y-61237298D01*
X139466694Y-61237298D01*
X139344759Y-61115363D01*
X139109727Y-60958320D01*
X138848574Y-60850147D01*
X138571335Y-60795000D01*
X138288665Y-60795000D01*
X138011426Y-60850147D01*
X137750273Y-60958320D01*
X137515241Y-61115363D01*
X137315363Y-61315241D01*
X137211957Y-61470000D01*
X125998072Y-61470000D01*
X125998072Y-61330000D01*
X125985812Y-61205518D01*
X125949502Y-61085820D01*
X125890537Y-60975506D01*
X125811185Y-60878815D01*
X125714494Y-60799463D01*
X125604180Y-60740498D01*
X125484482Y-60704188D01*
X125360000Y-60691928D01*
X123560000Y-60691928D01*
X123435518Y-60704188D01*
X123315820Y-60740498D01*
X123205506Y-60799463D01*
X123108815Y-60878815D01*
X123029463Y-60975506D01*
X122970498Y-61085820D01*
X122964944Y-61104127D01*
X122898505Y-61037688D01*
X122647095Y-60869701D01*
X122367743Y-60753989D01*
X122071184Y-60695000D01*
X121768816Y-60695000D01*
X121472257Y-60753989D01*
X121192905Y-60869701D01*
X120941495Y-61037688D01*
X120727688Y-61251495D01*
X120559701Y-61502905D01*
X120443989Y-61782257D01*
X120385000Y-62078816D01*
X115733041Y-62078816D01*
X115679853Y-61811426D01*
X115571680Y-61550273D01*
X115414637Y-61315241D01*
X115214759Y-61115363D01*
X114979727Y-60958320D01*
X114718574Y-60850147D01*
X114441335Y-60795000D01*
X114158665Y-60795000D01*
X113881426Y-60850147D01*
X113620273Y-60958320D01*
X113385241Y-61115363D01*
X113185363Y-61315241D01*
X113028320Y-61550273D01*
X112920147Y-61811426D01*
X112865000Y-62088665D01*
X100498072Y-62088665D01*
X100498072Y-61430000D01*
X100485812Y-61305518D01*
X100449502Y-61185820D01*
X100390537Y-61075506D01*
X100311185Y-60978815D01*
X100214494Y-60899463D01*
X100104180Y-60840498D01*
X99984482Y-60804188D01*
X99860000Y-60791928D01*
X98260000Y-60791928D01*
X98135518Y-60804188D01*
X98015820Y-60840498D01*
X97905506Y-60899463D01*
X97808815Y-60978815D01*
X97729463Y-61075506D01*
X97670498Y-61185820D01*
X97634188Y-61305518D01*
X97621928Y-61430000D01*
X91567000Y-61430000D01*
X91567000Y-50927000D01*
X156083000Y-50927000D01*
X156083000Y-109093000D01*
G37*
%TD.AperFunction*%
%TD*%
M02*
