M48
; DRILL file {KiCad (5.1.10)-1} date 07/06/21 22:39:03
; FORMAT={-:-/ absolute / inch / decimal}
; #@! TF.CreationDate,2021-07-06T22:39:03+01:00
; #@! TF.GenerationSoftware,Kicad,Pcbnew,(5.1.10)-1
; #@! TF.FileFunction,Plated,1,2,PTH
FMAT,2
INCH
T1C0.0157
T2C0.0315
T3C0.0354
T4C0.0394
T5C0.0433
%
G90
G05
T1
X3.75Y-3.85
X3.8Y-4.0
X4.35Y-3.1
X4.35Y-3.4
X4.4Y-3.3
X4.9Y-3.05
X5.25Y-3.4
X5.3Y-3.5
X5.3Y-3.9
T2
X5.15Y-3.15
X5.15Y-3.25
X5.15Y-3.35
X5.15Y-3.45
X5.15Y-3.55
X5.15Y-3.65
X5.15Y-3.75
X5.15Y-3.85
X5.15Y-3.95
X5.45Y-2.45
X5.45Y-2.8
X5.45Y-3.15
X5.45Y-3.25
X5.45Y-3.35
X5.45Y-3.45
X5.45Y-3.55
X5.45Y-3.65
X5.45Y-3.75
X5.45Y-3.85
X5.45Y-3.95
X5.85Y-3.15
X5.85Y-3.65
X5.95Y-2.45
X5.95Y-2.8
T3
X4.8Y-2.45
X4.8Y-2.8
X4.9Y-2.45
X4.9Y-2.8
T4
X3.9Y-2.45
X3.9Y-2.55
X3.9Y-2.65
X3.9Y-2.75
X3.9Y-2.85
X3.9Y-2.95
X3.9Y-3.05
X3.9Y-3.15
X3.9Y-3.25
X3.9Y-3.35
X3.9Y-3.45
X3.9Y-3.55
X3.9Y-3.65
X3.9Y-3.75
X3.9Y-3.85
X4.5Y-2.45
X4.5Y-2.55
X4.5Y-2.65
X4.5Y-2.75
X4.5Y-2.85
X4.5Y-2.95
X4.5Y-3.05
X4.5Y-3.15
X4.5Y-3.25
X4.5Y-3.35
X4.5Y-3.45
X4.5Y-3.55
X4.5Y-3.65
X4.5Y-3.75
X4.5Y-3.85
T5
X5.7228Y-3.8441
X5.7228Y-4.1
X5.9Y-3.8441
X5.9Y-4.1
T0
M30
