%TF.GenerationSoftware,KiCad,Pcbnew,(5.1.10)-1*%
%TF.CreationDate,2021-07-06T22:39:24+01:00*%
%TF.ProjectId,2114_sram_tester,32313134-5f73-4726-916d-5f7465737465,rev?*%
%TF.SameCoordinates,Original*%
%TF.FileFunction,Copper,L1,Top*%
%TF.FilePolarity,Positive*%
%FSLAX46Y46*%
G04 Gerber Fmt 4.6, Leading zero omitted, Abs format (unit mm)*
G04 Created by KiCad (PCBNEW (5.1.10)-1) date 2021-07-06 22:39:24*
%MOMM*%
%LPD*%
G01*
G04 APERTURE LIST*
%TA.AperFunction,ComponentPad*%
%ADD10C,2.000000*%
%TD*%
%TA.AperFunction,ComponentPad*%
%ADD11O,1.600000X1.600000*%
%TD*%
%TA.AperFunction,ComponentPad*%
%ADD12C,1.600000*%
%TD*%
%TA.AperFunction,ComponentPad*%
%ADD13R,1.600000X1.600000*%
%TD*%
%TA.AperFunction,ComponentPad*%
%ADD14C,1.800000*%
%TD*%
%TA.AperFunction,ComponentPad*%
%ADD15R,1.800000X1.800000*%
%TD*%
%TA.AperFunction,ViaPad*%
%ADD16C,0.800000*%
%TD*%
%TA.AperFunction,Conductor*%
%ADD17C,0.250000*%
%TD*%
%TA.AperFunction,Conductor*%
%ADD18C,0.254000*%
%TD*%
%TA.AperFunction,Conductor*%
%ADD19C,0.100000*%
%TD*%
G04 APERTURE END LIST*
D10*
%TO.P,SW1,1*%
%TO.N,GND*%
X145360000Y-97640000D03*
%TO.P,SW1,2*%
%TO.N,Switch*%
X149860000Y-97640000D03*
%TO.P,SW1,1*%
%TO.N,GND*%
X145360000Y-104140000D03*
%TO.P,SW1,2*%
%TO.N,Switch*%
X149860000Y-104140000D03*
%TD*%
D11*
%TO.P,R3,2*%
%TO.N,5vPower*%
X148590000Y-80010000D03*
D12*
%TO.P,R3,1*%
%TO.N,Switch*%
X148590000Y-92710000D03*
%TD*%
D11*
%TO.P,R2,2*%
%TO.N,GND*%
X151130000Y-71120000D03*
D12*
%TO.P,R2,1*%
%TO.N,Net-(D2-Pad1)*%
X138430000Y-71120000D03*
%TD*%
D11*
%TO.P,R1,2*%
%TO.N,Net-(D1-Pad1)*%
X138430000Y-62230000D03*
D12*
%TO.P,R1,1*%
%TO.N,GND*%
X151130000Y-62230000D03*
%TD*%
D11*
%TO.P,A1,16*%
%TO.N,SRAM_A9*%
X114300000Y-97790000D03*
%TO.P,A1,15*%
%TO.N,SRAM_A8*%
X99060000Y-97790000D03*
%TO.P,A1,30*%
%TO.N,Net-(A1-Pad30)*%
X114300000Y-62230000D03*
%TO.P,A1,14*%
%TO.N,SRAM_A7*%
X99060000Y-95250000D03*
%TO.P,A1,29*%
%TO.N,GND*%
X114300000Y-64770000D03*
%TO.P,A1,13*%
%TO.N,SRAM_A6*%
X99060000Y-92710000D03*
%TO.P,A1,28*%
%TO.N,Net-(A1-Pad28)*%
X114300000Y-67310000D03*
%TO.P,A1,12*%
%TO.N,SRAM_A5*%
X99060000Y-90170000D03*
%TO.P,A1,27*%
%TO.N,5vPower*%
X114300000Y-69850000D03*
%TO.P,A1,11*%
%TO.N,SRAM_A4*%
X99060000Y-87630000D03*
%TO.P,A1,26*%
%TO.N,Net-(A1-Pad26)*%
X114300000Y-72390000D03*
%TO.P,A1,10*%
%TO.N,SRAM_A3*%
X99060000Y-85090000D03*
%TO.P,A1,25*%
%TO.N,Switch*%
X114300000Y-74930000D03*
%TO.P,A1,9*%
%TO.N,SRAM_A2*%
X99060000Y-82550000D03*
%TO.P,A1,24*%
%TO.N,Red_LED*%
X114300000Y-77470000D03*
%TO.P,A1,8*%
%TO.N,SRAM_A1*%
X99060000Y-80010000D03*
%TO.P,A1,23*%
%TO.N,Green_LED*%
X114300000Y-80010000D03*
%TO.P,A1,7*%
%TO.N,SRAM_A0*%
X99060000Y-77470000D03*
%TO.P,A1,22*%
%TO.N,Data_4*%
X114300000Y-82550000D03*
%TO.P,A1,6*%
%TO.N,Write_Enable*%
X99060000Y-74930000D03*
%TO.P,A1,21*%
%TO.N,Data_3*%
X114300000Y-85090000D03*
%TO.P,A1,5*%
%TO.N,Chip_Select*%
X99060000Y-72390000D03*
%TO.P,A1,20*%
%TO.N,Data_2*%
X114300000Y-87630000D03*
%TO.P,A1,4*%
%TO.N,GND*%
X99060000Y-69850000D03*
%TO.P,A1,19*%
%TO.N,Data_1*%
X114300000Y-90170000D03*
%TO.P,A1,3*%
%TO.N,Net-(A1-Pad3)*%
X99060000Y-67310000D03*
%TO.P,A1,18*%
%TO.N,Net-(A1-Pad18)*%
X114300000Y-92710000D03*
%TO.P,A1,2*%
%TO.N,Net-(A1-Pad2)*%
X99060000Y-64770000D03*
%TO.P,A1,17*%
%TO.N,Net-(A1-Pad17)*%
X114300000Y-95250000D03*
D13*
%TO.P,A1,1*%
%TO.N,Net-(A1-Pad1)*%
X99060000Y-62230000D03*
%TD*%
D11*
%TO.P,J1,18*%
%TO.N,5vPower*%
X138430000Y-80010000D03*
%TO.P,J1,9*%
%TO.N,GND*%
X130810000Y-100330000D03*
%TO.P,J1,17*%
%TO.N,SRAM_A7*%
X138430000Y-82550000D03*
%TO.P,J1,8*%
%TO.N,Chip_Select*%
X130810000Y-97790000D03*
%TO.P,J1,16*%
%TO.N,SRAM_A8*%
X138430000Y-85090000D03*
%TO.P,J1,7*%
%TO.N,SRAM_A2*%
X130810000Y-95250000D03*
%TO.P,J1,15*%
%TO.N,SRAM_A9*%
X138430000Y-87630000D03*
%TO.P,J1,6*%
%TO.N,SRAM_A1*%
X130810000Y-92710000D03*
%TO.P,J1,14*%
%TO.N,Data_1*%
X138430000Y-90170000D03*
%TO.P,J1,5*%
%TO.N,SRAM_A0*%
X130810000Y-90170000D03*
%TO.P,J1,13*%
%TO.N,Data_2*%
X138430000Y-92710000D03*
%TO.P,J1,4*%
%TO.N,SRAM_A3*%
X130810000Y-87630000D03*
%TO.P,J1,12*%
%TO.N,Data_3*%
X138430000Y-95250000D03*
%TO.P,J1,3*%
%TO.N,SRAM_A4*%
X130810000Y-85090000D03*
%TO.P,J1,11*%
%TO.N,Data_4*%
X138430000Y-97790000D03*
%TO.P,J1,2*%
%TO.N,SRAM_A5*%
X130810000Y-82550000D03*
%TO.P,J1,10*%
%TO.N,Write_Enable*%
X138430000Y-100330000D03*
D13*
%TO.P,J1,1*%
%TO.N,SRAM_A6*%
X130810000Y-80010000D03*
%TD*%
D14*
%TO.P,D2,2*%
%TO.N,Green_LED*%
X121920000Y-71120000D03*
D15*
%TO.P,D2,1*%
%TO.N,Net-(D2-Pad1)*%
X124460000Y-71120000D03*
%TD*%
D14*
%TO.P,D1,2*%
%TO.N,Red_LED*%
X121920000Y-62230000D03*
D15*
%TO.P,D1,1*%
%TO.N,Net-(D1-Pad1)*%
X124460000Y-62230000D03*
%TD*%
D16*
%TO.N,SRAM_A7*%
X110490000Y-78740000D03*
%TO.N,SRAM_A4*%
X111760000Y-83820000D03*
%TO.N,SRAM_A3*%
X110490000Y-86360000D03*
%TO.N,Write_Enable*%
X134620000Y-99060000D03*
X95250000Y-97790000D03*
%TO.N,Data_3*%
X133350000Y-86360000D03*
%TO.N,Chip_Select*%
X96520000Y-101600000D03*
%TO.N,Data_2*%
X134620000Y-88900000D03*
%TO.N,Switch*%
X124460000Y-77470000D03*
%TD*%
D17*
%TO.N,SRAM_A9*%
X115425001Y-96664999D02*
X142095001Y-96664999D01*
X114300000Y-97790000D02*
X115425001Y-96664999D01*
X142095001Y-96664999D02*
X143510000Y-95250000D01*
X143510000Y-92710000D02*
X138430000Y-87630000D01*
X143510000Y-95250000D02*
X143510000Y-92710000D01*
%TO.N,SRAM_A7*%
X98664998Y-78740000D02*
X110490000Y-78740000D01*
X97484990Y-79920008D02*
X98664998Y-78740000D01*
X97484990Y-93674990D02*
X97484990Y-79920008D01*
X99060000Y-95250000D02*
X97484990Y-93674990D01*
%TO.N,SRAM_A6*%
X97934999Y-91584999D02*
X99060000Y-92710000D01*
X97934999Y-82009999D02*
X97934999Y-91584999D01*
X98809997Y-81135001D02*
X97934999Y-82009999D01*
X129684999Y-81135001D02*
X98809997Y-81135001D01*
X130810000Y-80010000D02*
X129684999Y-81135001D01*
%TO.N,SRAM_A4*%
X110293002Y-87630000D02*
X99060000Y-87630000D01*
X111760000Y-86163002D02*
X110293002Y-87630000D01*
X111760000Y-83820000D02*
X111760000Y-86163002D01*
%TO.N,SRAM_A3*%
X100330000Y-86360000D02*
X99060000Y-85090000D01*
X110490000Y-86360000D02*
X100330000Y-86360000D01*
%TO.N,Red_LED*%
X118110000Y-73660000D02*
X114300000Y-77470000D01*
X118110000Y-66040000D02*
X121920000Y-62230000D01*
X118110000Y-73660000D02*
X118110000Y-66040000D01*
%TO.N,Green_LED*%
X114300000Y-80010000D02*
X121920000Y-72390000D01*
X121920000Y-72390000D02*
X121920000Y-71120000D01*
%TO.N,Data_4*%
X143960009Y-95436401D02*
X141606410Y-97790000D01*
X143960009Y-88955007D02*
X143960009Y-95436401D01*
X138970001Y-83964999D02*
X143960009Y-88955007D01*
X141606410Y-97790000D02*
X138430000Y-97790000D01*
X115714999Y-83964999D02*
X138970001Y-83964999D01*
X114300000Y-82550000D02*
X115714999Y-83964999D01*
%TO.N,Write_Enable*%
X96520000Y-99060000D02*
X95250000Y-97790000D01*
X134620000Y-99060000D02*
X96520000Y-99060000D01*
%TO.N,Data_3*%
X115570000Y-86360000D02*
X133350000Y-86360000D01*
X114300000Y-85090000D02*
X115570000Y-86360000D01*
%TO.N,Chip_Select*%
X94524999Y-76925001D02*
X99060000Y-72390000D01*
X94524999Y-99604999D02*
X94524999Y-76925001D01*
X96520000Y-101600000D02*
X94524999Y-99604999D01*
%TO.N,Data_2*%
X115570000Y-88900000D02*
X134620000Y-88900000D01*
X114300000Y-87630000D02*
X115570000Y-88900000D01*
%TO.N,Data_1*%
X137304999Y-91295001D02*
X138430000Y-90170000D01*
X115425001Y-91295001D02*
X137304999Y-91295001D01*
X114300000Y-90170000D02*
X115425001Y-91295001D01*
%TO.N,Switch*%
X133935000Y-77470000D02*
X124460000Y-77470000D01*
X137889999Y-81424999D02*
X133935000Y-77470000D01*
X138970001Y-81424999D02*
X137889999Y-81424999D01*
X148590000Y-91044998D02*
X138970001Y-81424999D01*
X148590000Y-92710000D02*
X148590000Y-91044998D01*
%TD*%
D18*
%TO.N,GND*%
X156083000Y-109093000D02*
X91567000Y-109093000D01*
X91567000Y-105275413D01*
X144404192Y-105275413D01*
X144499956Y-105539814D01*
X144789571Y-105680704D01*
X145101108Y-105762384D01*
X145422595Y-105781718D01*
X145741675Y-105737961D01*
X146046088Y-105632795D01*
X146220044Y-105539814D01*
X146315808Y-105275413D01*
X145360000Y-104319605D01*
X144404192Y-105275413D01*
X91567000Y-105275413D01*
X91567000Y-104202595D01*
X143718282Y-104202595D01*
X143762039Y-104521675D01*
X143867205Y-104826088D01*
X143960186Y-105000044D01*
X144224587Y-105095808D01*
X145180395Y-104140000D01*
X145539605Y-104140000D01*
X146495413Y-105095808D01*
X146759814Y-105000044D01*
X146900704Y-104710429D01*
X146982384Y-104398892D01*
X147001718Y-104077405D01*
X146988219Y-103978967D01*
X148225000Y-103978967D01*
X148225000Y-104301033D01*
X148287832Y-104616912D01*
X148411082Y-104914463D01*
X148590013Y-105182252D01*
X148817748Y-105409987D01*
X149085537Y-105588918D01*
X149383088Y-105712168D01*
X149698967Y-105775000D01*
X150021033Y-105775000D01*
X150336912Y-105712168D01*
X150634463Y-105588918D01*
X150902252Y-105409987D01*
X151129987Y-105182252D01*
X151308918Y-104914463D01*
X151432168Y-104616912D01*
X151495000Y-104301033D01*
X151495000Y-103978967D01*
X151432168Y-103663088D01*
X151308918Y-103365537D01*
X151129987Y-103097748D01*
X150902252Y-102870013D01*
X150634463Y-102691082D01*
X150336912Y-102567832D01*
X150021033Y-102505000D01*
X149698967Y-102505000D01*
X149383088Y-102567832D01*
X149085537Y-102691082D01*
X148817748Y-102870013D01*
X148590013Y-103097748D01*
X148411082Y-103365537D01*
X148287832Y-103663088D01*
X148225000Y-103978967D01*
X146988219Y-103978967D01*
X146957961Y-103758325D01*
X146852795Y-103453912D01*
X146759814Y-103279956D01*
X146495413Y-103184192D01*
X145539605Y-104140000D01*
X145180395Y-104140000D01*
X144224587Y-103184192D01*
X143960186Y-103279956D01*
X143819296Y-103569571D01*
X143737616Y-103881108D01*
X143718282Y-104202595D01*
X91567000Y-104202595D01*
X91567000Y-103004587D01*
X144404192Y-103004587D01*
X145360000Y-103960395D01*
X146315808Y-103004587D01*
X146220044Y-102740186D01*
X145930429Y-102599296D01*
X145618892Y-102517616D01*
X145297405Y-102498282D01*
X144978325Y-102542039D01*
X144673912Y-102647205D01*
X144499956Y-102740186D01*
X144404192Y-103004587D01*
X91567000Y-103004587D01*
X91567000Y-76925001D01*
X93761323Y-76925001D01*
X93765000Y-76962334D01*
X93764999Y-99567677D01*
X93761323Y-99604999D01*
X93764999Y-99642321D01*
X93764999Y-99642331D01*
X93775996Y-99753984D01*
X93819453Y-99897245D01*
X93890025Y-100029275D01*
X93911323Y-100055226D01*
X93984998Y-100145000D01*
X94014001Y-100168803D01*
X95485000Y-101639802D01*
X95485000Y-101701939D01*
X95524774Y-101901898D01*
X95602795Y-102090256D01*
X95716063Y-102259774D01*
X95860226Y-102403937D01*
X96029744Y-102517205D01*
X96218102Y-102595226D01*
X96418061Y-102635000D01*
X96621939Y-102635000D01*
X96821898Y-102595226D01*
X97010256Y-102517205D01*
X97179774Y-102403937D01*
X97323937Y-102259774D01*
X97437205Y-102090256D01*
X97515226Y-101901898D01*
X97555000Y-101701939D01*
X97555000Y-101498061D01*
X97515226Y-101298102D01*
X97437205Y-101109744D01*
X97323937Y-100940226D01*
X97179774Y-100796063D01*
X97010256Y-100682795D01*
X97001189Y-100679039D01*
X129418096Y-100679039D01*
X129458754Y-100813087D01*
X129578963Y-101067420D01*
X129746481Y-101293414D01*
X129954869Y-101482385D01*
X130196119Y-101627070D01*
X130460960Y-101721909D01*
X130683000Y-101600624D01*
X130683000Y-100457000D01*
X130937000Y-100457000D01*
X130937000Y-101600624D01*
X131159040Y-101721909D01*
X131423881Y-101627070D01*
X131665131Y-101482385D01*
X131873519Y-101293414D01*
X132041037Y-101067420D01*
X132161246Y-100813087D01*
X132201904Y-100679039D01*
X132079915Y-100457000D01*
X130937000Y-100457000D01*
X130683000Y-100457000D01*
X129540085Y-100457000D01*
X129418096Y-100679039D01*
X97001189Y-100679039D01*
X96821898Y-100604774D01*
X96621939Y-100565000D01*
X96559802Y-100565000D01*
X95284999Y-99290198D01*
X95284999Y-98899800D01*
X95956201Y-99571003D01*
X95979999Y-99600001D01*
X96095724Y-99694974D01*
X96227753Y-99765546D01*
X96371014Y-99809003D01*
X96482667Y-99820000D01*
X96482676Y-99820000D01*
X96519999Y-99823676D01*
X96557322Y-99820000D01*
X129471474Y-99820000D01*
X129458754Y-99846913D01*
X129418096Y-99980961D01*
X129540085Y-100203000D01*
X130683000Y-100203000D01*
X130683000Y-100183000D01*
X130937000Y-100183000D01*
X130937000Y-100203000D01*
X132079915Y-100203000D01*
X132201904Y-99980961D01*
X132161246Y-99846913D01*
X132148526Y-99820000D01*
X133916289Y-99820000D01*
X133960226Y-99863937D01*
X134129744Y-99977205D01*
X134318102Y-100055226D01*
X134518061Y-100095000D01*
X134721939Y-100095000D01*
X134921898Y-100055226D01*
X135110256Y-99977205D01*
X135279774Y-99863937D01*
X135423937Y-99719774D01*
X135537205Y-99550256D01*
X135615226Y-99361898D01*
X135655000Y-99161939D01*
X135655000Y-98958061D01*
X135615226Y-98758102D01*
X135537205Y-98569744D01*
X135423937Y-98400226D01*
X135279774Y-98256063D01*
X135110256Y-98142795D01*
X134921898Y-98064774D01*
X134721939Y-98025000D01*
X134518061Y-98025000D01*
X134318102Y-98064774D01*
X134129744Y-98142795D01*
X133960226Y-98256063D01*
X133916289Y-98300000D01*
X132151983Y-98300000D01*
X132189853Y-98208574D01*
X132245000Y-97931335D01*
X132245000Y-97648665D01*
X132200509Y-97424999D01*
X137039491Y-97424999D01*
X136995000Y-97648665D01*
X136995000Y-97931335D01*
X137050147Y-98208574D01*
X137158320Y-98469727D01*
X137315363Y-98704759D01*
X137515241Y-98904637D01*
X137747759Y-99060000D01*
X137515241Y-99215363D01*
X137315363Y-99415241D01*
X137158320Y-99650273D01*
X137050147Y-99911426D01*
X136995000Y-100188665D01*
X136995000Y-100471335D01*
X137050147Y-100748574D01*
X137158320Y-101009727D01*
X137315363Y-101244759D01*
X137515241Y-101444637D01*
X137750273Y-101601680D01*
X138011426Y-101709853D01*
X138288665Y-101765000D01*
X138571335Y-101765000D01*
X138848574Y-101709853D01*
X139109727Y-101601680D01*
X139344759Y-101444637D01*
X139544637Y-101244759D01*
X139701680Y-101009727D01*
X139809853Y-100748574D01*
X139865000Y-100471335D01*
X139865000Y-100188665D01*
X139809853Y-99911426D01*
X139701680Y-99650273D01*
X139544637Y-99415241D01*
X139344759Y-99215363D01*
X139112241Y-99060000D01*
X139344759Y-98904637D01*
X139473983Y-98775413D01*
X144404192Y-98775413D01*
X144499956Y-99039814D01*
X144789571Y-99180704D01*
X145101108Y-99262384D01*
X145422595Y-99281718D01*
X145741675Y-99237961D01*
X146046088Y-99132795D01*
X146220044Y-99039814D01*
X146315808Y-98775413D01*
X145360000Y-97819605D01*
X144404192Y-98775413D01*
X139473983Y-98775413D01*
X139544637Y-98704759D01*
X139648043Y-98550000D01*
X141569088Y-98550000D01*
X141606410Y-98553676D01*
X141643732Y-98550000D01*
X141643743Y-98550000D01*
X141755396Y-98539003D01*
X141898657Y-98495546D01*
X142030686Y-98424974D01*
X142146411Y-98330001D01*
X142170214Y-98300997D01*
X142768616Y-97702595D01*
X143718282Y-97702595D01*
X143762039Y-98021675D01*
X143867205Y-98326088D01*
X143960186Y-98500044D01*
X144224587Y-98595808D01*
X145180395Y-97640000D01*
X145539605Y-97640000D01*
X146495413Y-98595808D01*
X146759814Y-98500044D01*
X146900704Y-98210429D01*
X146982384Y-97898892D01*
X147001718Y-97577405D01*
X146988219Y-97478967D01*
X148225000Y-97478967D01*
X148225000Y-97801033D01*
X148287832Y-98116912D01*
X148411082Y-98414463D01*
X148590013Y-98682252D01*
X148817748Y-98909987D01*
X149085537Y-99088918D01*
X149383088Y-99212168D01*
X149698967Y-99275000D01*
X150021033Y-99275000D01*
X150336912Y-99212168D01*
X150634463Y-99088918D01*
X150902252Y-98909987D01*
X151129987Y-98682252D01*
X151308918Y-98414463D01*
X151432168Y-98116912D01*
X151495000Y-97801033D01*
X151495000Y-97478967D01*
X151432168Y-97163088D01*
X151308918Y-96865537D01*
X151129987Y-96597748D01*
X150902252Y-96370013D01*
X150634463Y-96191082D01*
X150336912Y-96067832D01*
X150021033Y-96005000D01*
X149698967Y-96005000D01*
X149383088Y-96067832D01*
X149085537Y-96191082D01*
X148817748Y-96370013D01*
X148590013Y-96597748D01*
X148411082Y-96865537D01*
X148287832Y-97163088D01*
X148225000Y-97478967D01*
X146988219Y-97478967D01*
X146957961Y-97258325D01*
X146852795Y-96953912D01*
X146759814Y-96779956D01*
X146495413Y-96684192D01*
X145539605Y-97640000D01*
X145180395Y-97640000D01*
X144224587Y-96684192D01*
X143960186Y-96779956D01*
X143819296Y-97069571D01*
X143737616Y-97381108D01*
X143718282Y-97702595D01*
X142768616Y-97702595D01*
X143966624Y-96504587D01*
X144404192Y-96504587D01*
X145360000Y-97460395D01*
X146315808Y-96504587D01*
X146220044Y-96240186D01*
X145930429Y-96099296D01*
X145618892Y-96017616D01*
X145297405Y-95998282D01*
X144978325Y-96042039D01*
X144673912Y-96147205D01*
X144499956Y-96240186D01*
X144404192Y-96504587D01*
X143966624Y-96504587D01*
X144471012Y-96000200D01*
X144500010Y-95976402D01*
X144594983Y-95860677D01*
X144665555Y-95728648D01*
X144709012Y-95585387D01*
X144720009Y-95473734D01*
X144723686Y-95436401D01*
X144720009Y-95399068D01*
X144720009Y-88992329D01*
X144723685Y-88955007D01*
X144720009Y-88917684D01*
X144720009Y-88917674D01*
X144709012Y-88806021D01*
X144665555Y-88662760D01*
X144630994Y-88598102D01*
X144594983Y-88530730D01*
X144523808Y-88444004D01*
X144500010Y-88415006D01*
X144471013Y-88391209D01*
X139544600Y-83464796D01*
X139544637Y-83464759D01*
X139700978Y-83230777D01*
X147830001Y-91359801D01*
X147830001Y-91491956D01*
X147675241Y-91595363D01*
X147475363Y-91795241D01*
X147318320Y-92030273D01*
X147210147Y-92291426D01*
X147155000Y-92568665D01*
X147155000Y-92851335D01*
X147210147Y-93128574D01*
X147318320Y-93389727D01*
X147475363Y-93624759D01*
X147675241Y-93824637D01*
X147910273Y-93981680D01*
X148171426Y-94089853D01*
X148448665Y-94145000D01*
X148731335Y-94145000D01*
X149008574Y-94089853D01*
X149269727Y-93981680D01*
X149504759Y-93824637D01*
X149704637Y-93624759D01*
X149861680Y-93389727D01*
X149969853Y-93128574D01*
X150025000Y-92851335D01*
X150025000Y-92568665D01*
X149969853Y-92291426D01*
X149861680Y-92030273D01*
X149704637Y-91795241D01*
X149504759Y-91595363D01*
X149350000Y-91491957D01*
X149350000Y-91082320D01*
X149353676Y-91044997D01*
X149350000Y-91007674D01*
X149350000Y-91007665D01*
X149339003Y-90896012D01*
X149295546Y-90752751D01*
X149224974Y-90620721D01*
X149153799Y-90533995D01*
X149130001Y-90504997D01*
X149101003Y-90481199D01*
X139544600Y-80924796D01*
X139544637Y-80924759D01*
X139701680Y-80689727D01*
X139809853Y-80428574D01*
X139865000Y-80151335D01*
X139865000Y-79868665D01*
X147155000Y-79868665D01*
X147155000Y-80151335D01*
X147210147Y-80428574D01*
X147318320Y-80689727D01*
X147475363Y-80924759D01*
X147675241Y-81124637D01*
X147910273Y-81281680D01*
X148171426Y-81389853D01*
X148448665Y-81445000D01*
X148731335Y-81445000D01*
X149008574Y-81389853D01*
X149269727Y-81281680D01*
X149504759Y-81124637D01*
X149704637Y-80924759D01*
X149861680Y-80689727D01*
X149969853Y-80428574D01*
X150025000Y-80151335D01*
X150025000Y-79868665D01*
X149969853Y-79591426D01*
X149861680Y-79330273D01*
X149704637Y-79095241D01*
X149504759Y-78895363D01*
X149269727Y-78738320D01*
X149008574Y-78630147D01*
X148731335Y-78575000D01*
X148448665Y-78575000D01*
X148171426Y-78630147D01*
X147910273Y-78738320D01*
X147675241Y-78895363D01*
X147475363Y-79095241D01*
X147318320Y-79330273D01*
X147210147Y-79591426D01*
X147155000Y-79868665D01*
X139865000Y-79868665D01*
X139809853Y-79591426D01*
X139701680Y-79330273D01*
X139544637Y-79095241D01*
X139344759Y-78895363D01*
X139109727Y-78738320D01*
X138848574Y-78630147D01*
X138571335Y-78575000D01*
X138288665Y-78575000D01*
X138011426Y-78630147D01*
X137750273Y-78738320D01*
X137515241Y-78895363D01*
X137315363Y-79095241D01*
X137158320Y-79330273D01*
X137073895Y-79534093D01*
X134498804Y-76959003D01*
X134475001Y-76929999D01*
X134359276Y-76835026D01*
X134227247Y-76764454D01*
X134083986Y-76720997D01*
X133972333Y-76710000D01*
X133972322Y-76710000D01*
X133935000Y-76706324D01*
X133897678Y-76710000D01*
X125163711Y-76710000D01*
X125119774Y-76666063D01*
X124950256Y-76552795D01*
X124761898Y-76474774D01*
X124561939Y-76435000D01*
X124358061Y-76435000D01*
X124158102Y-76474774D01*
X123969744Y-76552795D01*
X123800226Y-76666063D01*
X123656063Y-76810226D01*
X123542795Y-76979744D01*
X123464774Y-77168102D01*
X123425000Y-77368061D01*
X123425000Y-77571939D01*
X123464774Y-77771898D01*
X123542795Y-77960256D01*
X123656063Y-78129774D01*
X123800226Y-78273937D01*
X123969744Y-78387205D01*
X124158102Y-78465226D01*
X124358061Y-78505000D01*
X124561939Y-78505000D01*
X124761898Y-78465226D01*
X124950256Y-78387205D01*
X125119774Y-78273937D01*
X125163711Y-78230000D01*
X133620199Y-78230000D01*
X137199236Y-81809038D01*
X137158320Y-81870273D01*
X137050147Y-82131426D01*
X136995000Y-82408665D01*
X136995000Y-82691335D01*
X137050147Y-82968574D01*
X137148077Y-83204999D01*
X132091923Y-83204999D01*
X132189853Y-82968574D01*
X132245000Y-82691335D01*
X132245000Y-82408665D01*
X132189853Y-82131426D01*
X132081680Y-81870273D01*
X131924637Y-81635241D01*
X131726039Y-81436643D01*
X131734482Y-81435812D01*
X131854180Y-81399502D01*
X131964494Y-81340537D01*
X132061185Y-81261185D01*
X132140537Y-81164494D01*
X132199502Y-81054180D01*
X132235812Y-80934482D01*
X132248072Y-80810000D01*
X132248072Y-79210000D01*
X132235812Y-79085518D01*
X132199502Y-78965820D01*
X132140537Y-78855506D01*
X132061185Y-78758815D01*
X131964494Y-78679463D01*
X131854180Y-78620498D01*
X131734482Y-78584188D01*
X131610000Y-78571928D01*
X130010000Y-78571928D01*
X129885518Y-78584188D01*
X129765820Y-78620498D01*
X129655506Y-78679463D01*
X129558815Y-78758815D01*
X129479463Y-78855506D01*
X129420498Y-78965820D01*
X129384188Y-79085518D01*
X129371928Y-79210000D01*
X129371928Y-80373271D01*
X129370198Y-80375001D01*
X115690509Y-80375001D01*
X115735000Y-80151335D01*
X115735000Y-79868665D01*
X115698688Y-79686113D01*
X122431004Y-72953798D01*
X122460001Y-72930001D01*
X122554974Y-72814276D01*
X122625546Y-72682247D01*
X122669003Y-72538986D01*
X122676734Y-72460495D01*
X122898505Y-72312312D01*
X122964944Y-72245873D01*
X122970498Y-72264180D01*
X123029463Y-72374494D01*
X123108815Y-72471185D01*
X123205506Y-72550537D01*
X123315820Y-72609502D01*
X123435518Y-72645812D01*
X123560000Y-72658072D01*
X125360000Y-72658072D01*
X125484482Y-72645812D01*
X125604180Y-72609502D01*
X125714494Y-72550537D01*
X125811185Y-72471185D01*
X125890537Y-72374494D01*
X125949502Y-72264180D01*
X125985812Y-72144482D01*
X125998072Y-72020000D01*
X125998072Y-70978665D01*
X136995000Y-70978665D01*
X136995000Y-71261335D01*
X137050147Y-71538574D01*
X137158320Y-71799727D01*
X137315363Y-72034759D01*
X137515241Y-72234637D01*
X137750273Y-72391680D01*
X138011426Y-72499853D01*
X138288665Y-72555000D01*
X138571335Y-72555000D01*
X138848574Y-72499853D01*
X139109727Y-72391680D01*
X139344759Y-72234637D01*
X139544637Y-72034759D01*
X139701680Y-71799727D01*
X139809853Y-71538574D01*
X139823684Y-71469039D01*
X149738096Y-71469039D01*
X149778754Y-71603087D01*
X149898963Y-71857420D01*
X150066481Y-72083414D01*
X150274869Y-72272385D01*
X150516119Y-72417070D01*
X150780960Y-72511909D01*
X151003000Y-72390624D01*
X151003000Y-71247000D01*
X151257000Y-71247000D01*
X151257000Y-72390624D01*
X151479040Y-72511909D01*
X151743881Y-72417070D01*
X151985131Y-72272385D01*
X152193519Y-72083414D01*
X152361037Y-71857420D01*
X152481246Y-71603087D01*
X152521904Y-71469039D01*
X152399915Y-71247000D01*
X151257000Y-71247000D01*
X151003000Y-71247000D01*
X149860085Y-71247000D01*
X149738096Y-71469039D01*
X139823684Y-71469039D01*
X139865000Y-71261335D01*
X139865000Y-70978665D01*
X139823685Y-70770961D01*
X149738096Y-70770961D01*
X149860085Y-70993000D01*
X151003000Y-70993000D01*
X151003000Y-69849376D01*
X151257000Y-69849376D01*
X151257000Y-70993000D01*
X152399915Y-70993000D01*
X152521904Y-70770961D01*
X152481246Y-70636913D01*
X152361037Y-70382580D01*
X152193519Y-70156586D01*
X151985131Y-69967615D01*
X151743881Y-69822930D01*
X151479040Y-69728091D01*
X151257000Y-69849376D01*
X151003000Y-69849376D01*
X150780960Y-69728091D01*
X150516119Y-69822930D01*
X150274869Y-69967615D01*
X150066481Y-70156586D01*
X149898963Y-70382580D01*
X149778754Y-70636913D01*
X149738096Y-70770961D01*
X139823685Y-70770961D01*
X139809853Y-70701426D01*
X139701680Y-70440273D01*
X139544637Y-70205241D01*
X139344759Y-70005363D01*
X139109727Y-69848320D01*
X138848574Y-69740147D01*
X138571335Y-69685000D01*
X138288665Y-69685000D01*
X138011426Y-69740147D01*
X137750273Y-69848320D01*
X137515241Y-70005363D01*
X137315363Y-70205241D01*
X137158320Y-70440273D01*
X137050147Y-70701426D01*
X136995000Y-70978665D01*
X125998072Y-70978665D01*
X125998072Y-70220000D01*
X125985812Y-70095518D01*
X125949502Y-69975820D01*
X125890537Y-69865506D01*
X125811185Y-69768815D01*
X125714494Y-69689463D01*
X125604180Y-69630498D01*
X125484482Y-69594188D01*
X125360000Y-69581928D01*
X123560000Y-69581928D01*
X123435518Y-69594188D01*
X123315820Y-69630498D01*
X123205506Y-69689463D01*
X123108815Y-69768815D01*
X123029463Y-69865506D01*
X122970498Y-69975820D01*
X122964944Y-69994127D01*
X122898505Y-69927688D01*
X122647095Y-69759701D01*
X122367743Y-69643989D01*
X122071184Y-69585000D01*
X121768816Y-69585000D01*
X121472257Y-69643989D01*
X121192905Y-69759701D01*
X120941495Y-69927688D01*
X120727688Y-70141495D01*
X120559701Y-70392905D01*
X120443989Y-70672257D01*
X120385000Y-70968816D01*
X120385000Y-71271184D01*
X120443989Y-71567743D01*
X120559701Y-71847095D01*
X120727688Y-72098505D01*
X120932191Y-72303008D01*
X115735000Y-77500199D01*
X115735000Y-77328665D01*
X115698688Y-77146113D01*
X118621004Y-74223798D01*
X118650001Y-74200001D01*
X118744974Y-74084276D01*
X118815546Y-73952247D01*
X118859003Y-73808986D01*
X118870000Y-73697333D01*
X118870000Y-73697325D01*
X118873676Y-73660000D01*
X118870000Y-73622675D01*
X118870000Y-66354801D01*
X121511070Y-63713731D01*
X121768816Y-63765000D01*
X122071184Y-63765000D01*
X122367743Y-63706011D01*
X122647095Y-63590299D01*
X122898505Y-63422312D01*
X122964944Y-63355873D01*
X122970498Y-63374180D01*
X123029463Y-63484494D01*
X123108815Y-63581185D01*
X123205506Y-63660537D01*
X123315820Y-63719502D01*
X123435518Y-63755812D01*
X123560000Y-63768072D01*
X125360000Y-63768072D01*
X125484482Y-63755812D01*
X125604180Y-63719502D01*
X125714494Y-63660537D01*
X125811185Y-63581185D01*
X125890537Y-63484494D01*
X125949502Y-63374180D01*
X125985812Y-63254482D01*
X125998072Y-63130000D01*
X125998072Y-62088665D01*
X136995000Y-62088665D01*
X136995000Y-62371335D01*
X137050147Y-62648574D01*
X137158320Y-62909727D01*
X137315363Y-63144759D01*
X137515241Y-63344637D01*
X137750273Y-63501680D01*
X138011426Y-63609853D01*
X138288665Y-63665000D01*
X138571335Y-63665000D01*
X138848574Y-63609853D01*
X139109727Y-63501680D01*
X139344759Y-63344637D01*
X139466694Y-63222702D01*
X150316903Y-63222702D01*
X150388486Y-63466671D01*
X150643996Y-63587571D01*
X150918184Y-63656300D01*
X151200512Y-63670217D01*
X151480130Y-63628787D01*
X151746292Y-63533603D01*
X151871514Y-63466671D01*
X151943097Y-63222702D01*
X151130000Y-62409605D01*
X150316903Y-63222702D01*
X139466694Y-63222702D01*
X139544637Y-63144759D01*
X139701680Y-62909727D01*
X139809853Y-62648574D01*
X139865000Y-62371335D01*
X139865000Y-62300512D01*
X149689783Y-62300512D01*
X149731213Y-62580130D01*
X149826397Y-62846292D01*
X149893329Y-62971514D01*
X150137298Y-63043097D01*
X150950395Y-62230000D01*
X151309605Y-62230000D01*
X152122702Y-63043097D01*
X152366671Y-62971514D01*
X152487571Y-62716004D01*
X152556300Y-62441816D01*
X152570217Y-62159488D01*
X152528787Y-61879870D01*
X152433603Y-61613708D01*
X152366671Y-61488486D01*
X152122702Y-61416903D01*
X151309605Y-62230000D01*
X150950395Y-62230000D01*
X150137298Y-61416903D01*
X149893329Y-61488486D01*
X149772429Y-61743996D01*
X149703700Y-62018184D01*
X149689783Y-62300512D01*
X139865000Y-62300512D01*
X139865000Y-62088665D01*
X139809853Y-61811426D01*
X139701680Y-61550273D01*
X139544637Y-61315241D01*
X139466694Y-61237298D01*
X150316903Y-61237298D01*
X151130000Y-62050395D01*
X151943097Y-61237298D01*
X151871514Y-60993329D01*
X151616004Y-60872429D01*
X151341816Y-60803700D01*
X151059488Y-60789783D01*
X150779870Y-60831213D01*
X150513708Y-60926397D01*
X150388486Y-60993329D01*
X150316903Y-61237298D01*
X139466694Y-61237298D01*
X139344759Y-61115363D01*
X139109727Y-60958320D01*
X138848574Y-60850147D01*
X138571335Y-60795000D01*
X138288665Y-60795000D01*
X138011426Y-60850147D01*
X137750273Y-60958320D01*
X137515241Y-61115363D01*
X137315363Y-61315241D01*
X137158320Y-61550273D01*
X137050147Y-61811426D01*
X136995000Y-62088665D01*
X125998072Y-62088665D01*
X125998072Y-61330000D01*
X125985812Y-61205518D01*
X125949502Y-61085820D01*
X125890537Y-60975506D01*
X125811185Y-60878815D01*
X125714494Y-60799463D01*
X125604180Y-60740498D01*
X125484482Y-60704188D01*
X125360000Y-60691928D01*
X123560000Y-60691928D01*
X123435518Y-60704188D01*
X123315820Y-60740498D01*
X123205506Y-60799463D01*
X123108815Y-60878815D01*
X123029463Y-60975506D01*
X122970498Y-61085820D01*
X122964944Y-61104127D01*
X122898505Y-61037688D01*
X122647095Y-60869701D01*
X122367743Y-60753989D01*
X122071184Y-60695000D01*
X121768816Y-60695000D01*
X121472257Y-60753989D01*
X121192905Y-60869701D01*
X120941495Y-61037688D01*
X120727688Y-61251495D01*
X120559701Y-61502905D01*
X120443989Y-61782257D01*
X120385000Y-62078816D01*
X120385000Y-62381184D01*
X120436269Y-62638930D01*
X117598998Y-65476201D01*
X117570000Y-65499999D01*
X117546202Y-65528997D01*
X117546201Y-65528998D01*
X117475026Y-65615724D01*
X117404454Y-65747754D01*
X117374180Y-65847558D01*
X117362933Y-65884637D01*
X117360998Y-65891015D01*
X117346324Y-66040000D01*
X117350001Y-66077332D01*
X117350000Y-73345198D01*
X115735000Y-74960198D01*
X115735000Y-74788665D01*
X115679853Y-74511426D01*
X115571680Y-74250273D01*
X115414637Y-74015241D01*
X115214759Y-73815363D01*
X114982241Y-73660000D01*
X115214759Y-73504637D01*
X115414637Y-73304759D01*
X115571680Y-73069727D01*
X115679853Y-72808574D01*
X115735000Y-72531335D01*
X115735000Y-72248665D01*
X115679853Y-71971426D01*
X115571680Y-71710273D01*
X115414637Y-71475241D01*
X115214759Y-71275363D01*
X114982241Y-71120000D01*
X115214759Y-70964637D01*
X115414637Y-70764759D01*
X115571680Y-70529727D01*
X115679853Y-70268574D01*
X115735000Y-69991335D01*
X115735000Y-69708665D01*
X115679853Y-69431426D01*
X115571680Y-69170273D01*
X115414637Y-68935241D01*
X115214759Y-68735363D01*
X114982241Y-68580000D01*
X115214759Y-68424637D01*
X115414637Y-68224759D01*
X115571680Y-67989727D01*
X115679853Y-67728574D01*
X115735000Y-67451335D01*
X115735000Y-67168665D01*
X115679853Y-66891426D01*
X115571680Y-66630273D01*
X115414637Y-66395241D01*
X115214759Y-66195363D01*
X114979727Y-66038320D01*
X114969135Y-66033933D01*
X115155131Y-65922385D01*
X115363519Y-65733414D01*
X115531037Y-65507420D01*
X115651246Y-65253087D01*
X115691904Y-65119039D01*
X115569915Y-64897000D01*
X114427000Y-64897000D01*
X114427000Y-64917000D01*
X114173000Y-64917000D01*
X114173000Y-64897000D01*
X113030085Y-64897000D01*
X112908096Y-65119039D01*
X112948754Y-65253087D01*
X113068963Y-65507420D01*
X113236481Y-65733414D01*
X113444869Y-65922385D01*
X113630865Y-66033933D01*
X113620273Y-66038320D01*
X113385241Y-66195363D01*
X113185363Y-66395241D01*
X113028320Y-66630273D01*
X112920147Y-66891426D01*
X112865000Y-67168665D01*
X112865000Y-67451335D01*
X112920147Y-67728574D01*
X113028320Y-67989727D01*
X113185363Y-68224759D01*
X113385241Y-68424637D01*
X113617759Y-68580000D01*
X113385241Y-68735363D01*
X113185363Y-68935241D01*
X113028320Y-69170273D01*
X112920147Y-69431426D01*
X112865000Y-69708665D01*
X112865000Y-69991335D01*
X112920147Y-70268574D01*
X113028320Y-70529727D01*
X113185363Y-70764759D01*
X113385241Y-70964637D01*
X113617759Y-71120000D01*
X113385241Y-71275363D01*
X113185363Y-71475241D01*
X113028320Y-71710273D01*
X112920147Y-71971426D01*
X112865000Y-72248665D01*
X112865000Y-72531335D01*
X112920147Y-72808574D01*
X113028320Y-73069727D01*
X113185363Y-73304759D01*
X113385241Y-73504637D01*
X113617759Y-73660000D01*
X113385241Y-73815363D01*
X113185363Y-74015241D01*
X113028320Y-74250273D01*
X112920147Y-74511426D01*
X112865000Y-74788665D01*
X112865000Y-75071335D01*
X112920147Y-75348574D01*
X113028320Y-75609727D01*
X113185363Y-75844759D01*
X113385241Y-76044637D01*
X113617759Y-76200000D01*
X113385241Y-76355363D01*
X113185363Y-76555241D01*
X113028320Y-76790273D01*
X112920147Y-77051426D01*
X112865000Y-77328665D01*
X112865000Y-77611335D01*
X112920147Y-77888574D01*
X113028320Y-78149727D01*
X113185363Y-78384759D01*
X113385241Y-78584637D01*
X113617759Y-78740000D01*
X113385241Y-78895363D01*
X113185363Y-79095241D01*
X113028320Y-79330273D01*
X112920147Y-79591426D01*
X112865000Y-79868665D01*
X112865000Y-80151335D01*
X112909491Y-80375001D01*
X100450509Y-80375001D01*
X100495000Y-80151335D01*
X100495000Y-79868665D01*
X100439853Y-79591426D01*
X100401983Y-79500000D01*
X109786289Y-79500000D01*
X109830226Y-79543937D01*
X109999744Y-79657205D01*
X110188102Y-79735226D01*
X110388061Y-79775000D01*
X110591939Y-79775000D01*
X110791898Y-79735226D01*
X110980256Y-79657205D01*
X111149774Y-79543937D01*
X111293937Y-79399774D01*
X111407205Y-79230256D01*
X111485226Y-79041898D01*
X111525000Y-78841939D01*
X111525000Y-78638061D01*
X111485226Y-78438102D01*
X111407205Y-78249744D01*
X111293937Y-78080226D01*
X111149774Y-77936063D01*
X110980256Y-77822795D01*
X110791898Y-77744774D01*
X110591939Y-77705000D01*
X110388061Y-77705000D01*
X110188102Y-77744774D01*
X109999744Y-77822795D01*
X109830226Y-77936063D01*
X109786289Y-77980000D01*
X100401983Y-77980000D01*
X100439853Y-77888574D01*
X100495000Y-77611335D01*
X100495000Y-77328665D01*
X100439853Y-77051426D01*
X100331680Y-76790273D01*
X100174637Y-76555241D01*
X99974759Y-76355363D01*
X99742241Y-76200000D01*
X99974759Y-76044637D01*
X100174637Y-75844759D01*
X100331680Y-75609727D01*
X100439853Y-75348574D01*
X100495000Y-75071335D01*
X100495000Y-74788665D01*
X100439853Y-74511426D01*
X100331680Y-74250273D01*
X100174637Y-74015241D01*
X99974759Y-73815363D01*
X99742241Y-73660000D01*
X99974759Y-73504637D01*
X100174637Y-73304759D01*
X100331680Y-73069727D01*
X100439853Y-72808574D01*
X100495000Y-72531335D01*
X100495000Y-72248665D01*
X100439853Y-71971426D01*
X100331680Y-71710273D01*
X100174637Y-71475241D01*
X99974759Y-71275363D01*
X99739727Y-71118320D01*
X99729135Y-71113933D01*
X99915131Y-71002385D01*
X100123519Y-70813414D01*
X100291037Y-70587420D01*
X100411246Y-70333087D01*
X100451904Y-70199039D01*
X100329915Y-69977000D01*
X99187000Y-69977000D01*
X99187000Y-69997000D01*
X98933000Y-69997000D01*
X98933000Y-69977000D01*
X97790085Y-69977000D01*
X97668096Y-70199039D01*
X97708754Y-70333087D01*
X97828963Y-70587420D01*
X97996481Y-70813414D01*
X98204869Y-71002385D01*
X98390865Y-71113933D01*
X98380273Y-71118320D01*
X98145241Y-71275363D01*
X97945363Y-71475241D01*
X97788320Y-71710273D01*
X97680147Y-71971426D01*
X97625000Y-72248665D01*
X97625000Y-72531335D01*
X97661312Y-72713886D01*
X94013997Y-76361202D01*
X93984999Y-76385000D01*
X93961201Y-76413998D01*
X93961200Y-76413999D01*
X93890025Y-76500725D01*
X93819453Y-76632755D01*
X93809350Y-76666063D01*
X93775997Y-76776015D01*
X93770185Y-76835026D01*
X93761323Y-76925001D01*
X91567000Y-76925001D01*
X91567000Y-61430000D01*
X97621928Y-61430000D01*
X97621928Y-63030000D01*
X97634188Y-63154482D01*
X97670498Y-63274180D01*
X97729463Y-63384494D01*
X97808815Y-63481185D01*
X97905506Y-63560537D01*
X98015820Y-63619502D01*
X98135518Y-63655812D01*
X98143961Y-63656643D01*
X97945363Y-63855241D01*
X97788320Y-64090273D01*
X97680147Y-64351426D01*
X97625000Y-64628665D01*
X97625000Y-64911335D01*
X97680147Y-65188574D01*
X97788320Y-65449727D01*
X97945363Y-65684759D01*
X98145241Y-65884637D01*
X98377759Y-66040000D01*
X98145241Y-66195363D01*
X97945363Y-66395241D01*
X97788320Y-66630273D01*
X97680147Y-66891426D01*
X97625000Y-67168665D01*
X97625000Y-67451335D01*
X97680147Y-67728574D01*
X97788320Y-67989727D01*
X97945363Y-68224759D01*
X98145241Y-68424637D01*
X98380273Y-68581680D01*
X98390865Y-68586067D01*
X98204869Y-68697615D01*
X97996481Y-68886586D01*
X97828963Y-69112580D01*
X97708754Y-69366913D01*
X97668096Y-69500961D01*
X97790085Y-69723000D01*
X98933000Y-69723000D01*
X98933000Y-69703000D01*
X99187000Y-69703000D01*
X99187000Y-69723000D01*
X100329915Y-69723000D01*
X100451904Y-69500961D01*
X100411246Y-69366913D01*
X100291037Y-69112580D01*
X100123519Y-68886586D01*
X99915131Y-68697615D01*
X99729135Y-68586067D01*
X99739727Y-68581680D01*
X99974759Y-68424637D01*
X100174637Y-68224759D01*
X100331680Y-67989727D01*
X100439853Y-67728574D01*
X100495000Y-67451335D01*
X100495000Y-67168665D01*
X100439853Y-66891426D01*
X100331680Y-66630273D01*
X100174637Y-66395241D01*
X99974759Y-66195363D01*
X99742241Y-66040000D01*
X99974759Y-65884637D01*
X100174637Y-65684759D01*
X100331680Y-65449727D01*
X100439853Y-65188574D01*
X100495000Y-64911335D01*
X100495000Y-64628665D01*
X100439853Y-64351426D01*
X100331680Y-64090273D01*
X100174637Y-63855241D01*
X99976039Y-63656643D01*
X99984482Y-63655812D01*
X100104180Y-63619502D01*
X100214494Y-63560537D01*
X100311185Y-63481185D01*
X100390537Y-63384494D01*
X100449502Y-63274180D01*
X100485812Y-63154482D01*
X100498072Y-63030000D01*
X100498072Y-62088665D01*
X112865000Y-62088665D01*
X112865000Y-62371335D01*
X112920147Y-62648574D01*
X113028320Y-62909727D01*
X113185363Y-63144759D01*
X113385241Y-63344637D01*
X113620273Y-63501680D01*
X113630865Y-63506067D01*
X113444869Y-63617615D01*
X113236481Y-63806586D01*
X113068963Y-64032580D01*
X112948754Y-64286913D01*
X112908096Y-64420961D01*
X113030085Y-64643000D01*
X114173000Y-64643000D01*
X114173000Y-64623000D01*
X114427000Y-64623000D01*
X114427000Y-64643000D01*
X115569915Y-64643000D01*
X115691904Y-64420961D01*
X115651246Y-64286913D01*
X115531037Y-64032580D01*
X115363519Y-63806586D01*
X115155131Y-63617615D01*
X114969135Y-63506067D01*
X114979727Y-63501680D01*
X115214759Y-63344637D01*
X115414637Y-63144759D01*
X115571680Y-62909727D01*
X115679853Y-62648574D01*
X115735000Y-62371335D01*
X115735000Y-62088665D01*
X115679853Y-61811426D01*
X115571680Y-61550273D01*
X115414637Y-61315241D01*
X115214759Y-61115363D01*
X114979727Y-60958320D01*
X114718574Y-60850147D01*
X114441335Y-60795000D01*
X114158665Y-60795000D01*
X113881426Y-60850147D01*
X113620273Y-60958320D01*
X113385241Y-61115363D01*
X113185363Y-61315241D01*
X113028320Y-61550273D01*
X112920147Y-61811426D01*
X112865000Y-62088665D01*
X100498072Y-62088665D01*
X100498072Y-61430000D01*
X100485812Y-61305518D01*
X100449502Y-61185820D01*
X100390537Y-61075506D01*
X100311185Y-60978815D01*
X100214494Y-60899463D01*
X100104180Y-60840498D01*
X99984482Y-60804188D01*
X99860000Y-60791928D01*
X98260000Y-60791928D01*
X98135518Y-60804188D01*
X98015820Y-60840498D01*
X97905506Y-60899463D01*
X97808815Y-60978815D01*
X97729463Y-61075506D01*
X97670498Y-61185820D01*
X97634188Y-61305518D01*
X97621928Y-61430000D01*
X91567000Y-61430000D01*
X91567000Y-50927000D01*
X156083000Y-50927000D01*
X156083000Y-109093000D01*
%TA.AperFunction,Conductor*%
D19*
G36*
X156083000Y-109093000D02*
G01*
X91567000Y-109093000D01*
X91567000Y-105275413D01*
X144404192Y-105275413D01*
X144499956Y-105539814D01*
X144789571Y-105680704D01*
X145101108Y-105762384D01*
X145422595Y-105781718D01*
X145741675Y-105737961D01*
X146046088Y-105632795D01*
X146220044Y-105539814D01*
X146315808Y-105275413D01*
X145360000Y-104319605D01*
X144404192Y-105275413D01*
X91567000Y-105275413D01*
X91567000Y-104202595D01*
X143718282Y-104202595D01*
X143762039Y-104521675D01*
X143867205Y-104826088D01*
X143960186Y-105000044D01*
X144224587Y-105095808D01*
X145180395Y-104140000D01*
X145539605Y-104140000D01*
X146495413Y-105095808D01*
X146759814Y-105000044D01*
X146900704Y-104710429D01*
X146982384Y-104398892D01*
X147001718Y-104077405D01*
X146988219Y-103978967D01*
X148225000Y-103978967D01*
X148225000Y-104301033D01*
X148287832Y-104616912D01*
X148411082Y-104914463D01*
X148590013Y-105182252D01*
X148817748Y-105409987D01*
X149085537Y-105588918D01*
X149383088Y-105712168D01*
X149698967Y-105775000D01*
X150021033Y-105775000D01*
X150336912Y-105712168D01*
X150634463Y-105588918D01*
X150902252Y-105409987D01*
X151129987Y-105182252D01*
X151308918Y-104914463D01*
X151432168Y-104616912D01*
X151495000Y-104301033D01*
X151495000Y-103978967D01*
X151432168Y-103663088D01*
X151308918Y-103365537D01*
X151129987Y-103097748D01*
X150902252Y-102870013D01*
X150634463Y-102691082D01*
X150336912Y-102567832D01*
X150021033Y-102505000D01*
X149698967Y-102505000D01*
X149383088Y-102567832D01*
X149085537Y-102691082D01*
X148817748Y-102870013D01*
X148590013Y-103097748D01*
X148411082Y-103365537D01*
X148287832Y-103663088D01*
X148225000Y-103978967D01*
X146988219Y-103978967D01*
X146957961Y-103758325D01*
X146852795Y-103453912D01*
X146759814Y-103279956D01*
X146495413Y-103184192D01*
X145539605Y-104140000D01*
X145180395Y-104140000D01*
X144224587Y-103184192D01*
X143960186Y-103279956D01*
X143819296Y-103569571D01*
X143737616Y-103881108D01*
X143718282Y-104202595D01*
X91567000Y-104202595D01*
X91567000Y-103004587D01*
X144404192Y-103004587D01*
X145360000Y-103960395D01*
X146315808Y-103004587D01*
X146220044Y-102740186D01*
X145930429Y-102599296D01*
X145618892Y-102517616D01*
X145297405Y-102498282D01*
X144978325Y-102542039D01*
X144673912Y-102647205D01*
X144499956Y-102740186D01*
X144404192Y-103004587D01*
X91567000Y-103004587D01*
X91567000Y-76925001D01*
X93761323Y-76925001D01*
X93765000Y-76962334D01*
X93764999Y-99567677D01*
X93761323Y-99604999D01*
X93764999Y-99642321D01*
X93764999Y-99642331D01*
X93775996Y-99753984D01*
X93819453Y-99897245D01*
X93890025Y-100029275D01*
X93911323Y-100055226D01*
X93984998Y-100145000D01*
X94014001Y-100168803D01*
X95485000Y-101639802D01*
X95485000Y-101701939D01*
X95524774Y-101901898D01*
X95602795Y-102090256D01*
X95716063Y-102259774D01*
X95860226Y-102403937D01*
X96029744Y-102517205D01*
X96218102Y-102595226D01*
X96418061Y-102635000D01*
X96621939Y-102635000D01*
X96821898Y-102595226D01*
X97010256Y-102517205D01*
X97179774Y-102403937D01*
X97323937Y-102259774D01*
X97437205Y-102090256D01*
X97515226Y-101901898D01*
X97555000Y-101701939D01*
X97555000Y-101498061D01*
X97515226Y-101298102D01*
X97437205Y-101109744D01*
X97323937Y-100940226D01*
X97179774Y-100796063D01*
X97010256Y-100682795D01*
X97001189Y-100679039D01*
X129418096Y-100679039D01*
X129458754Y-100813087D01*
X129578963Y-101067420D01*
X129746481Y-101293414D01*
X129954869Y-101482385D01*
X130196119Y-101627070D01*
X130460960Y-101721909D01*
X130683000Y-101600624D01*
X130683000Y-100457000D01*
X130937000Y-100457000D01*
X130937000Y-101600624D01*
X131159040Y-101721909D01*
X131423881Y-101627070D01*
X131665131Y-101482385D01*
X131873519Y-101293414D01*
X132041037Y-101067420D01*
X132161246Y-100813087D01*
X132201904Y-100679039D01*
X132079915Y-100457000D01*
X130937000Y-100457000D01*
X130683000Y-100457000D01*
X129540085Y-100457000D01*
X129418096Y-100679039D01*
X97001189Y-100679039D01*
X96821898Y-100604774D01*
X96621939Y-100565000D01*
X96559802Y-100565000D01*
X95284999Y-99290198D01*
X95284999Y-98899800D01*
X95956201Y-99571003D01*
X95979999Y-99600001D01*
X96095724Y-99694974D01*
X96227753Y-99765546D01*
X96371014Y-99809003D01*
X96482667Y-99820000D01*
X96482676Y-99820000D01*
X96519999Y-99823676D01*
X96557322Y-99820000D01*
X129471474Y-99820000D01*
X129458754Y-99846913D01*
X129418096Y-99980961D01*
X129540085Y-100203000D01*
X130683000Y-100203000D01*
X130683000Y-100183000D01*
X130937000Y-100183000D01*
X130937000Y-100203000D01*
X132079915Y-100203000D01*
X132201904Y-99980961D01*
X132161246Y-99846913D01*
X132148526Y-99820000D01*
X133916289Y-99820000D01*
X133960226Y-99863937D01*
X134129744Y-99977205D01*
X134318102Y-100055226D01*
X134518061Y-100095000D01*
X134721939Y-100095000D01*
X134921898Y-100055226D01*
X135110256Y-99977205D01*
X135279774Y-99863937D01*
X135423937Y-99719774D01*
X135537205Y-99550256D01*
X135615226Y-99361898D01*
X135655000Y-99161939D01*
X135655000Y-98958061D01*
X135615226Y-98758102D01*
X135537205Y-98569744D01*
X135423937Y-98400226D01*
X135279774Y-98256063D01*
X135110256Y-98142795D01*
X134921898Y-98064774D01*
X134721939Y-98025000D01*
X134518061Y-98025000D01*
X134318102Y-98064774D01*
X134129744Y-98142795D01*
X133960226Y-98256063D01*
X133916289Y-98300000D01*
X132151983Y-98300000D01*
X132189853Y-98208574D01*
X132245000Y-97931335D01*
X132245000Y-97648665D01*
X132200509Y-97424999D01*
X137039491Y-97424999D01*
X136995000Y-97648665D01*
X136995000Y-97931335D01*
X137050147Y-98208574D01*
X137158320Y-98469727D01*
X137315363Y-98704759D01*
X137515241Y-98904637D01*
X137747759Y-99060000D01*
X137515241Y-99215363D01*
X137315363Y-99415241D01*
X137158320Y-99650273D01*
X137050147Y-99911426D01*
X136995000Y-100188665D01*
X136995000Y-100471335D01*
X137050147Y-100748574D01*
X137158320Y-101009727D01*
X137315363Y-101244759D01*
X137515241Y-101444637D01*
X137750273Y-101601680D01*
X138011426Y-101709853D01*
X138288665Y-101765000D01*
X138571335Y-101765000D01*
X138848574Y-101709853D01*
X139109727Y-101601680D01*
X139344759Y-101444637D01*
X139544637Y-101244759D01*
X139701680Y-101009727D01*
X139809853Y-100748574D01*
X139865000Y-100471335D01*
X139865000Y-100188665D01*
X139809853Y-99911426D01*
X139701680Y-99650273D01*
X139544637Y-99415241D01*
X139344759Y-99215363D01*
X139112241Y-99060000D01*
X139344759Y-98904637D01*
X139473983Y-98775413D01*
X144404192Y-98775413D01*
X144499956Y-99039814D01*
X144789571Y-99180704D01*
X145101108Y-99262384D01*
X145422595Y-99281718D01*
X145741675Y-99237961D01*
X146046088Y-99132795D01*
X146220044Y-99039814D01*
X146315808Y-98775413D01*
X145360000Y-97819605D01*
X144404192Y-98775413D01*
X139473983Y-98775413D01*
X139544637Y-98704759D01*
X139648043Y-98550000D01*
X141569088Y-98550000D01*
X141606410Y-98553676D01*
X141643732Y-98550000D01*
X141643743Y-98550000D01*
X141755396Y-98539003D01*
X141898657Y-98495546D01*
X142030686Y-98424974D01*
X142146411Y-98330001D01*
X142170214Y-98300997D01*
X142768616Y-97702595D01*
X143718282Y-97702595D01*
X143762039Y-98021675D01*
X143867205Y-98326088D01*
X143960186Y-98500044D01*
X144224587Y-98595808D01*
X145180395Y-97640000D01*
X145539605Y-97640000D01*
X146495413Y-98595808D01*
X146759814Y-98500044D01*
X146900704Y-98210429D01*
X146982384Y-97898892D01*
X147001718Y-97577405D01*
X146988219Y-97478967D01*
X148225000Y-97478967D01*
X148225000Y-97801033D01*
X148287832Y-98116912D01*
X148411082Y-98414463D01*
X148590013Y-98682252D01*
X148817748Y-98909987D01*
X149085537Y-99088918D01*
X149383088Y-99212168D01*
X149698967Y-99275000D01*
X150021033Y-99275000D01*
X150336912Y-99212168D01*
X150634463Y-99088918D01*
X150902252Y-98909987D01*
X151129987Y-98682252D01*
X151308918Y-98414463D01*
X151432168Y-98116912D01*
X151495000Y-97801033D01*
X151495000Y-97478967D01*
X151432168Y-97163088D01*
X151308918Y-96865537D01*
X151129987Y-96597748D01*
X150902252Y-96370013D01*
X150634463Y-96191082D01*
X150336912Y-96067832D01*
X150021033Y-96005000D01*
X149698967Y-96005000D01*
X149383088Y-96067832D01*
X149085537Y-96191082D01*
X148817748Y-96370013D01*
X148590013Y-96597748D01*
X148411082Y-96865537D01*
X148287832Y-97163088D01*
X148225000Y-97478967D01*
X146988219Y-97478967D01*
X146957961Y-97258325D01*
X146852795Y-96953912D01*
X146759814Y-96779956D01*
X146495413Y-96684192D01*
X145539605Y-97640000D01*
X145180395Y-97640000D01*
X144224587Y-96684192D01*
X143960186Y-96779956D01*
X143819296Y-97069571D01*
X143737616Y-97381108D01*
X143718282Y-97702595D01*
X142768616Y-97702595D01*
X143966624Y-96504587D01*
X144404192Y-96504587D01*
X145360000Y-97460395D01*
X146315808Y-96504587D01*
X146220044Y-96240186D01*
X145930429Y-96099296D01*
X145618892Y-96017616D01*
X145297405Y-95998282D01*
X144978325Y-96042039D01*
X144673912Y-96147205D01*
X144499956Y-96240186D01*
X144404192Y-96504587D01*
X143966624Y-96504587D01*
X144471012Y-96000200D01*
X144500010Y-95976402D01*
X144594983Y-95860677D01*
X144665555Y-95728648D01*
X144709012Y-95585387D01*
X144720009Y-95473734D01*
X144723686Y-95436401D01*
X144720009Y-95399068D01*
X144720009Y-88992329D01*
X144723685Y-88955007D01*
X144720009Y-88917684D01*
X144720009Y-88917674D01*
X144709012Y-88806021D01*
X144665555Y-88662760D01*
X144630994Y-88598102D01*
X144594983Y-88530730D01*
X144523808Y-88444004D01*
X144500010Y-88415006D01*
X144471013Y-88391209D01*
X139544600Y-83464796D01*
X139544637Y-83464759D01*
X139700978Y-83230777D01*
X147830001Y-91359801D01*
X147830001Y-91491956D01*
X147675241Y-91595363D01*
X147475363Y-91795241D01*
X147318320Y-92030273D01*
X147210147Y-92291426D01*
X147155000Y-92568665D01*
X147155000Y-92851335D01*
X147210147Y-93128574D01*
X147318320Y-93389727D01*
X147475363Y-93624759D01*
X147675241Y-93824637D01*
X147910273Y-93981680D01*
X148171426Y-94089853D01*
X148448665Y-94145000D01*
X148731335Y-94145000D01*
X149008574Y-94089853D01*
X149269727Y-93981680D01*
X149504759Y-93824637D01*
X149704637Y-93624759D01*
X149861680Y-93389727D01*
X149969853Y-93128574D01*
X150025000Y-92851335D01*
X150025000Y-92568665D01*
X149969853Y-92291426D01*
X149861680Y-92030273D01*
X149704637Y-91795241D01*
X149504759Y-91595363D01*
X149350000Y-91491957D01*
X149350000Y-91082320D01*
X149353676Y-91044997D01*
X149350000Y-91007674D01*
X149350000Y-91007665D01*
X149339003Y-90896012D01*
X149295546Y-90752751D01*
X149224974Y-90620721D01*
X149153799Y-90533995D01*
X149130001Y-90504997D01*
X149101003Y-90481199D01*
X139544600Y-80924796D01*
X139544637Y-80924759D01*
X139701680Y-80689727D01*
X139809853Y-80428574D01*
X139865000Y-80151335D01*
X139865000Y-79868665D01*
X147155000Y-79868665D01*
X147155000Y-80151335D01*
X147210147Y-80428574D01*
X147318320Y-80689727D01*
X147475363Y-80924759D01*
X147675241Y-81124637D01*
X147910273Y-81281680D01*
X148171426Y-81389853D01*
X148448665Y-81445000D01*
X148731335Y-81445000D01*
X149008574Y-81389853D01*
X149269727Y-81281680D01*
X149504759Y-81124637D01*
X149704637Y-80924759D01*
X149861680Y-80689727D01*
X149969853Y-80428574D01*
X150025000Y-80151335D01*
X150025000Y-79868665D01*
X149969853Y-79591426D01*
X149861680Y-79330273D01*
X149704637Y-79095241D01*
X149504759Y-78895363D01*
X149269727Y-78738320D01*
X149008574Y-78630147D01*
X148731335Y-78575000D01*
X148448665Y-78575000D01*
X148171426Y-78630147D01*
X147910273Y-78738320D01*
X147675241Y-78895363D01*
X147475363Y-79095241D01*
X147318320Y-79330273D01*
X147210147Y-79591426D01*
X147155000Y-79868665D01*
X139865000Y-79868665D01*
X139809853Y-79591426D01*
X139701680Y-79330273D01*
X139544637Y-79095241D01*
X139344759Y-78895363D01*
X139109727Y-78738320D01*
X138848574Y-78630147D01*
X138571335Y-78575000D01*
X138288665Y-78575000D01*
X138011426Y-78630147D01*
X137750273Y-78738320D01*
X137515241Y-78895363D01*
X137315363Y-79095241D01*
X137158320Y-79330273D01*
X137073895Y-79534093D01*
X134498804Y-76959003D01*
X134475001Y-76929999D01*
X134359276Y-76835026D01*
X134227247Y-76764454D01*
X134083986Y-76720997D01*
X133972333Y-76710000D01*
X133972322Y-76710000D01*
X133935000Y-76706324D01*
X133897678Y-76710000D01*
X125163711Y-76710000D01*
X125119774Y-76666063D01*
X124950256Y-76552795D01*
X124761898Y-76474774D01*
X124561939Y-76435000D01*
X124358061Y-76435000D01*
X124158102Y-76474774D01*
X123969744Y-76552795D01*
X123800226Y-76666063D01*
X123656063Y-76810226D01*
X123542795Y-76979744D01*
X123464774Y-77168102D01*
X123425000Y-77368061D01*
X123425000Y-77571939D01*
X123464774Y-77771898D01*
X123542795Y-77960256D01*
X123656063Y-78129774D01*
X123800226Y-78273937D01*
X123969744Y-78387205D01*
X124158102Y-78465226D01*
X124358061Y-78505000D01*
X124561939Y-78505000D01*
X124761898Y-78465226D01*
X124950256Y-78387205D01*
X125119774Y-78273937D01*
X125163711Y-78230000D01*
X133620199Y-78230000D01*
X137199236Y-81809038D01*
X137158320Y-81870273D01*
X137050147Y-82131426D01*
X136995000Y-82408665D01*
X136995000Y-82691335D01*
X137050147Y-82968574D01*
X137148077Y-83204999D01*
X132091923Y-83204999D01*
X132189853Y-82968574D01*
X132245000Y-82691335D01*
X132245000Y-82408665D01*
X132189853Y-82131426D01*
X132081680Y-81870273D01*
X131924637Y-81635241D01*
X131726039Y-81436643D01*
X131734482Y-81435812D01*
X131854180Y-81399502D01*
X131964494Y-81340537D01*
X132061185Y-81261185D01*
X132140537Y-81164494D01*
X132199502Y-81054180D01*
X132235812Y-80934482D01*
X132248072Y-80810000D01*
X132248072Y-79210000D01*
X132235812Y-79085518D01*
X132199502Y-78965820D01*
X132140537Y-78855506D01*
X132061185Y-78758815D01*
X131964494Y-78679463D01*
X131854180Y-78620498D01*
X131734482Y-78584188D01*
X131610000Y-78571928D01*
X130010000Y-78571928D01*
X129885518Y-78584188D01*
X129765820Y-78620498D01*
X129655506Y-78679463D01*
X129558815Y-78758815D01*
X129479463Y-78855506D01*
X129420498Y-78965820D01*
X129384188Y-79085518D01*
X129371928Y-79210000D01*
X129371928Y-80373271D01*
X129370198Y-80375001D01*
X115690509Y-80375001D01*
X115735000Y-80151335D01*
X115735000Y-79868665D01*
X115698688Y-79686113D01*
X122431004Y-72953798D01*
X122460001Y-72930001D01*
X122554974Y-72814276D01*
X122625546Y-72682247D01*
X122669003Y-72538986D01*
X122676734Y-72460495D01*
X122898505Y-72312312D01*
X122964944Y-72245873D01*
X122970498Y-72264180D01*
X123029463Y-72374494D01*
X123108815Y-72471185D01*
X123205506Y-72550537D01*
X123315820Y-72609502D01*
X123435518Y-72645812D01*
X123560000Y-72658072D01*
X125360000Y-72658072D01*
X125484482Y-72645812D01*
X125604180Y-72609502D01*
X125714494Y-72550537D01*
X125811185Y-72471185D01*
X125890537Y-72374494D01*
X125949502Y-72264180D01*
X125985812Y-72144482D01*
X125998072Y-72020000D01*
X125998072Y-70978665D01*
X136995000Y-70978665D01*
X136995000Y-71261335D01*
X137050147Y-71538574D01*
X137158320Y-71799727D01*
X137315363Y-72034759D01*
X137515241Y-72234637D01*
X137750273Y-72391680D01*
X138011426Y-72499853D01*
X138288665Y-72555000D01*
X138571335Y-72555000D01*
X138848574Y-72499853D01*
X139109727Y-72391680D01*
X139344759Y-72234637D01*
X139544637Y-72034759D01*
X139701680Y-71799727D01*
X139809853Y-71538574D01*
X139823684Y-71469039D01*
X149738096Y-71469039D01*
X149778754Y-71603087D01*
X149898963Y-71857420D01*
X150066481Y-72083414D01*
X150274869Y-72272385D01*
X150516119Y-72417070D01*
X150780960Y-72511909D01*
X151003000Y-72390624D01*
X151003000Y-71247000D01*
X151257000Y-71247000D01*
X151257000Y-72390624D01*
X151479040Y-72511909D01*
X151743881Y-72417070D01*
X151985131Y-72272385D01*
X152193519Y-72083414D01*
X152361037Y-71857420D01*
X152481246Y-71603087D01*
X152521904Y-71469039D01*
X152399915Y-71247000D01*
X151257000Y-71247000D01*
X151003000Y-71247000D01*
X149860085Y-71247000D01*
X149738096Y-71469039D01*
X139823684Y-71469039D01*
X139865000Y-71261335D01*
X139865000Y-70978665D01*
X139823685Y-70770961D01*
X149738096Y-70770961D01*
X149860085Y-70993000D01*
X151003000Y-70993000D01*
X151003000Y-69849376D01*
X151257000Y-69849376D01*
X151257000Y-70993000D01*
X152399915Y-70993000D01*
X152521904Y-70770961D01*
X152481246Y-70636913D01*
X152361037Y-70382580D01*
X152193519Y-70156586D01*
X151985131Y-69967615D01*
X151743881Y-69822930D01*
X151479040Y-69728091D01*
X151257000Y-69849376D01*
X151003000Y-69849376D01*
X150780960Y-69728091D01*
X150516119Y-69822930D01*
X150274869Y-69967615D01*
X150066481Y-70156586D01*
X149898963Y-70382580D01*
X149778754Y-70636913D01*
X149738096Y-70770961D01*
X139823685Y-70770961D01*
X139809853Y-70701426D01*
X139701680Y-70440273D01*
X139544637Y-70205241D01*
X139344759Y-70005363D01*
X139109727Y-69848320D01*
X138848574Y-69740147D01*
X138571335Y-69685000D01*
X138288665Y-69685000D01*
X138011426Y-69740147D01*
X137750273Y-69848320D01*
X137515241Y-70005363D01*
X137315363Y-70205241D01*
X137158320Y-70440273D01*
X137050147Y-70701426D01*
X136995000Y-70978665D01*
X125998072Y-70978665D01*
X125998072Y-70220000D01*
X125985812Y-70095518D01*
X125949502Y-69975820D01*
X125890537Y-69865506D01*
X125811185Y-69768815D01*
X125714494Y-69689463D01*
X125604180Y-69630498D01*
X125484482Y-69594188D01*
X125360000Y-69581928D01*
X123560000Y-69581928D01*
X123435518Y-69594188D01*
X123315820Y-69630498D01*
X123205506Y-69689463D01*
X123108815Y-69768815D01*
X123029463Y-69865506D01*
X122970498Y-69975820D01*
X122964944Y-69994127D01*
X122898505Y-69927688D01*
X122647095Y-69759701D01*
X122367743Y-69643989D01*
X122071184Y-69585000D01*
X121768816Y-69585000D01*
X121472257Y-69643989D01*
X121192905Y-69759701D01*
X120941495Y-69927688D01*
X120727688Y-70141495D01*
X120559701Y-70392905D01*
X120443989Y-70672257D01*
X120385000Y-70968816D01*
X120385000Y-71271184D01*
X120443989Y-71567743D01*
X120559701Y-71847095D01*
X120727688Y-72098505D01*
X120932191Y-72303008D01*
X115735000Y-77500199D01*
X115735000Y-77328665D01*
X115698688Y-77146113D01*
X118621004Y-74223798D01*
X118650001Y-74200001D01*
X118744974Y-74084276D01*
X118815546Y-73952247D01*
X118859003Y-73808986D01*
X118870000Y-73697333D01*
X118870000Y-73697325D01*
X118873676Y-73660000D01*
X118870000Y-73622675D01*
X118870000Y-66354801D01*
X121511070Y-63713731D01*
X121768816Y-63765000D01*
X122071184Y-63765000D01*
X122367743Y-63706011D01*
X122647095Y-63590299D01*
X122898505Y-63422312D01*
X122964944Y-63355873D01*
X122970498Y-63374180D01*
X123029463Y-63484494D01*
X123108815Y-63581185D01*
X123205506Y-63660537D01*
X123315820Y-63719502D01*
X123435518Y-63755812D01*
X123560000Y-63768072D01*
X125360000Y-63768072D01*
X125484482Y-63755812D01*
X125604180Y-63719502D01*
X125714494Y-63660537D01*
X125811185Y-63581185D01*
X125890537Y-63484494D01*
X125949502Y-63374180D01*
X125985812Y-63254482D01*
X125998072Y-63130000D01*
X125998072Y-62088665D01*
X136995000Y-62088665D01*
X136995000Y-62371335D01*
X137050147Y-62648574D01*
X137158320Y-62909727D01*
X137315363Y-63144759D01*
X137515241Y-63344637D01*
X137750273Y-63501680D01*
X138011426Y-63609853D01*
X138288665Y-63665000D01*
X138571335Y-63665000D01*
X138848574Y-63609853D01*
X139109727Y-63501680D01*
X139344759Y-63344637D01*
X139466694Y-63222702D01*
X150316903Y-63222702D01*
X150388486Y-63466671D01*
X150643996Y-63587571D01*
X150918184Y-63656300D01*
X151200512Y-63670217D01*
X151480130Y-63628787D01*
X151746292Y-63533603D01*
X151871514Y-63466671D01*
X151943097Y-63222702D01*
X151130000Y-62409605D01*
X150316903Y-63222702D01*
X139466694Y-63222702D01*
X139544637Y-63144759D01*
X139701680Y-62909727D01*
X139809853Y-62648574D01*
X139865000Y-62371335D01*
X139865000Y-62300512D01*
X149689783Y-62300512D01*
X149731213Y-62580130D01*
X149826397Y-62846292D01*
X149893329Y-62971514D01*
X150137298Y-63043097D01*
X150950395Y-62230000D01*
X151309605Y-62230000D01*
X152122702Y-63043097D01*
X152366671Y-62971514D01*
X152487571Y-62716004D01*
X152556300Y-62441816D01*
X152570217Y-62159488D01*
X152528787Y-61879870D01*
X152433603Y-61613708D01*
X152366671Y-61488486D01*
X152122702Y-61416903D01*
X151309605Y-62230000D01*
X150950395Y-62230000D01*
X150137298Y-61416903D01*
X149893329Y-61488486D01*
X149772429Y-61743996D01*
X149703700Y-62018184D01*
X149689783Y-62300512D01*
X139865000Y-62300512D01*
X139865000Y-62088665D01*
X139809853Y-61811426D01*
X139701680Y-61550273D01*
X139544637Y-61315241D01*
X139466694Y-61237298D01*
X150316903Y-61237298D01*
X151130000Y-62050395D01*
X151943097Y-61237298D01*
X151871514Y-60993329D01*
X151616004Y-60872429D01*
X151341816Y-60803700D01*
X151059488Y-60789783D01*
X150779870Y-60831213D01*
X150513708Y-60926397D01*
X150388486Y-60993329D01*
X150316903Y-61237298D01*
X139466694Y-61237298D01*
X139344759Y-61115363D01*
X139109727Y-60958320D01*
X138848574Y-60850147D01*
X138571335Y-60795000D01*
X138288665Y-60795000D01*
X138011426Y-60850147D01*
X137750273Y-60958320D01*
X137515241Y-61115363D01*
X137315363Y-61315241D01*
X137158320Y-61550273D01*
X137050147Y-61811426D01*
X136995000Y-62088665D01*
X125998072Y-62088665D01*
X125998072Y-61330000D01*
X125985812Y-61205518D01*
X125949502Y-61085820D01*
X125890537Y-60975506D01*
X125811185Y-60878815D01*
X125714494Y-60799463D01*
X125604180Y-60740498D01*
X125484482Y-60704188D01*
X125360000Y-60691928D01*
X123560000Y-60691928D01*
X123435518Y-60704188D01*
X123315820Y-60740498D01*
X123205506Y-60799463D01*
X123108815Y-60878815D01*
X123029463Y-60975506D01*
X122970498Y-61085820D01*
X122964944Y-61104127D01*
X122898505Y-61037688D01*
X122647095Y-60869701D01*
X122367743Y-60753989D01*
X122071184Y-60695000D01*
X121768816Y-60695000D01*
X121472257Y-60753989D01*
X121192905Y-60869701D01*
X120941495Y-61037688D01*
X120727688Y-61251495D01*
X120559701Y-61502905D01*
X120443989Y-61782257D01*
X120385000Y-62078816D01*
X120385000Y-62381184D01*
X120436269Y-62638930D01*
X117598998Y-65476201D01*
X117570000Y-65499999D01*
X117546202Y-65528997D01*
X117546201Y-65528998D01*
X117475026Y-65615724D01*
X117404454Y-65747754D01*
X117374180Y-65847558D01*
X117362933Y-65884637D01*
X117360998Y-65891015D01*
X117346324Y-66040000D01*
X117350001Y-66077332D01*
X117350000Y-73345198D01*
X115735000Y-74960198D01*
X115735000Y-74788665D01*
X115679853Y-74511426D01*
X115571680Y-74250273D01*
X115414637Y-74015241D01*
X115214759Y-73815363D01*
X114982241Y-73660000D01*
X115214759Y-73504637D01*
X115414637Y-73304759D01*
X115571680Y-73069727D01*
X115679853Y-72808574D01*
X115735000Y-72531335D01*
X115735000Y-72248665D01*
X115679853Y-71971426D01*
X115571680Y-71710273D01*
X115414637Y-71475241D01*
X115214759Y-71275363D01*
X114982241Y-71120000D01*
X115214759Y-70964637D01*
X115414637Y-70764759D01*
X115571680Y-70529727D01*
X115679853Y-70268574D01*
X115735000Y-69991335D01*
X115735000Y-69708665D01*
X115679853Y-69431426D01*
X115571680Y-69170273D01*
X115414637Y-68935241D01*
X115214759Y-68735363D01*
X114982241Y-68580000D01*
X115214759Y-68424637D01*
X115414637Y-68224759D01*
X115571680Y-67989727D01*
X115679853Y-67728574D01*
X115735000Y-67451335D01*
X115735000Y-67168665D01*
X115679853Y-66891426D01*
X115571680Y-66630273D01*
X115414637Y-66395241D01*
X115214759Y-66195363D01*
X114979727Y-66038320D01*
X114969135Y-66033933D01*
X115155131Y-65922385D01*
X115363519Y-65733414D01*
X115531037Y-65507420D01*
X115651246Y-65253087D01*
X115691904Y-65119039D01*
X115569915Y-64897000D01*
X114427000Y-64897000D01*
X114427000Y-64917000D01*
X114173000Y-64917000D01*
X114173000Y-64897000D01*
X113030085Y-64897000D01*
X112908096Y-65119039D01*
X112948754Y-65253087D01*
X113068963Y-65507420D01*
X113236481Y-65733414D01*
X113444869Y-65922385D01*
X113630865Y-66033933D01*
X113620273Y-66038320D01*
X113385241Y-66195363D01*
X113185363Y-66395241D01*
X113028320Y-66630273D01*
X112920147Y-66891426D01*
X112865000Y-67168665D01*
X112865000Y-67451335D01*
X112920147Y-67728574D01*
X113028320Y-67989727D01*
X113185363Y-68224759D01*
X113385241Y-68424637D01*
X113617759Y-68580000D01*
X113385241Y-68735363D01*
X113185363Y-68935241D01*
X113028320Y-69170273D01*
X112920147Y-69431426D01*
X112865000Y-69708665D01*
X112865000Y-69991335D01*
X112920147Y-70268574D01*
X113028320Y-70529727D01*
X113185363Y-70764759D01*
X113385241Y-70964637D01*
X113617759Y-71120000D01*
X113385241Y-71275363D01*
X113185363Y-71475241D01*
X113028320Y-71710273D01*
X112920147Y-71971426D01*
X112865000Y-72248665D01*
X112865000Y-72531335D01*
X112920147Y-72808574D01*
X113028320Y-73069727D01*
X113185363Y-73304759D01*
X113385241Y-73504637D01*
X113617759Y-73660000D01*
X113385241Y-73815363D01*
X113185363Y-74015241D01*
X113028320Y-74250273D01*
X112920147Y-74511426D01*
X112865000Y-74788665D01*
X112865000Y-75071335D01*
X112920147Y-75348574D01*
X113028320Y-75609727D01*
X113185363Y-75844759D01*
X113385241Y-76044637D01*
X113617759Y-76200000D01*
X113385241Y-76355363D01*
X113185363Y-76555241D01*
X113028320Y-76790273D01*
X112920147Y-77051426D01*
X112865000Y-77328665D01*
X112865000Y-77611335D01*
X112920147Y-77888574D01*
X113028320Y-78149727D01*
X113185363Y-78384759D01*
X113385241Y-78584637D01*
X113617759Y-78740000D01*
X113385241Y-78895363D01*
X113185363Y-79095241D01*
X113028320Y-79330273D01*
X112920147Y-79591426D01*
X112865000Y-79868665D01*
X112865000Y-80151335D01*
X112909491Y-80375001D01*
X100450509Y-80375001D01*
X100495000Y-80151335D01*
X100495000Y-79868665D01*
X100439853Y-79591426D01*
X100401983Y-79500000D01*
X109786289Y-79500000D01*
X109830226Y-79543937D01*
X109999744Y-79657205D01*
X110188102Y-79735226D01*
X110388061Y-79775000D01*
X110591939Y-79775000D01*
X110791898Y-79735226D01*
X110980256Y-79657205D01*
X111149774Y-79543937D01*
X111293937Y-79399774D01*
X111407205Y-79230256D01*
X111485226Y-79041898D01*
X111525000Y-78841939D01*
X111525000Y-78638061D01*
X111485226Y-78438102D01*
X111407205Y-78249744D01*
X111293937Y-78080226D01*
X111149774Y-77936063D01*
X110980256Y-77822795D01*
X110791898Y-77744774D01*
X110591939Y-77705000D01*
X110388061Y-77705000D01*
X110188102Y-77744774D01*
X109999744Y-77822795D01*
X109830226Y-77936063D01*
X109786289Y-77980000D01*
X100401983Y-77980000D01*
X100439853Y-77888574D01*
X100495000Y-77611335D01*
X100495000Y-77328665D01*
X100439853Y-77051426D01*
X100331680Y-76790273D01*
X100174637Y-76555241D01*
X99974759Y-76355363D01*
X99742241Y-76200000D01*
X99974759Y-76044637D01*
X100174637Y-75844759D01*
X100331680Y-75609727D01*
X100439853Y-75348574D01*
X100495000Y-75071335D01*
X100495000Y-74788665D01*
X100439853Y-74511426D01*
X100331680Y-74250273D01*
X100174637Y-74015241D01*
X99974759Y-73815363D01*
X99742241Y-73660000D01*
X99974759Y-73504637D01*
X100174637Y-73304759D01*
X100331680Y-73069727D01*
X100439853Y-72808574D01*
X100495000Y-72531335D01*
X100495000Y-72248665D01*
X100439853Y-71971426D01*
X100331680Y-71710273D01*
X100174637Y-71475241D01*
X99974759Y-71275363D01*
X99739727Y-71118320D01*
X99729135Y-71113933D01*
X99915131Y-71002385D01*
X100123519Y-70813414D01*
X100291037Y-70587420D01*
X100411246Y-70333087D01*
X100451904Y-70199039D01*
X100329915Y-69977000D01*
X99187000Y-69977000D01*
X99187000Y-69997000D01*
X98933000Y-69997000D01*
X98933000Y-69977000D01*
X97790085Y-69977000D01*
X97668096Y-70199039D01*
X97708754Y-70333087D01*
X97828963Y-70587420D01*
X97996481Y-70813414D01*
X98204869Y-71002385D01*
X98390865Y-71113933D01*
X98380273Y-71118320D01*
X98145241Y-71275363D01*
X97945363Y-71475241D01*
X97788320Y-71710273D01*
X97680147Y-71971426D01*
X97625000Y-72248665D01*
X97625000Y-72531335D01*
X97661312Y-72713886D01*
X94013997Y-76361202D01*
X93984999Y-76385000D01*
X93961201Y-76413998D01*
X93961200Y-76413999D01*
X93890025Y-76500725D01*
X93819453Y-76632755D01*
X93809350Y-76666063D01*
X93775997Y-76776015D01*
X93770185Y-76835026D01*
X93761323Y-76925001D01*
X91567000Y-76925001D01*
X91567000Y-61430000D01*
X97621928Y-61430000D01*
X97621928Y-63030000D01*
X97634188Y-63154482D01*
X97670498Y-63274180D01*
X97729463Y-63384494D01*
X97808815Y-63481185D01*
X97905506Y-63560537D01*
X98015820Y-63619502D01*
X98135518Y-63655812D01*
X98143961Y-63656643D01*
X97945363Y-63855241D01*
X97788320Y-64090273D01*
X97680147Y-64351426D01*
X97625000Y-64628665D01*
X97625000Y-64911335D01*
X97680147Y-65188574D01*
X97788320Y-65449727D01*
X97945363Y-65684759D01*
X98145241Y-65884637D01*
X98377759Y-66040000D01*
X98145241Y-66195363D01*
X97945363Y-66395241D01*
X97788320Y-66630273D01*
X97680147Y-66891426D01*
X97625000Y-67168665D01*
X97625000Y-67451335D01*
X97680147Y-67728574D01*
X97788320Y-67989727D01*
X97945363Y-68224759D01*
X98145241Y-68424637D01*
X98380273Y-68581680D01*
X98390865Y-68586067D01*
X98204869Y-68697615D01*
X97996481Y-68886586D01*
X97828963Y-69112580D01*
X97708754Y-69366913D01*
X97668096Y-69500961D01*
X97790085Y-69723000D01*
X98933000Y-69723000D01*
X98933000Y-69703000D01*
X99187000Y-69703000D01*
X99187000Y-69723000D01*
X100329915Y-69723000D01*
X100451904Y-69500961D01*
X100411246Y-69366913D01*
X100291037Y-69112580D01*
X100123519Y-68886586D01*
X99915131Y-68697615D01*
X99729135Y-68586067D01*
X99739727Y-68581680D01*
X99974759Y-68424637D01*
X100174637Y-68224759D01*
X100331680Y-67989727D01*
X100439853Y-67728574D01*
X100495000Y-67451335D01*
X100495000Y-67168665D01*
X100439853Y-66891426D01*
X100331680Y-66630273D01*
X100174637Y-66395241D01*
X99974759Y-66195363D01*
X99742241Y-66040000D01*
X99974759Y-65884637D01*
X100174637Y-65684759D01*
X100331680Y-65449727D01*
X100439853Y-65188574D01*
X100495000Y-64911335D01*
X100495000Y-64628665D01*
X100439853Y-64351426D01*
X100331680Y-64090273D01*
X100174637Y-63855241D01*
X99976039Y-63656643D01*
X99984482Y-63655812D01*
X100104180Y-63619502D01*
X100214494Y-63560537D01*
X100311185Y-63481185D01*
X100390537Y-63384494D01*
X100449502Y-63274180D01*
X100485812Y-63154482D01*
X100498072Y-63030000D01*
X100498072Y-62088665D01*
X112865000Y-62088665D01*
X112865000Y-62371335D01*
X112920147Y-62648574D01*
X113028320Y-62909727D01*
X113185363Y-63144759D01*
X113385241Y-63344637D01*
X113620273Y-63501680D01*
X113630865Y-63506067D01*
X113444869Y-63617615D01*
X113236481Y-63806586D01*
X113068963Y-64032580D01*
X112948754Y-64286913D01*
X112908096Y-64420961D01*
X113030085Y-64643000D01*
X114173000Y-64643000D01*
X114173000Y-64623000D01*
X114427000Y-64623000D01*
X114427000Y-64643000D01*
X115569915Y-64643000D01*
X115691904Y-64420961D01*
X115651246Y-64286913D01*
X115531037Y-64032580D01*
X115363519Y-63806586D01*
X115155131Y-63617615D01*
X114969135Y-63506067D01*
X114979727Y-63501680D01*
X115214759Y-63344637D01*
X115414637Y-63144759D01*
X115571680Y-62909727D01*
X115679853Y-62648574D01*
X115735000Y-62371335D01*
X115735000Y-62088665D01*
X115679853Y-61811426D01*
X115571680Y-61550273D01*
X115414637Y-61315241D01*
X115214759Y-61115363D01*
X114979727Y-60958320D01*
X114718574Y-60850147D01*
X114441335Y-60795000D01*
X114158665Y-60795000D01*
X113881426Y-60850147D01*
X113620273Y-60958320D01*
X113385241Y-61115363D01*
X113185363Y-61315241D01*
X113028320Y-61550273D01*
X112920147Y-61811426D01*
X112865000Y-62088665D01*
X100498072Y-62088665D01*
X100498072Y-61430000D01*
X100485812Y-61305518D01*
X100449502Y-61185820D01*
X100390537Y-61075506D01*
X100311185Y-60978815D01*
X100214494Y-60899463D01*
X100104180Y-60840498D01*
X99984482Y-60804188D01*
X99860000Y-60791928D01*
X98260000Y-60791928D01*
X98135518Y-60804188D01*
X98015820Y-60840498D01*
X97905506Y-60899463D01*
X97808815Y-60978815D01*
X97729463Y-61075506D01*
X97670498Y-61185820D01*
X97634188Y-61305518D01*
X97621928Y-61430000D01*
X91567000Y-61430000D01*
X91567000Y-50927000D01*
X156083000Y-50927000D01*
X156083000Y-109093000D01*
G37*
%TD.AperFunction*%
%TD*%
M02*
