%TF.GenerationSoftware,KiCad,Pcbnew,(5.1.10)-1*%
%TF.CreationDate,2021-07-06T22:39:24+01:00*%
%TF.ProjectId,2114_sram_tester,32313134-5f73-4726-916d-5f7465737465,rev?*%
%TF.SameCoordinates,Original*%
%TF.FileFunction,Soldermask,Bot*%
%TF.FilePolarity,Negative*%
%FSLAX46Y46*%
G04 Gerber Fmt 4.6, Leading zero omitted, Abs format (unit mm)*
G04 Created by KiCad (PCBNEW (5.1.10)-1) date 2021-07-06 22:39:24*
%MOMM*%
%LPD*%
G01*
G04 APERTURE LIST*
%ADD10C,2.000000*%
%ADD11O,1.600000X1.600000*%
%ADD12C,1.600000*%
%ADD13R,1.600000X1.600000*%
%ADD14C,1.800000*%
%ADD15R,1.800000X1.800000*%
G04 APERTURE END LIST*
D10*
%TO.C,SW1*%
X145360000Y-97640000D03*
X149860000Y-97640000D03*
X145360000Y-104140000D03*
X149860000Y-104140000D03*
%TD*%
D11*
%TO.C,R3*%
X148590000Y-80010000D03*
D12*
X148590000Y-92710000D03*
%TD*%
D11*
%TO.C,R2*%
X151130000Y-71120000D03*
D12*
X138430000Y-71120000D03*
%TD*%
D11*
%TO.C,R1*%
X138430000Y-62230000D03*
D12*
X151130000Y-62230000D03*
%TD*%
D11*
%TO.C,A1*%
X114300000Y-97790000D03*
X99060000Y-97790000D03*
X114300000Y-62230000D03*
X99060000Y-95250000D03*
X114300000Y-64770000D03*
X99060000Y-92710000D03*
X114300000Y-67310000D03*
X99060000Y-90170000D03*
X114300000Y-69850000D03*
X99060000Y-87630000D03*
X114300000Y-72390000D03*
X99060000Y-85090000D03*
X114300000Y-74930000D03*
X99060000Y-82550000D03*
X114300000Y-77470000D03*
X99060000Y-80010000D03*
X114300000Y-80010000D03*
X99060000Y-77470000D03*
X114300000Y-82550000D03*
X99060000Y-74930000D03*
X114300000Y-85090000D03*
X99060000Y-72390000D03*
X114300000Y-87630000D03*
X99060000Y-69850000D03*
X114300000Y-90170000D03*
X99060000Y-67310000D03*
X114300000Y-92710000D03*
X99060000Y-64770000D03*
X114300000Y-95250000D03*
D13*
X99060000Y-62230000D03*
%TD*%
D11*
%TO.C,J1*%
X138430000Y-80010000D03*
X130810000Y-100330000D03*
X138430000Y-82550000D03*
X130810000Y-97790000D03*
X138430000Y-85090000D03*
X130810000Y-95250000D03*
X138430000Y-87630000D03*
X130810000Y-92710000D03*
X138430000Y-90170000D03*
X130810000Y-90170000D03*
X138430000Y-92710000D03*
X130810000Y-87630000D03*
X138430000Y-95250000D03*
X130810000Y-85090000D03*
X138430000Y-97790000D03*
X130810000Y-82550000D03*
X138430000Y-100330000D03*
D13*
X130810000Y-80010000D03*
%TD*%
D14*
%TO.C,D2*%
X121920000Y-71120000D03*
D15*
X124460000Y-71120000D03*
%TD*%
D14*
%TO.C,D1*%
X121920000Y-62230000D03*
D15*
X124460000Y-62230000D03*
%TD*%
M02*
