%TF.GenerationSoftware,KiCad,Pcbnew,(5.1.10)-1*%
%TF.CreationDate,2021-07-06T22:39:24+01:00*%
%TF.ProjectId,2114_sram_tester,32313134-5f73-4726-916d-5f7465737465,rev?*%
%TF.SameCoordinates,Original*%
%TF.FileFunction,Legend,Top*%
%TF.FilePolarity,Positive*%
%FSLAX46Y46*%
G04 Gerber Fmt 4.6, Leading zero omitted, Abs format (unit mm)*
G04 Created by KiCad (PCBNEW (5.1.10)-1) date 2021-07-06 22:39:24*
%MOMM*%
%LPD*%
G01*
G04 APERTURE LIST*
%ADD10C,0.150000*%
%ADD11C,0.010000*%
%ADD12C,0.120000*%
G04 APERTURE END LIST*
D10*
X149042380Y-89479047D02*
X149042380Y-90050476D01*
X149042380Y-89764761D02*
X148042380Y-89764761D01*
X148185238Y-89860000D01*
X148280476Y-89955238D01*
X148328095Y-90050476D01*
X148042380Y-88860000D02*
X148042380Y-88764761D01*
X148090000Y-88669523D01*
X148137619Y-88621904D01*
X148232857Y-88574285D01*
X148423333Y-88526666D01*
X148661428Y-88526666D01*
X148851904Y-88574285D01*
X148947142Y-88621904D01*
X148994761Y-88669523D01*
X149042380Y-88764761D01*
X149042380Y-88860000D01*
X148994761Y-88955238D01*
X148947142Y-89002857D01*
X148851904Y-89050476D01*
X148661428Y-89098095D01*
X148423333Y-89098095D01*
X148232857Y-89050476D01*
X148137619Y-89002857D01*
X148090000Y-88955238D01*
X148042380Y-88860000D01*
X149042380Y-88098095D02*
X148042380Y-88098095D01*
X149042380Y-87526666D02*
X148470952Y-87955238D01*
X148042380Y-87526666D02*
X148613809Y-88098095D01*
X148042380Y-86145714D02*
X148042380Y-85955238D01*
X148090000Y-85860000D01*
X148185238Y-85764761D01*
X148375714Y-85717142D01*
X148709047Y-85717142D01*
X148899523Y-85764761D01*
X148994761Y-85860000D01*
X149042380Y-85955238D01*
X149042380Y-86145714D01*
X148994761Y-86240952D01*
X148899523Y-86336190D01*
X148709047Y-86383809D01*
X148375714Y-86383809D01*
X148185238Y-86336190D01*
X148090000Y-86240952D01*
X148042380Y-86145714D01*
X149042380Y-85288571D02*
X148042380Y-85288571D01*
X149042380Y-84860000D02*
X148518571Y-84860000D01*
X148423333Y-84907619D01*
X148375714Y-85002857D01*
X148375714Y-85145714D01*
X148423333Y-85240952D01*
X148470952Y-85288571D01*
X149042380Y-84383809D02*
X148375714Y-84383809D01*
X148470952Y-84383809D02*
X148423333Y-84336190D01*
X148375714Y-84240952D01*
X148375714Y-84098095D01*
X148423333Y-84002857D01*
X148518571Y-83955238D01*
X149042380Y-83955238D01*
X148518571Y-83955238D02*
X148423333Y-83907619D01*
X148375714Y-83812380D01*
X148375714Y-83669523D01*
X148423333Y-83574285D01*
X148518571Y-83526666D01*
X149042380Y-83526666D01*
X148994761Y-83098095D02*
X149042380Y-83002857D01*
X149042380Y-82812380D01*
X148994761Y-82717142D01*
X148899523Y-82669523D01*
X148851904Y-82669523D01*
X148756666Y-82717142D01*
X148709047Y-82812380D01*
X148709047Y-82955238D01*
X148661428Y-83050476D01*
X148566190Y-83098095D01*
X148518571Y-83098095D01*
X148423333Y-83050476D01*
X148375714Y-82955238D01*
X148375714Y-82812380D01*
X148423333Y-82717142D01*
X139415238Y-108354761D02*
X139558095Y-108402380D01*
X139796190Y-108402380D01*
X139891428Y-108354761D01*
X139939047Y-108307142D01*
X139986666Y-108211904D01*
X139986666Y-108116666D01*
X139939047Y-108021428D01*
X139891428Y-107973809D01*
X139796190Y-107926190D01*
X139605714Y-107878571D01*
X139510476Y-107830952D01*
X139462857Y-107783333D01*
X139415238Y-107688095D01*
X139415238Y-107592857D01*
X139462857Y-107497619D01*
X139510476Y-107450000D01*
X139605714Y-107402380D01*
X139843809Y-107402380D01*
X139986666Y-107450000D01*
X140272380Y-107735714D02*
X140653333Y-107735714D01*
X140415238Y-107402380D02*
X140415238Y-108259523D01*
X140462857Y-108354761D01*
X140558095Y-108402380D01*
X140653333Y-108402380D01*
X141129523Y-108402380D02*
X141034285Y-108354761D01*
X140986666Y-108307142D01*
X140939047Y-108211904D01*
X140939047Y-107926190D01*
X140986666Y-107830952D01*
X141034285Y-107783333D01*
X141129523Y-107735714D01*
X141272380Y-107735714D01*
X141367619Y-107783333D01*
X141415238Y-107830952D01*
X141462857Y-107926190D01*
X141462857Y-108211904D01*
X141415238Y-108307142D01*
X141367619Y-108354761D01*
X141272380Y-108402380D01*
X141129523Y-108402380D01*
X141891428Y-107735714D02*
X141891428Y-108735714D01*
X141891428Y-107783333D02*
X141986666Y-107735714D01*
X142177142Y-107735714D01*
X142272380Y-107783333D01*
X142320000Y-107830952D01*
X142367619Y-107926190D01*
X142367619Y-108211904D01*
X142320000Y-108307142D01*
X142272380Y-108354761D01*
X142177142Y-108402380D01*
X141986666Y-108402380D01*
X141891428Y-108354761D01*
X144272380Y-107354761D02*
X143415238Y-108640476D01*
X145320000Y-108354761D02*
X145462857Y-108402380D01*
X145700952Y-108402380D01*
X145796190Y-108354761D01*
X145843809Y-108307142D01*
X145891428Y-108211904D01*
X145891428Y-108116666D01*
X145843809Y-108021428D01*
X145796190Y-107973809D01*
X145700952Y-107926190D01*
X145510476Y-107878571D01*
X145415238Y-107830952D01*
X145367619Y-107783333D01*
X145320000Y-107688095D01*
X145320000Y-107592857D01*
X145367619Y-107497619D01*
X145415238Y-107450000D01*
X145510476Y-107402380D01*
X145748571Y-107402380D01*
X145891428Y-107450000D01*
X146177142Y-107735714D02*
X146558095Y-107735714D01*
X146320000Y-107402380D02*
X146320000Y-108259523D01*
X146367619Y-108354761D01*
X146462857Y-108402380D01*
X146558095Y-108402380D01*
X147320000Y-108402380D02*
X147320000Y-107878571D01*
X147272380Y-107783333D01*
X147177142Y-107735714D01*
X146986666Y-107735714D01*
X146891428Y-107783333D01*
X147320000Y-108354761D02*
X147224761Y-108402380D01*
X146986666Y-108402380D01*
X146891428Y-108354761D01*
X146843809Y-108259523D01*
X146843809Y-108164285D01*
X146891428Y-108069047D01*
X146986666Y-108021428D01*
X147224761Y-108021428D01*
X147320000Y-107973809D01*
X147796190Y-108402380D02*
X147796190Y-107735714D01*
X147796190Y-107926190D02*
X147843809Y-107830952D01*
X147891428Y-107783333D01*
X147986666Y-107735714D01*
X148081904Y-107735714D01*
X148272380Y-107735714D02*
X148653333Y-107735714D01*
X148415238Y-107402380D02*
X148415238Y-108259523D01*
X148462857Y-108354761D01*
X148558095Y-108402380D01*
X148653333Y-108402380D01*
X150462857Y-107354761D02*
X149605714Y-108640476D01*
X152129523Y-108402380D02*
X151796190Y-107926190D01*
X151558095Y-108402380D02*
X151558095Y-107402380D01*
X151939047Y-107402380D01*
X152034285Y-107450000D01*
X152081904Y-107497619D01*
X152129523Y-107592857D01*
X152129523Y-107735714D01*
X152081904Y-107830952D01*
X152034285Y-107878571D01*
X151939047Y-107926190D01*
X151558095Y-107926190D01*
X152939047Y-108354761D02*
X152843809Y-108402380D01*
X152653333Y-108402380D01*
X152558095Y-108354761D01*
X152510476Y-108259523D01*
X152510476Y-107878571D01*
X152558095Y-107783333D01*
X152653333Y-107735714D01*
X152843809Y-107735714D01*
X152939047Y-107783333D01*
X152986666Y-107878571D01*
X152986666Y-107973809D01*
X152510476Y-108069047D01*
X153367619Y-108354761D02*
X153462857Y-108402380D01*
X153653333Y-108402380D01*
X153748571Y-108354761D01*
X153796190Y-108259523D01*
X153796190Y-108211904D01*
X153748571Y-108116666D01*
X153653333Y-108069047D01*
X153510476Y-108069047D01*
X153415238Y-108021428D01*
X153367619Y-107926190D01*
X153367619Y-107878571D01*
X153415238Y-107783333D01*
X153510476Y-107735714D01*
X153653333Y-107735714D01*
X153748571Y-107783333D01*
X154605714Y-108354761D02*
X154510476Y-108402380D01*
X154320000Y-108402380D01*
X154224761Y-108354761D01*
X154177142Y-108259523D01*
X154177142Y-107878571D01*
X154224761Y-107783333D01*
X154320000Y-107735714D01*
X154510476Y-107735714D01*
X154605714Y-107783333D01*
X154653333Y-107878571D01*
X154653333Y-107973809D01*
X154177142Y-108069047D01*
X154939047Y-107735714D02*
X155320000Y-107735714D01*
X155081904Y-107402380D02*
X155081904Y-108259523D01*
X155129523Y-108354761D01*
X155224761Y-108402380D01*
X155320000Y-108402380D01*
X134167619Y-94241428D02*
X134120000Y-94193809D01*
X134072380Y-94098571D01*
X134072380Y-93860476D01*
X134120000Y-93765238D01*
X134167619Y-93717619D01*
X134262857Y-93670000D01*
X134358095Y-93670000D01*
X134500952Y-93717619D01*
X135072380Y-94289047D01*
X135072380Y-93670000D01*
X135072380Y-92717619D02*
X135072380Y-93289047D01*
X135072380Y-93003333D02*
X134072380Y-93003333D01*
X134215238Y-93098571D01*
X134310476Y-93193809D01*
X134358095Y-93289047D01*
X135072380Y-91765238D02*
X135072380Y-92336666D01*
X135072380Y-92050952D02*
X134072380Y-92050952D01*
X134215238Y-92146190D01*
X134310476Y-92241428D01*
X134358095Y-92336666D01*
X134405714Y-90908095D02*
X135072380Y-90908095D01*
X134024761Y-91146190D02*
X134739047Y-91384285D01*
X134739047Y-90765238D01*
X135024761Y-89670000D02*
X135072380Y-89527142D01*
X135072380Y-89289047D01*
X135024761Y-89193809D01*
X134977142Y-89146190D01*
X134881904Y-89098571D01*
X134786666Y-89098571D01*
X134691428Y-89146190D01*
X134643809Y-89193809D01*
X134596190Y-89289047D01*
X134548571Y-89479523D01*
X134500952Y-89574761D01*
X134453333Y-89622380D01*
X134358095Y-89670000D01*
X134262857Y-89670000D01*
X134167619Y-89622380D01*
X134120000Y-89574761D01*
X134072380Y-89479523D01*
X134072380Y-89241428D01*
X134120000Y-89098571D01*
X135072380Y-88098571D02*
X134596190Y-88431904D01*
X135072380Y-88670000D02*
X134072380Y-88670000D01*
X134072380Y-88289047D01*
X134120000Y-88193809D01*
X134167619Y-88146190D01*
X134262857Y-88098571D01*
X134405714Y-88098571D01*
X134500952Y-88146190D01*
X134548571Y-88193809D01*
X134596190Y-88289047D01*
X134596190Y-88670000D01*
X134786666Y-87717619D02*
X134786666Y-87241428D01*
X135072380Y-87812857D02*
X134072380Y-87479523D01*
X135072380Y-87146190D01*
X135072380Y-86812857D02*
X134072380Y-86812857D01*
X134786666Y-86479523D01*
X134072380Y-86146190D01*
X135072380Y-86146190D01*
X101822857Y-75096666D02*
X102299047Y-75096666D01*
X101727619Y-75382380D02*
X102060952Y-74382380D01*
X102394285Y-75382380D01*
X102727619Y-75382380D02*
X102727619Y-74715714D01*
X102727619Y-74906190D02*
X102775238Y-74810952D01*
X102822857Y-74763333D01*
X102918095Y-74715714D01*
X103013333Y-74715714D01*
X103775238Y-75382380D02*
X103775238Y-74382380D01*
X103775238Y-75334761D02*
X103680000Y-75382380D01*
X103489523Y-75382380D01*
X103394285Y-75334761D01*
X103346666Y-75287142D01*
X103299047Y-75191904D01*
X103299047Y-74906190D01*
X103346666Y-74810952D01*
X103394285Y-74763333D01*
X103489523Y-74715714D01*
X103680000Y-74715714D01*
X103775238Y-74763333D01*
X104680000Y-74715714D02*
X104680000Y-75382380D01*
X104251428Y-74715714D02*
X104251428Y-75239523D01*
X104299047Y-75334761D01*
X104394285Y-75382380D01*
X104537142Y-75382380D01*
X104632380Y-75334761D01*
X104680000Y-75287142D01*
X105156190Y-75382380D02*
X105156190Y-74715714D01*
X105156190Y-74382380D02*
X105108571Y-74430000D01*
X105156190Y-74477619D01*
X105203809Y-74430000D01*
X105156190Y-74382380D01*
X105156190Y-74477619D01*
X105632380Y-74715714D02*
X105632380Y-75382380D01*
X105632380Y-74810952D02*
X105680000Y-74763333D01*
X105775238Y-74715714D01*
X105918095Y-74715714D01*
X106013333Y-74763333D01*
X106060952Y-74858571D01*
X106060952Y-75382380D01*
X106680000Y-75382380D02*
X106584761Y-75334761D01*
X106537142Y-75287142D01*
X106489523Y-75191904D01*
X106489523Y-74906190D01*
X106537142Y-74810952D01*
X106584761Y-74763333D01*
X106680000Y-74715714D01*
X106822857Y-74715714D01*
X106918095Y-74763333D01*
X106965714Y-74810952D01*
X107013333Y-74906190D01*
X107013333Y-75191904D01*
X106965714Y-75287142D01*
X106918095Y-75334761D01*
X106822857Y-75382380D01*
X106680000Y-75382380D01*
X108203809Y-75382380D02*
X108203809Y-74382380D01*
X108775238Y-75382380D01*
X108775238Y-74382380D01*
X109680000Y-75382380D02*
X109680000Y-74858571D01*
X109632380Y-74763333D01*
X109537142Y-74715714D01*
X109346666Y-74715714D01*
X109251428Y-74763333D01*
X109680000Y-75334761D02*
X109584761Y-75382380D01*
X109346666Y-75382380D01*
X109251428Y-75334761D01*
X109203809Y-75239523D01*
X109203809Y-75144285D01*
X109251428Y-75049047D01*
X109346666Y-75001428D01*
X109584761Y-75001428D01*
X109680000Y-74953809D01*
X110156190Y-74715714D02*
X110156190Y-75382380D01*
X110156190Y-74810952D02*
X110203809Y-74763333D01*
X110299047Y-74715714D01*
X110441904Y-74715714D01*
X110537142Y-74763333D01*
X110584761Y-74858571D01*
X110584761Y-75382380D01*
X111203809Y-75382380D02*
X111108571Y-75334761D01*
X111060952Y-75287142D01*
X111013333Y-75191904D01*
X111013333Y-74906190D01*
X111060952Y-74810952D01*
X111108571Y-74763333D01*
X111203809Y-74715714D01*
X111346666Y-74715714D01*
X111441904Y-74763333D01*
X111489523Y-74810952D01*
X111537142Y-74906190D01*
X111537142Y-75191904D01*
X111489523Y-75287142D01*
X111441904Y-75334761D01*
X111346666Y-75382380D01*
X111203809Y-75382380D01*
X141065714Y-61682380D02*
X141684761Y-61682380D01*
X141351428Y-62063333D01*
X141494285Y-62063333D01*
X141589523Y-62110952D01*
X141637142Y-62158571D01*
X141684761Y-62253809D01*
X141684761Y-62491904D01*
X141637142Y-62587142D01*
X141589523Y-62634761D01*
X141494285Y-62682380D01*
X141208571Y-62682380D01*
X141113333Y-62634761D01*
X141065714Y-62587142D01*
X142018095Y-61682380D02*
X142637142Y-61682380D01*
X142303809Y-62063333D01*
X142446666Y-62063333D01*
X142541904Y-62110952D01*
X142589523Y-62158571D01*
X142637142Y-62253809D01*
X142637142Y-62491904D01*
X142589523Y-62587142D01*
X142541904Y-62634761D01*
X142446666Y-62682380D01*
X142160952Y-62682380D01*
X142065714Y-62634761D01*
X142018095Y-62587142D01*
X143256190Y-61682380D02*
X143351428Y-61682380D01*
X143446666Y-61730000D01*
X143494285Y-61777619D01*
X143541904Y-61872857D01*
X143589523Y-62063333D01*
X143589523Y-62301428D01*
X143541904Y-62491904D01*
X143494285Y-62587142D01*
X143446666Y-62634761D01*
X143351428Y-62682380D01*
X143256190Y-62682380D01*
X143160952Y-62634761D01*
X143113333Y-62587142D01*
X143065714Y-62491904D01*
X143018095Y-62301428D01*
X143018095Y-62063333D01*
X143065714Y-61872857D01*
X143113333Y-61777619D01*
X143160952Y-61730000D01*
X143256190Y-61682380D01*
X144970476Y-61682380D02*
X145160952Y-61682380D01*
X145256190Y-61730000D01*
X145351428Y-61825238D01*
X145399047Y-62015714D01*
X145399047Y-62349047D01*
X145351428Y-62539523D01*
X145256190Y-62634761D01*
X145160952Y-62682380D01*
X144970476Y-62682380D01*
X144875238Y-62634761D01*
X144780000Y-62539523D01*
X144732380Y-62349047D01*
X144732380Y-62015714D01*
X144780000Y-61825238D01*
X144875238Y-61730000D01*
X144970476Y-61682380D01*
X145827619Y-62682380D02*
X145827619Y-61682380D01*
X146256190Y-62682380D02*
X146256190Y-62158571D01*
X146208571Y-62063333D01*
X146113333Y-62015714D01*
X145970476Y-62015714D01*
X145875238Y-62063333D01*
X145827619Y-62110952D01*
X146732380Y-62682380D02*
X146732380Y-62015714D01*
X146732380Y-62110952D02*
X146780000Y-62063333D01*
X146875238Y-62015714D01*
X147018095Y-62015714D01*
X147113333Y-62063333D01*
X147160952Y-62158571D01*
X147160952Y-62682380D01*
X147160952Y-62158571D02*
X147208571Y-62063333D01*
X147303809Y-62015714D01*
X147446666Y-62015714D01*
X147541904Y-62063333D01*
X147589523Y-62158571D01*
X147589523Y-62682380D01*
X148018095Y-62634761D02*
X148113333Y-62682380D01*
X148303809Y-62682380D01*
X148399047Y-62634761D01*
X148446666Y-62539523D01*
X148446666Y-62491904D01*
X148399047Y-62396666D01*
X148303809Y-62349047D01*
X148160952Y-62349047D01*
X148065714Y-62301428D01*
X148018095Y-62206190D01*
X148018095Y-62158571D01*
X148065714Y-62063333D01*
X148160952Y-62015714D01*
X148303809Y-62015714D01*
X148399047Y-62063333D01*
X141065714Y-70572380D02*
X141684761Y-70572380D01*
X141351428Y-70953333D01*
X141494285Y-70953333D01*
X141589523Y-71000952D01*
X141637142Y-71048571D01*
X141684761Y-71143809D01*
X141684761Y-71381904D01*
X141637142Y-71477142D01*
X141589523Y-71524761D01*
X141494285Y-71572380D01*
X141208571Y-71572380D01*
X141113333Y-71524761D01*
X141065714Y-71477142D01*
X142018095Y-70572380D02*
X142637142Y-70572380D01*
X142303809Y-70953333D01*
X142446666Y-70953333D01*
X142541904Y-71000952D01*
X142589523Y-71048571D01*
X142637142Y-71143809D01*
X142637142Y-71381904D01*
X142589523Y-71477142D01*
X142541904Y-71524761D01*
X142446666Y-71572380D01*
X142160952Y-71572380D01*
X142065714Y-71524761D01*
X142018095Y-71477142D01*
X143256190Y-70572380D02*
X143351428Y-70572380D01*
X143446666Y-70620000D01*
X143494285Y-70667619D01*
X143541904Y-70762857D01*
X143589523Y-70953333D01*
X143589523Y-71191428D01*
X143541904Y-71381904D01*
X143494285Y-71477142D01*
X143446666Y-71524761D01*
X143351428Y-71572380D01*
X143256190Y-71572380D01*
X143160952Y-71524761D01*
X143113333Y-71477142D01*
X143065714Y-71381904D01*
X143018095Y-71191428D01*
X143018095Y-70953333D01*
X143065714Y-70762857D01*
X143113333Y-70667619D01*
X143160952Y-70620000D01*
X143256190Y-70572380D01*
X144970476Y-70572380D02*
X145160952Y-70572380D01*
X145256190Y-70620000D01*
X145351428Y-70715238D01*
X145399047Y-70905714D01*
X145399047Y-71239047D01*
X145351428Y-71429523D01*
X145256190Y-71524761D01*
X145160952Y-71572380D01*
X144970476Y-71572380D01*
X144875238Y-71524761D01*
X144780000Y-71429523D01*
X144732380Y-71239047D01*
X144732380Y-70905714D01*
X144780000Y-70715238D01*
X144875238Y-70620000D01*
X144970476Y-70572380D01*
X145827619Y-71572380D02*
X145827619Y-70572380D01*
X146256190Y-71572380D02*
X146256190Y-71048571D01*
X146208571Y-70953333D01*
X146113333Y-70905714D01*
X145970476Y-70905714D01*
X145875238Y-70953333D01*
X145827619Y-71000952D01*
X146732380Y-71572380D02*
X146732380Y-70905714D01*
X146732380Y-71000952D02*
X146780000Y-70953333D01*
X146875238Y-70905714D01*
X147018095Y-70905714D01*
X147113333Y-70953333D01*
X147160952Y-71048571D01*
X147160952Y-71572380D01*
X147160952Y-71048571D02*
X147208571Y-70953333D01*
X147303809Y-70905714D01*
X147446666Y-70905714D01*
X147541904Y-70953333D01*
X147589523Y-71048571D01*
X147589523Y-71572380D01*
X148018095Y-71524761D02*
X148113333Y-71572380D01*
X148303809Y-71572380D01*
X148399047Y-71524761D01*
X148446666Y-71429523D01*
X148446666Y-71381904D01*
X148399047Y-71286666D01*
X148303809Y-71239047D01*
X148160952Y-71239047D01*
X148065714Y-71191428D01*
X148018095Y-71096190D01*
X148018095Y-71048571D01*
X148065714Y-70953333D01*
X148160952Y-70905714D01*
X148303809Y-70905714D01*
X148399047Y-70953333D01*
X127335595Y-71572380D02*
X127335595Y-70572380D01*
X127716547Y-70572380D01*
X127811785Y-70620000D01*
X127859404Y-70667619D01*
X127907023Y-70762857D01*
X127907023Y-70905714D01*
X127859404Y-71000952D01*
X127811785Y-71048571D01*
X127716547Y-71096190D01*
X127335595Y-71096190D01*
X128764166Y-71572380D02*
X128764166Y-71048571D01*
X128716547Y-70953333D01*
X128621309Y-70905714D01*
X128430833Y-70905714D01*
X128335595Y-70953333D01*
X128764166Y-71524761D02*
X128668928Y-71572380D01*
X128430833Y-71572380D01*
X128335595Y-71524761D01*
X128287976Y-71429523D01*
X128287976Y-71334285D01*
X128335595Y-71239047D01*
X128430833Y-71191428D01*
X128668928Y-71191428D01*
X128764166Y-71143809D01*
X129192738Y-71524761D02*
X129287976Y-71572380D01*
X129478452Y-71572380D01*
X129573690Y-71524761D01*
X129621309Y-71429523D01*
X129621309Y-71381904D01*
X129573690Y-71286666D01*
X129478452Y-71239047D01*
X129335595Y-71239047D01*
X129240357Y-71191428D01*
X129192738Y-71096190D01*
X129192738Y-71048571D01*
X129240357Y-70953333D01*
X129335595Y-70905714D01*
X129478452Y-70905714D01*
X129573690Y-70953333D01*
X130002261Y-71524761D02*
X130097500Y-71572380D01*
X130287976Y-71572380D01*
X130383214Y-71524761D01*
X130430833Y-71429523D01*
X130430833Y-71381904D01*
X130383214Y-71286666D01*
X130287976Y-71239047D01*
X130145119Y-71239047D01*
X130049880Y-71191428D01*
X130002261Y-71096190D01*
X130002261Y-71048571D01*
X130049880Y-70953333D01*
X130145119Y-70905714D01*
X130287976Y-70905714D01*
X130383214Y-70953333D01*
X127668928Y-62158571D02*
X127335595Y-62158571D01*
X127335595Y-62682380D02*
X127335595Y-61682380D01*
X127811785Y-61682380D01*
X128621309Y-62682380D02*
X128621309Y-62158571D01*
X128573690Y-62063333D01*
X128478452Y-62015714D01*
X128287976Y-62015714D01*
X128192738Y-62063333D01*
X128621309Y-62634761D02*
X128526071Y-62682380D01*
X128287976Y-62682380D01*
X128192738Y-62634761D01*
X128145119Y-62539523D01*
X128145119Y-62444285D01*
X128192738Y-62349047D01*
X128287976Y-62301428D01*
X128526071Y-62301428D01*
X128621309Y-62253809D01*
X129097500Y-62682380D02*
X129097500Y-62015714D01*
X129097500Y-61682380D02*
X129049880Y-61730000D01*
X129097500Y-61777619D01*
X129145119Y-61730000D01*
X129097500Y-61682380D01*
X129097500Y-61777619D01*
X129716547Y-62682380D02*
X129621309Y-62634761D01*
X129573690Y-62539523D01*
X129573690Y-61682380D01*
X153598571Y-87288095D02*
X153646190Y-87145238D01*
X153693809Y-87097619D01*
X153789047Y-87050000D01*
X153931904Y-87050000D01*
X154027142Y-87097619D01*
X154074761Y-87145238D01*
X154122380Y-87240476D01*
X154122380Y-87621428D01*
X153122380Y-87621428D01*
X153122380Y-87288095D01*
X153170000Y-87192857D01*
X153217619Y-87145238D01*
X153312857Y-87097619D01*
X153408095Y-87097619D01*
X153503333Y-87145238D01*
X153550952Y-87192857D01*
X153598571Y-87288095D01*
X153598571Y-87621428D01*
X154122380Y-86621428D02*
X153455714Y-86621428D01*
X153122380Y-86621428D02*
X153170000Y-86669047D01*
X153217619Y-86621428D01*
X153170000Y-86573809D01*
X153122380Y-86621428D01*
X153217619Y-86621428D01*
X153455714Y-86288095D02*
X153455714Y-85907142D01*
X153122380Y-86145238D02*
X153979523Y-86145238D01*
X154074761Y-86097619D01*
X154122380Y-86002380D01*
X154122380Y-85907142D01*
X153455714Y-85669047D02*
X154122380Y-85478571D01*
X153646190Y-85288095D01*
X154122380Y-85097619D01*
X153455714Y-84907142D01*
X154122380Y-84526190D02*
X153455714Y-84526190D01*
X153646190Y-84526190D02*
X153550952Y-84478571D01*
X153503333Y-84430952D01*
X153455714Y-84335714D01*
X153455714Y-84240476D01*
X154122380Y-83478571D02*
X153598571Y-83478571D01*
X153503333Y-83526190D01*
X153455714Y-83621428D01*
X153455714Y-83811904D01*
X153503333Y-83907142D01*
X154074761Y-83478571D02*
X154122380Y-83573809D01*
X154122380Y-83811904D01*
X154074761Y-83907142D01*
X153979523Y-83954761D01*
X153884285Y-83954761D01*
X153789047Y-83907142D01*
X153741428Y-83811904D01*
X153741428Y-83573809D01*
X153693809Y-83478571D01*
X153455714Y-83002380D02*
X154122380Y-83002380D01*
X153550952Y-83002380D02*
X153503333Y-82954761D01*
X153455714Y-82859523D01*
X153455714Y-82716666D01*
X153503333Y-82621428D01*
X153598571Y-82573809D01*
X154122380Y-82573809D01*
X153455714Y-81669047D02*
X154265238Y-81669047D01*
X154360476Y-81716666D01*
X154408095Y-81764285D01*
X154455714Y-81859523D01*
X154455714Y-82002380D01*
X154408095Y-82097619D01*
X154074761Y-81669047D02*
X154122380Y-81764285D01*
X154122380Y-81954761D01*
X154074761Y-82050000D01*
X154027142Y-82097619D01*
X153931904Y-82145238D01*
X153646190Y-82145238D01*
X153550952Y-82097619D01*
X153503333Y-82050000D01*
X153455714Y-81954761D01*
X153455714Y-81764285D01*
X153503333Y-81669047D01*
X154122380Y-81050000D02*
X154074761Y-81145238D01*
X153979523Y-81192857D01*
X153122380Y-81192857D01*
X154074761Y-80288095D02*
X154122380Y-80383333D01*
X154122380Y-80573809D01*
X154074761Y-80669047D01*
X153979523Y-80716666D01*
X153598571Y-80716666D01*
X153503333Y-80669047D01*
X153455714Y-80573809D01*
X153455714Y-80383333D01*
X153503333Y-80288095D01*
X153598571Y-80240476D01*
X153693809Y-80240476D01*
X153789047Y-80716666D01*
X154122380Y-79811904D02*
X153455714Y-79811904D01*
X153646190Y-79811904D02*
X153550952Y-79764285D01*
X153503333Y-79716666D01*
X153455714Y-79621428D01*
X153455714Y-79526190D01*
X154027142Y-79192857D02*
X154074761Y-79145238D01*
X154122380Y-79192857D01*
X154074761Y-79240476D01*
X154027142Y-79192857D01*
X154122380Y-79192857D01*
X153455714Y-78288095D02*
X154122380Y-78288095D01*
X153455714Y-78716666D02*
X153979523Y-78716666D01*
X154074761Y-78669047D01*
X154122380Y-78573809D01*
X154122380Y-78430952D01*
X154074761Y-78335714D01*
X154027142Y-78288095D01*
X154122380Y-77811904D02*
X153122380Y-77811904D01*
X153741428Y-77716666D02*
X154122380Y-77430952D01*
X153455714Y-77430952D02*
X153836666Y-77811904D01*
X93299047Y-52435238D02*
X93394285Y-52340000D01*
X93584761Y-52244761D01*
X94060952Y-52244761D01*
X94251428Y-52340000D01*
X94346666Y-52435238D01*
X94441904Y-52625714D01*
X94441904Y-52816190D01*
X94346666Y-53101904D01*
X93203809Y-54244761D01*
X94441904Y-54244761D01*
X96346666Y-54244761D02*
X95203809Y-54244761D01*
X95775238Y-54244761D02*
X95775238Y-52244761D01*
X95584761Y-52530476D01*
X95394285Y-52720952D01*
X95203809Y-52816190D01*
X98251428Y-54244761D02*
X97108571Y-54244761D01*
X97680000Y-54244761D02*
X97680000Y-52244761D01*
X97489523Y-52530476D01*
X97299047Y-52720952D01*
X97108571Y-52816190D01*
X99965714Y-52911428D02*
X99965714Y-54244761D01*
X99489523Y-52149523D02*
X99013333Y-53578095D01*
X100251428Y-53578095D01*
X102441904Y-54149523D02*
X102727619Y-54244761D01*
X103203809Y-54244761D01*
X103394285Y-54149523D01*
X103489523Y-54054285D01*
X103584761Y-53863809D01*
X103584761Y-53673333D01*
X103489523Y-53482857D01*
X103394285Y-53387619D01*
X103203809Y-53292380D01*
X102822857Y-53197142D01*
X102632380Y-53101904D01*
X102537142Y-53006666D01*
X102441904Y-52816190D01*
X102441904Y-52625714D01*
X102537142Y-52435238D01*
X102632380Y-52340000D01*
X102822857Y-52244761D01*
X103299047Y-52244761D01*
X103584761Y-52340000D01*
X105584761Y-54244761D02*
X104918095Y-53292380D01*
X104441904Y-54244761D02*
X104441904Y-52244761D01*
X105203809Y-52244761D01*
X105394285Y-52340000D01*
X105489523Y-52435238D01*
X105584761Y-52625714D01*
X105584761Y-52911428D01*
X105489523Y-53101904D01*
X105394285Y-53197142D01*
X105203809Y-53292380D01*
X104441904Y-53292380D01*
X106346666Y-53673333D02*
X107299047Y-53673333D01*
X106156190Y-54244761D02*
X106822857Y-52244761D01*
X107489523Y-54244761D01*
X108156190Y-54244761D02*
X108156190Y-52244761D01*
X108822857Y-53673333D01*
X109489523Y-52244761D01*
X109489523Y-54244761D01*
X111680000Y-52244761D02*
X112822857Y-52244761D01*
X112251428Y-54244761D02*
X112251428Y-52244761D01*
X114251428Y-54149523D02*
X114060952Y-54244761D01*
X113680000Y-54244761D01*
X113489523Y-54149523D01*
X113394285Y-53959047D01*
X113394285Y-53197142D01*
X113489523Y-53006666D01*
X113680000Y-52911428D01*
X114060952Y-52911428D01*
X114251428Y-53006666D01*
X114346666Y-53197142D01*
X114346666Y-53387619D01*
X113394285Y-53578095D01*
X115108571Y-54149523D02*
X115299047Y-54244761D01*
X115680000Y-54244761D01*
X115870476Y-54149523D01*
X115965714Y-53959047D01*
X115965714Y-53863809D01*
X115870476Y-53673333D01*
X115680000Y-53578095D01*
X115394285Y-53578095D01*
X115203809Y-53482857D01*
X115108571Y-53292380D01*
X115108571Y-53197142D01*
X115203809Y-53006666D01*
X115394285Y-52911428D01*
X115680000Y-52911428D01*
X115870476Y-53006666D01*
X116537142Y-52911428D02*
X117299047Y-52911428D01*
X116822857Y-52244761D02*
X116822857Y-53959047D01*
X116918095Y-54149523D01*
X117108571Y-54244761D01*
X117299047Y-54244761D01*
X118727619Y-54149523D02*
X118537142Y-54244761D01*
X118156190Y-54244761D01*
X117965714Y-54149523D01*
X117870476Y-53959047D01*
X117870476Y-53197142D01*
X117965714Y-53006666D01*
X118156190Y-52911428D01*
X118537142Y-52911428D01*
X118727619Y-53006666D01*
X118822857Y-53197142D01*
X118822857Y-53387619D01*
X117870476Y-53578095D01*
X119680000Y-54244761D02*
X119680000Y-52911428D01*
X119680000Y-53292380D02*
X119775238Y-53101904D01*
X119870476Y-53006666D01*
X120060952Y-52911428D01*
X120251428Y-52911428D01*
X98275238Y-106672619D02*
X98322857Y-106625000D01*
X98418095Y-106577380D01*
X98656190Y-106577380D01*
X98751428Y-106625000D01*
X98799047Y-106672619D01*
X98846666Y-106767857D01*
X98846666Y-106863095D01*
X98799047Y-107005952D01*
X98227619Y-107577380D01*
X98846666Y-107577380D01*
X99799047Y-107577380D02*
X99227619Y-107577380D01*
X99513333Y-107577380D02*
X99513333Y-106577380D01*
X99418095Y-106720238D01*
X99322857Y-106815476D01*
X99227619Y-106863095D01*
X100751428Y-107577380D02*
X100180000Y-107577380D01*
X100465714Y-107577380D02*
X100465714Y-106577380D01*
X100370476Y-106720238D01*
X100275238Y-106815476D01*
X100180000Y-106863095D01*
X101608571Y-106910714D02*
X101608571Y-107577380D01*
X101370476Y-106529761D02*
X101132380Y-107244047D01*
X101751428Y-107244047D01*
X102846666Y-107529761D02*
X102989523Y-107577380D01*
X103227619Y-107577380D01*
X103322857Y-107529761D01*
X103370476Y-107482142D01*
X103418095Y-107386904D01*
X103418095Y-107291666D01*
X103370476Y-107196428D01*
X103322857Y-107148809D01*
X103227619Y-107101190D01*
X103037142Y-107053571D01*
X102941904Y-107005952D01*
X102894285Y-106958333D01*
X102846666Y-106863095D01*
X102846666Y-106767857D01*
X102894285Y-106672619D01*
X102941904Y-106625000D01*
X103037142Y-106577380D01*
X103275238Y-106577380D01*
X103418095Y-106625000D01*
X104418095Y-107577380D02*
X104084761Y-107101190D01*
X103846666Y-107577380D02*
X103846666Y-106577380D01*
X104227619Y-106577380D01*
X104322857Y-106625000D01*
X104370476Y-106672619D01*
X104418095Y-106767857D01*
X104418095Y-106910714D01*
X104370476Y-107005952D01*
X104322857Y-107053571D01*
X104227619Y-107101190D01*
X103846666Y-107101190D01*
X104799047Y-107291666D02*
X105275238Y-107291666D01*
X104703809Y-107577380D02*
X105037142Y-106577380D01*
X105370476Y-107577380D01*
X105703809Y-107577380D02*
X105703809Y-106577380D01*
X106037142Y-107291666D01*
X106370476Y-106577380D01*
X106370476Y-107577380D01*
X107465714Y-106577380D02*
X108037142Y-106577380D01*
X107751428Y-107577380D02*
X107751428Y-106577380D01*
X108751428Y-107529761D02*
X108656190Y-107577380D01*
X108465714Y-107577380D01*
X108370476Y-107529761D01*
X108322857Y-107434523D01*
X108322857Y-107053571D01*
X108370476Y-106958333D01*
X108465714Y-106910714D01*
X108656190Y-106910714D01*
X108751428Y-106958333D01*
X108799047Y-107053571D01*
X108799047Y-107148809D01*
X108322857Y-107244047D01*
X109180000Y-107529761D02*
X109275238Y-107577380D01*
X109465714Y-107577380D01*
X109560952Y-107529761D01*
X109608571Y-107434523D01*
X109608571Y-107386904D01*
X109560952Y-107291666D01*
X109465714Y-107244047D01*
X109322857Y-107244047D01*
X109227619Y-107196428D01*
X109180000Y-107101190D01*
X109180000Y-107053571D01*
X109227619Y-106958333D01*
X109322857Y-106910714D01*
X109465714Y-106910714D01*
X109560952Y-106958333D01*
X109894285Y-106910714D02*
X110275238Y-106910714D01*
X110037142Y-106577380D02*
X110037142Y-107434523D01*
X110084761Y-107529761D01*
X110180000Y-107577380D01*
X110275238Y-107577380D01*
X110989523Y-107529761D02*
X110894285Y-107577380D01*
X110703809Y-107577380D01*
X110608571Y-107529761D01*
X110560952Y-107434523D01*
X110560952Y-107053571D01*
X110608571Y-106958333D01*
X110703809Y-106910714D01*
X110894285Y-106910714D01*
X110989523Y-106958333D01*
X111037142Y-107053571D01*
X111037142Y-107148809D01*
X110560952Y-107244047D01*
X111465714Y-107577380D02*
X111465714Y-106910714D01*
X111465714Y-107101190D02*
X111513333Y-107005952D01*
X111560952Y-106958333D01*
X111656190Y-106910714D01*
X111751428Y-106910714D01*
X112751428Y-106910714D02*
X112989523Y-107577380D01*
X113227619Y-106910714D01*
X113799047Y-106577380D02*
X113894285Y-106577380D01*
X113989523Y-106625000D01*
X114037142Y-106672619D01*
X114084761Y-106767857D01*
X114132380Y-106958333D01*
X114132380Y-107196428D01*
X114084761Y-107386904D01*
X114037142Y-107482142D01*
X113989523Y-107529761D01*
X113894285Y-107577380D01*
X113799047Y-107577380D01*
X113703809Y-107529761D01*
X113656190Y-107482142D01*
X113608571Y-107386904D01*
X113560952Y-107196428D01*
X113560952Y-106958333D01*
X113608571Y-106767857D01*
X113656190Y-106672619D01*
X113703809Y-106625000D01*
X113799047Y-106577380D01*
X115084761Y-107577380D02*
X114513333Y-107577380D01*
X114799047Y-107577380D02*
X114799047Y-106577380D01*
X114703809Y-106720238D01*
X114608571Y-106815476D01*
X114513333Y-106863095D01*
X99180000Y-108703571D02*
X99322857Y-108751190D01*
X99370476Y-108798809D01*
X99418095Y-108894047D01*
X99418095Y-109036904D01*
X99370476Y-109132142D01*
X99322857Y-109179761D01*
X99227619Y-109227380D01*
X98846666Y-109227380D01*
X98846666Y-108227380D01*
X99180000Y-108227380D01*
X99275238Y-108275000D01*
X99322857Y-108322619D01*
X99370476Y-108417857D01*
X99370476Y-108513095D01*
X99322857Y-108608333D01*
X99275238Y-108655952D01*
X99180000Y-108703571D01*
X98846666Y-108703571D01*
X99751428Y-108560714D02*
X99989523Y-109227380D01*
X100227619Y-108560714D02*
X99989523Y-109227380D01*
X99894285Y-109465476D01*
X99846666Y-109513095D01*
X99751428Y-109560714D01*
X101894285Y-108275000D02*
X101799047Y-108227380D01*
X101656190Y-108227380D01*
X101513333Y-108275000D01*
X101418095Y-108370238D01*
X101370476Y-108465476D01*
X101322857Y-108655952D01*
X101322857Y-108798809D01*
X101370476Y-108989285D01*
X101418095Y-109084523D01*
X101513333Y-109179761D01*
X101656190Y-109227380D01*
X101751428Y-109227380D01*
X101894285Y-109179761D01*
X101941904Y-109132142D01*
X101941904Y-108798809D01*
X101751428Y-108798809D01*
X102370476Y-109132142D02*
X102418095Y-109179761D01*
X102370476Y-109227380D01*
X102322857Y-109179761D01*
X102370476Y-109132142D01*
X102370476Y-109227380D01*
X102846666Y-109227380D02*
X102846666Y-108227380D01*
X103227619Y-108227380D01*
X103322857Y-108275000D01*
X103370476Y-108322619D01*
X103418095Y-108417857D01*
X103418095Y-108560714D01*
X103370476Y-108655952D01*
X103322857Y-108703571D01*
X103227619Y-108751190D01*
X102846666Y-108751190D01*
X103846666Y-109227380D02*
X103846666Y-108560714D01*
X103846666Y-108227380D02*
X103799047Y-108275000D01*
X103846666Y-108322619D01*
X103894285Y-108275000D01*
X103846666Y-108227380D01*
X103846666Y-108322619D01*
X104322857Y-109227380D02*
X104322857Y-108560714D01*
X104322857Y-108655952D02*
X104370476Y-108608333D01*
X104465714Y-108560714D01*
X104608571Y-108560714D01*
X104703809Y-108608333D01*
X104751428Y-108703571D01*
X104751428Y-109227380D01*
X104751428Y-108703571D02*
X104799047Y-108608333D01*
X104894285Y-108560714D01*
X105037142Y-108560714D01*
X105132380Y-108608333D01*
X105180000Y-108703571D01*
X105180000Y-109227380D01*
X105656190Y-109227380D02*
X105656190Y-108227380D01*
X105656190Y-108608333D02*
X105751428Y-108560714D01*
X105941904Y-108560714D01*
X106037142Y-108608333D01*
X106084761Y-108655952D01*
X106132380Y-108751190D01*
X106132380Y-109036904D01*
X106084761Y-109132142D01*
X106037142Y-109179761D01*
X105941904Y-109227380D01*
X105751428Y-109227380D01*
X105656190Y-109179761D01*
X106703809Y-109227380D02*
X106608571Y-109179761D01*
X106560952Y-109084523D01*
X106560952Y-108227380D01*
X107227619Y-109227380D02*
X107132380Y-109179761D01*
X107084761Y-109132142D01*
X107037142Y-109036904D01*
X107037142Y-108751190D01*
X107084761Y-108655952D01*
X107132380Y-108608333D01*
X107227619Y-108560714D01*
X107370476Y-108560714D01*
X107465714Y-108608333D01*
X107513333Y-108655952D01*
X107560952Y-108751190D01*
X107560952Y-109036904D01*
X107513333Y-109132142D01*
X107465714Y-109179761D01*
X107370476Y-109227380D01*
X107227619Y-109227380D01*
X107846666Y-108560714D02*
X108227619Y-108560714D01*
X107989523Y-108227380D02*
X107989523Y-109084523D01*
X108037142Y-109179761D01*
X108132380Y-109227380D01*
X108227619Y-109227380D01*
X108418095Y-108560714D02*
X108799047Y-108560714D01*
X108560952Y-108227380D02*
X108560952Y-109084523D01*
X108608571Y-109179761D01*
X108703809Y-109227380D01*
X108799047Y-109227380D01*
X110513333Y-108751190D02*
X110465714Y-108703571D01*
X110370476Y-108655952D01*
X110275238Y-108655952D01*
X110180000Y-108703571D01*
X110132380Y-108751190D01*
X110084761Y-108846428D01*
X110084761Y-108941666D01*
X110132380Y-109036904D01*
X110180000Y-109084523D01*
X110275238Y-109132142D01*
X110370476Y-109132142D01*
X110465714Y-109084523D01*
X110513333Y-109036904D01*
X110513333Y-108655952D02*
X110513333Y-109036904D01*
X110560952Y-109084523D01*
X110608571Y-109084523D01*
X110703809Y-109036904D01*
X110751428Y-108941666D01*
X110751428Y-108703571D01*
X110656190Y-108560714D01*
X110513333Y-108465476D01*
X110322857Y-108417857D01*
X110132380Y-108465476D01*
X109989523Y-108560714D01*
X109894285Y-108703571D01*
X109846666Y-108894047D01*
X109894285Y-109084523D01*
X109989523Y-109227380D01*
X110132380Y-109322619D01*
X110322857Y-109370238D01*
X110513333Y-109322619D01*
X110656190Y-109227380D01*
X111132380Y-108322619D02*
X111180000Y-108275000D01*
X111275238Y-108227380D01*
X111513333Y-108227380D01*
X111608571Y-108275000D01*
X111656190Y-108322619D01*
X111703809Y-108417857D01*
X111703809Y-108513095D01*
X111656190Y-108655952D01*
X111084761Y-109227380D01*
X111703809Y-109227380D01*
X112322857Y-108227380D02*
X112418095Y-108227380D01*
X112513333Y-108275000D01*
X112560952Y-108322619D01*
X112608571Y-108417857D01*
X112656190Y-108608333D01*
X112656190Y-108846428D01*
X112608571Y-109036904D01*
X112560952Y-109132142D01*
X112513333Y-109179761D01*
X112418095Y-109227380D01*
X112322857Y-109227380D01*
X112227619Y-109179761D01*
X112180000Y-109132142D01*
X112132380Y-109036904D01*
X112084761Y-108846428D01*
X112084761Y-108608333D01*
X112132380Y-108417857D01*
X112180000Y-108322619D01*
X112227619Y-108275000D01*
X112322857Y-108227380D01*
X113037142Y-108322619D02*
X113084761Y-108275000D01*
X113180000Y-108227380D01*
X113418095Y-108227380D01*
X113513333Y-108275000D01*
X113560952Y-108322619D01*
X113608571Y-108417857D01*
X113608571Y-108513095D01*
X113560952Y-108655952D01*
X112989523Y-109227380D01*
X113608571Y-109227380D01*
X114560952Y-109227380D02*
X113989523Y-109227380D01*
X114275238Y-109227380D02*
X114275238Y-108227380D01*
X114180000Y-108370238D01*
X114084761Y-108465476D01*
X113989523Y-108513095D01*
D11*
%TO.C,REF\u002A\u002A*%
G36*
X152278823Y-56884533D02*
G01*
X152310202Y-56906776D01*
X152337911Y-56934485D01*
X152337911Y-57243920D01*
X152337838Y-57335799D01*
X152337495Y-57407840D01*
X152336692Y-57462780D01*
X152335241Y-57503360D01*
X152332952Y-57532317D01*
X152329636Y-57552391D01*
X152325105Y-57566321D01*
X152319169Y-57576845D01*
X152314514Y-57583100D01*
X152283783Y-57607673D01*
X152248496Y-57610341D01*
X152216245Y-57595271D01*
X152205588Y-57586374D01*
X152198464Y-57574557D01*
X152194167Y-57555526D01*
X152191991Y-57524992D01*
X152191228Y-57478662D01*
X152191155Y-57442871D01*
X152191155Y-57308045D01*
X151694444Y-57308045D01*
X151694444Y-57430700D01*
X151693931Y-57486787D01*
X151691876Y-57525333D01*
X151687508Y-57551361D01*
X151680056Y-57569897D01*
X151671047Y-57583100D01*
X151640144Y-57607604D01*
X151605196Y-57610506D01*
X151571738Y-57593089D01*
X151562604Y-57583959D01*
X151556152Y-57571855D01*
X151551897Y-57553001D01*
X151549352Y-57523620D01*
X151548029Y-57479937D01*
X151547443Y-57418175D01*
X151547375Y-57404000D01*
X151546891Y-57287631D01*
X151546641Y-57191727D01*
X151546723Y-57114177D01*
X151547231Y-57052869D01*
X151548262Y-57005690D01*
X151549913Y-56970530D01*
X151552279Y-56945276D01*
X151555457Y-56927817D01*
X151559544Y-56916041D01*
X151564634Y-56907835D01*
X151570266Y-56901645D01*
X151602128Y-56881844D01*
X151635357Y-56884533D01*
X151666735Y-56906776D01*
X151679433Y-56921126D01*
X151687526Y-56936978D01*
X151692042Y-56959554D01*
X151694006Y-56994078D01*
X151694444Y-57045776D01*
X151694444Y-57161289D01*
X152191155Y-57161289D01*
X152191155Y-57042756D01*
X152191662Y-56988148D01*
X152193698Y-56951275D01*
X152198035Y-56927307D01*
X152205447Y-56911415D01*
X152213733Y-56901645D01*
X152245594Y-56881844D01*
X152278823Y-56884533D01*
G37*
X152278823Y-56884533D02*
X152310202Y-56906776D01*
X152337911Y-56934485D01*
X152337911Y-57243920D01*
X152337838Y-57335799D01*
X152337495Y-57407840D01*
X152336692Y-57462780D01*
X152335241Y-57503360D01*
X152332952Y-57532317D01*
X152329636Y-57552391D01*
X152325105Y-57566321D01*
X152319169Y-57576845D01*
X152314514Y-57583100D01*
X152283783Y-57607673D01*
X152248496Y-57610341D01*
X152216245Y-57595271D01*
X152205588Y-57586374D01*
X152198464Y-57574557D01*
X152194167Y-57555526D01*
X152191991Y-57524992D01*
X152191228Y-57478662D01*
X152191155Y-57442871D01*
X152191155Y-57308045D01*
X151694444Y-57308045D01*
X151694444Y-57430700D01*
X151693931Y-57486787D01*
X151691876Y-57525333D01*
X151687508Y-57551361D01*
X151680056Y-57569897D01*
X151671047Y-57583100D01*
X151640144Y-57607604D01*
X151605196Y-57610506D01*
X151571738Y-57593089D01*
X151562604Y-57583959D01*
X151556152Y-57571855D01*
X151551897Y-57553001D01*
X151549352Y-57523620D01*
X151548029Y-57479937D01*
X151547443Y-57418175D01*
X151547375Y-57404000D01*
X151546891Y-57287631D01*
X151546641Y-57191727D01*
X151546723Y-57114177D01*
X151547231Y-57052869D01*
X151548262Y-57005690D01*
X151549913Y-56970530D01*
X151552279Y-56945276D01*
X151555457Y-56927817D01*
X151559544Y-56916041D01*
X151564634Y-56907835D01*
X151570266Y-56901645D01*
X151602128Y-56881844D01*
X151635357Y-56884533D01*
X151666735Y-56906776D01*
X151679433Y-56921126D01*
X151687526Y-56936978D01*
X151692042Y-56959554D01*
X151694006Y-56994078D01*
X151694444Y-57045776D01*
X151694444Y-57161289D01*
X152191155Y-57161289D01*
X152191155Y-57042756D01*
X152191662Y-56988148D01*
X152193698Y-56951275D01*
X152198035Y-56927307D01*
X152205447Y-56911415D01*
X152213733Y-56901645D01*
X152245594Y-56881844D01*
X152278823Y-56884533D01*
G36*
X151013065Y-56879163D02*
G01*
X151091772Y-56879542D01*
X151152863Y-56880333D01*
X151198817Y-56881670D01*
X151232114Y-56883683D01*
X151255236Y-56886506D01*
X151270662Y-56890269D01*
X151280871Y-56895105D01*
X151285813Y-56898822D01*
X151311457Y-56931358D01*
X151314559Y-56965138D01*
X151298711Y-56995826D01*
X151288348Y-57008089D01*
X151277196Y-57016450D01*
X151261035Y-57021657D01*
X151235642Y-57024457D01*
X151196798Y-57025596D01*
X151140280Y-57025821D01*
X151129180Y-57025822D01*
X150983244Y-57025822D01*
X150983244Y-57296756D01*
X150983148Y-57382154D01*
X150982711Y-57447864D01*
X150981712Y-57496774D01*
X150979928Y-57531773D01*
X150977137Y-57555749D01*
X150973117Y-57571593D01*
X150967645Y-57582191D01*
X150960666Y-57590267D01*
X150927734Y-57610112D01*
X150893354Y-57608548D01*
X150862176Y-57585906D01*
X150859886Y-57583100D01*
X150852429Y-57572492D01*
X150846747Y-57560081D01*
X150842601Y-57542850D01*
X150839750Y-57517784D01*
X150837954Y-57481867D01*
X150836972Y-57432083D01*
X150836564Y-57365417D01*
X150836489Y-57289589D01*
X150836489Y-57025822D01*
X150697127Y-57025822D01*
X150637322Y-57025418D01*
X150595918Y-57023840D01*
X150568748Y-57020547D01*
X150551646Y-57014992D01*
X150540443Y-57006631D01*
X150539083Y-57005178D01*
X150522725Y-56971939D01*
X150524172Y-56934362D01*
X150542978Y-56901645D01*
X150550250Y-56895298D01*
X150559627Y-56890266D01*
X150573609Y-56886396D01*
X150594696Y-56883537D01*
X150625389Y-56881535D01*
X150668189Y-56880239D01*
X150725595Y-56879498D01*
X150800110Y-56879158D01*
X150894233Y-56879068D01*
X150914260Y-56879067D01*
X151013065Y-56879163D01*
G37*
X151013065Y-56879163D02*
X151091772Y-56879542D01*
X151152863Y-56880333D01*
X151198817Y-56881670D01*
X151232114Y-56883683D01*
X151255236Y-56886506D01*
X151270662Y-56890269D01*
X151280871Y-56895105D01*
X151285813Y-56898822D01*
X151311457Y-56931358D01*
X151314559Y-56965138D01*
X151298711Y-56995826D01*
X151288348Y-57008089D01*
X151277196Y-57016450D01*
X151261035Y-57021657D01*
X151235642Y-57024457D01*
X151196798Y-57025596D01*
X151140280Y-57025821D01*
X151129180Y-57025822D01*
X150983244Y-57025822D01*
X150983244Y-57296756D01*
X150983148Y-57382154D01*
X150982711Y-57447864D01*
X150981712Y-57496774D01*
X150979928Y-57531773D01*
X150977137Y-57555749D01*
X150973117Y-57571593D01*
X150967645Y-57582191D01*
X150960666Y-57590267D01*
X150927734Y-57610112D01*
X150893354Y-57608548D01*
X150862176Y-57585906D01*
X150859886Y-57583100D01*
X150852429Y-57572492D01*
X150846747Y-57560081D01*
X150842601Y-57542850D01*
X150839750Y-57517784D01*
X150837954Y-57481867D01*
X150836972Y-57432083D01*
X150836564Y-57365417D01*
X150836489Y-57289589D01*
X150836489Y-57025822D01*
X150697127Y-57025822D01*
X150637322Y-57025418D01*
X150595918Y-57023840D01*
X150568748Y-57020547D01*
X150551646Y-57014992D01*
X150540443Y-57006631D01*
X150539083Y-57005178D01*
X150522725Y-56971939D01*
X150524172Y-56934362D01*
X150542978Y-56901645D01*
X150550250Y-56895298D01*
X150559627Y-56890266D01*
X150573609Y-56886396D01*
X150594696Y-56883537D01*
X150625389Y-56881535D01*
X150668189Y-56880239D01*
X150725595Y-56879498D01*
X150800110Y-56879158D01*
X150894233Y-56879068D01*
X150914260Y-56879067D01*
X151013065Y-56879163D01*
G36*
X150238614Y-56885877D02*
G01*
X150262327Y-56900647D01*
X150288978Y-56922227D01*
X150288978Y-57243773D01*
X150288893Y-57337830D01*
X150288529Y-57411932D01*
X150287724Y-57468704D01*
X150286313Y-57510768D01*
X150284133Y-57540748D01*
X150281021Y-57561267D01*
X150276814Y-57574949D01*
X150271348Y-57584416D01*
X150267472Y-57589082D01*
X150236034Y-57609575D01*
X150200233Y-57608739D01*
X150168873Y-57591264D01*
X150142222Y-57569684D01*
X150142222Y-56922227D01*
X150168873Y-56900647D01*
X150194594Y-56884949D01*
X150215600Y-56879067D01*
X150238614Y-56885877D01*
G37*
X150238614Y-56885877D02*
X150262327Y-56900647D01*
X150288978Y-56922227D01*
X150288978Y-57243773D01*
X150288893Y-57337830D01*
X150288529Y-57411932D01*
X150287724Y-57468704D01*
X150286313Y-57510768D01*
X150284133Y-57540748D01*
X150281021Y-57561267D01*
X150276814Y-57574949D01*
X150271348Y-57584416D01*
X150267472Y-57589082D01*
X150236034Y-57609575D01*
X150200233Y-57608739D01*
X150168873Y-57591264D01*
X150142222Y-57569684D01*
X150142222Y-56922227D01*
X150168873Y-56900647D01*
X150194594Y-56884949D01*
X150215600Y-56879067D01*
X150238614Y-56885877D01*
G36*
X149794665Y-56881034D02*
G01*
X149814255Y-56888035D01*
X149815010Y-56888377D01*
X149841613Y-56908678D01*
X149856270Y-56929561D01*
X149859138Y-56939352D01*
X149858996Y-56952361D01*
X149854961Y-56970895D01*
X149846146Y-56997257D01*
X149831669Y-57033752D01*
X149810645Y-57082687D01*
X149782188Y-57146365D01*
X149745415Y-57227093D01*
X149725175Y-57271216D01*
X149688625Y-57349985D01*
X149654315Y-57422423D01*
X149623552Y-57485880D01*
X149597648Y-57537708D01*
X149577910Y-57575259D01*
X149565650Y-57595884D01*
X149563224Y-57598733D01*
X149532183Y-57611302D01*
X149497121Y-57609619D01*
X149469000Y-57594332D01*
X149467854Y-57593089D01*
X149456668Y-57576154D01*
X149437904Y-57543170D01*
X149413875Y-57498380D01*
X149386897Y-57446032D01*
X149377201Y-57426742D01*
X149304014Y-57280150D01*
X149224240Y-57439393D01*
X149195767Y-57494415D01*
X149169350Y-57542132D01*
X149147148Y-57578893D01*
X149131319Y-57601044D01*
X149125954Y-57605741D01*
X149084257Y-57612102D01*
X149049849Y-57598733D01*
X149039728Y-57584446D01*
X149022214Y-57552692D01*
X148998735Y-57506597D01*
X148970720Y-57449285D01*
X148939599Y-57383880D01*
X148906799Y-57313507D01*
X148873750Y-57241291D01*
X148841881Y-57170355D01*
X148812619Y-57103825D01*
X148787395Y-57044826D01*
X148767636Y-56996481D01*
X148754772Y-56961915D01*
X148750231Y-56944253D01*
X148750277Y-56943613D01*
X148761326Y-56921388D01*
X148783410Y-56898753D01*
X148784710Y-56897768D01*
X148811853Y-56882425D01*
X148836958Y-56882574D01*
X148846368Y-56885466D01*
X148857834Y-56891718D01*
X148870010Y-56904014D01*
X148884357Y-56924908D01*
X148902336Y-56956949D01*
X148925407Y-57002688D01*
X148955030Y-57064677D01*
X148981745Y-57121898D01*
X149012480Y-57188226D01*
X149040021Y-57247874D01*
X149062938Y-57297725D01*
X149079798Y-57334664D01*
X149089173Y-57355573D01*
X149090540Y-57358845D01*
X149096689Y-57353497D01*
X149110822Y-57331109D01*
X149131057Y-57294946D01*
X149155515Y-57248277D01*
X149165248Y-57229022D01*
X149198217Y-57164004D01*
X149223643Y-57116654D01*
X149243612Y-57084219D01*
X149260210Y-57063946D01*
X149275524Y-57053082D01*
X149291640Y-57048875D01*
X149302143Y-57048400D01*
X149320670Y-57050042D01*
X149336904Y-57056831D01*
X149353035Y-57071566D01*
X149371251Y-57097044D01*
X149393739Y-57136061D01*
X149422689Y-57191414D01*
X149438662Y-57222903D01*
X149464570Y-57273087D01*
X149487167Y-57314704D01*
X149504458Y-57344242D01*
X149514450Y-57358189D01*
X149515809Y-57358770D01*
X149522261Y-57347793D01*
X149536708Y-57319290D01*
X149557703Y-57276244D01*
X149583797Y-57221638D01*
X149613546Y-57158454D01*
X149628180Y-57127071D01*
X149666250Y-57046078D01*
X149696905Y-56983756D01*
X149721737Y-56938071D01*
X149742337Y-56906989D01*
X149760298Y-56888478D01*
X149777210Y-56880504D01*
X149794665Y-56881034D01*
G37*
X149794665Y-56881034D02*
X149814255Y-56888035D01*
X149815010Y-56888377D01*
X149841613Y-56908678D01*
X149856270Y-56929561D01*
X149859138Y-56939352D01*
X149858996Y-56952361D01*
X149854961Y-56970895D01*
X149846146Y-56997257D01*
X149831669Y-57033752D01*
X149810645Y-57082687D01*
X149782188Y-57146365D01*
X149745415Y-57227093D01*
X149725175Y-57271216D01*
X149688625Y-57349985D01*
X149654315Y-57422423D01*
X149623552Y-57485880D01*
X149597648Y-57537708D01*
X149577910Y-57575259D01*
X149565650Y-57595884D01*
X149563224Y-57598733D01*
X149532183Y-57611302D01*
X149497121Y-57609619D01*
X149469000Y-57594332D01*
X149467854Y-57593089D01*
X149456668Y-57576154D01*
X149437904Y-57543170D01*
X149413875Y-57498380D01*
X149386897Y-57446032D01*
X149377201Y-57426742D01*
X149304014Y-57280150D01*
X149224240Y-57439393D01*
X149195767Y-57494415D01*
X149169350Y-57542132D01*
X149147148Y-57578893D01*
X149131319Y-57601044D01*
X149125954Y-57605741D01*
X149084257Y-57612102D01*
X149049849Y-57598733D01*
X149039728Y-57584446D01*
X149022214Y-57552692D01*
X148998735Y-57506597D01*
X148970720Y-57449285D01*
X148939599Y-57383880D01*
X148906799Y-57313507D01*
X148873750Y-57241291D01*
X148841881Y-57170355D01*
X148812619Y-57103825D01*
X148787395Y-57044826D01*
X148767636Y-56996481D01*
X148754772Y-56961915D01*
X148750231Y-56944253D01*
X148750277Y-56943613D01*
X148761326Y-56921388D01*
X148783410Y-56898753D01*
X148784710Y-56897768D01*
X148811853Y-56882425D01*
X148836958Y-56882574D01*
X148846368Y-56885466D01*
X148857834Y-56891718D01*
X148870010Y-56904014D01*
X148884357Y-56924908D01*
X148902336Y-56956949D01*
X148925407Y-57002688D01*
X148955030Y-57064677D01*
X148981745Y-57121898D01*
X149012480Y-57188226D01*
X149040021Y-57247874D01*
X149062938Y-57297725D01*
X149079798Y-57334664D01*
X149089173Y-57355573D01*
X149090540Y-57358845D01*
X149096689Y-57353497D01*
X149110822Y-57331109D01*
X149131057Y-57294946D01*
X149155515Y-57248277D01*
X149165248Y-57229022D01*
X149198217Y-57164004D01*
X149223643Y-57116654D01*
X149243612Y-57084219D01*
X149260210Y-57063946D01*
X149275524Y-57053082D01*
X149291640Y-57048875D01*
X149302143Y-57048400D01*
X149320670Y-57050042D01*
X149336904Y-57056831D01*
X149353035Y-57071566D01*
X149371251Y-57097044D01*
X149393739Y-57136061D01*
X149422689Y-57191414D01*
X149438662Y-57222903D01*
X149464570Y-57273087D01*
X149487167Y-57314704D01*
X149504458Y-57344242D01*
X149514450Y-57358189D01*
X149515809Y-57358770D01*
X149522261Y-57347793D01*
X149536708Y-57319290D01*
X149557703Y-57276244D01*
X149583797Y-57221638D01*
X149613546Y-57158454D01*
X149628180Y-57127071D01*
X149666250Y-57046078D01*
X149696905Y-56983756D01*
X149721737Y-56938071D01*
X149742337Y-56906989D01*
X149760298Y-56888478D01*
X149777210Y-56880504D01*
X149794665Y-56881034D01*
G36*
X147068309Y-56879275D02*
G01*
X147197288Y-56883636D01*
X147306991Y-56896861D01*
X147399226Y-56919741D01*
X147475802Y-56953070D01*
X147538527Y-56997638D01*
X147589212Y-57054236D01*
X147629663Y-57123658D01*
X147630459Y-57125351D01*
X147654601Y-57187483D01*
X147663203Y-57242509D01*
X147656231Y-57297887D01*
X147633654Y-57361073D01*
X147629372Y-57370689D01*
X147600172Y-57426966D01*
X147567356Y-57470451D01*
X147525002Y-57507417D01*
X147467190Y-57544135D01*
X147463831Y-57546052D01*
X147413504Y-57570227D01*
X147356621Y-57588282D01*
X147289527Y-57600839D01*
X147208565Y-57608522D01*
X147110082Y-57611953D01*
X147075286Y-57612251D01*
X146909594Y-57612845D01*
X146886197Y-57583100D01*
X146879257Y-57573319D01*
X146873842Y-57561897D01*
X146869765Y-57546095D01*
X146866837Y-57523175D01*
X146864867Y-57490396D01*
X146864225Y-57466089D01*
X147020844Y-57466089D01*
X147114726Y-57466089D01*
X147169664Y-57464483D01*
X147226060Y-57460255D01*
X147272345Y-57454292D01*
X147275139Y-57453790D01*
X147357348Y-57431736D01*
X147421114Y-57398600D01*
X147468452Y-57352847D01*
X147501382Y-57292939D01*
X147507108Y-57277061D01*
X147512721Y-57252333D01*
X147510291Y-57227902D01*
X147498467Y-57195400D01*
X147491340Y-57179434D01*
X147468000Y-57137006D01*
X147439880Y-57107240D01*
X147408940Y-57086511D01*
X147346966Y-57059537D01*
X147267651Y-57039998D01*
X147175253Y-57028746D01*
X147108333Y-57026270D01*
X147020844Y-57025822D01*
X147020844Y-57466089D01*
X146864225Y-57466089D01*
X146863668Y-57445021D01*
X146863050Y-57384311D01*
X146862825Y-57305526D01*
X146862800Y-57243920D01*
X146862800Y-56934485D01*
X146890509Y-56906776D01*
X146902806Y-56895544D01*
X146916103Y-56887853D01*
X146934672Y-56883040D01*
X146962786Y-56880446D01*
X147004717Y-56879410D01*
X147064737Y-56879270D01*
X147068309Y-56879275D01*
G37*
X147068309Y-56879275D02*
X147197288Y-56883636D01*
X147306991Y-56896861D01*
X147399226Y-56919741D01*
X147475802Y-56953070D01*
X147538527Y-56997638D01*
X147589212Y-57054236D01*
X147629663Y-57123658D01*
X147630459Y-57125351D01*
X147654601Y-57187483D01*
X147663203Y-57242509D01*
X147656231Y-57297887D01*
X147633654Y-57361073D01*
X147629372Y-57370689D01*
X147600172Y-57426966D01*
X147567356Y-57470451D01*
X147525002Y-57507417D01*
X147467190Y-57544135D01*
X147463831Y-57546052D01*
X147413504Y-57570227D01*
X147356621Y-57588282D01*
X147289527Y-57600839D01*
X147208565Y-57608522D01*
X147110082Y-57611953D01*
X147075286Y-57612251D01*
X146909594Y-57612845D01*
X146886197Y-57583100D01*
X146879257Y-57573319D01*
X146873842Y-57561897D01*
X146869765Y-57546095D01*
X146866837Y-57523175D01*
X146864867Y-57490396D01*
X146864225Y-57466089D01*
X147020844Y-57466089D01*
X147114726Y-57466089D01*
X147169664Y-57464483D01*
X147226060Y-57460255D01*
X147272345Y-57454292D01*
X147275139Y-57453790D01*
X147357348Y-57431736D01*
X147421114Y-57398600D01*
X147468452Y-57352847D01*
X147501382Y-57292939D01*
X147507108Y-57277061D01*
X147512721Y-57252333D01*
X147510291Y-57227902D01*
X147498467Y-57195400D01*
X147491340Y-57179434D01*
X147468000Y-57137006D01*
X147439880Y-57107240D01*
X147408940Y-57086511D01*
X147346966Y-57059537D01*
X147267651Y-57039998D01*
X147175253Y-57028746D01*
X147108333Y-57026270D01*
X147020844Y-57025822D01*
X147020844Y-57466089D01*
X146864225Y-57466089D01*
X146863668Y-57445021D01*
X146863050Y-57384311D01*
X146862825Y-57305526D01*
X146862800Y-57243920D01*
X146862800Y-56934485D01*
X146890509Y-56906776D01*
X146902806Y-56895544D01*
X146916103Y-56887853D01*
X146934672Y-56883040D01*
X146962786Y-56880446D01*
X147004717Y-56879410D01*
X147064737Y-56879270D01*
X147068309Y-56879275D01*
G36*
X146280343Y-56879260D02*
G01*
X146356701Y-56880174D01*
X146415217Y-56882311D01*
X146458255Y-56886175D01*
X146488183Y-56892267D01*
X146507368Y-56901090D01*
X146518176Y-56913146D01*
X146522973Y-56928939D01*
X146524127Y-56948970D01*
X146524133Y-56951335D01*
X146523131Y-56973992D01*
X146518396Y-56991503D01*
X146507333Y-57004574D01*
X146487348Y-57013913D01*
X146455846Y-57020227D01*
X146410232Y-57024222D01*
X146347913Y-57026606D01*
X146266293Y-57028086D01*
X146241277Y-57028414D01*
X145999200Y-57031467D01*
X145995814Y-57096378D01*
X145992429Y-57161289D01*
X146160576Y-57161289D01*
X146226266Y-57161531D01*
X146273172Y-57162556D01*
X146305083Y-57164811D01*
X146325791Y-57168742D01*
X146339084Y-57174798D01*
X146348755Y-57183424D01*
X146348817Y-57183493D01*
X146366356Y-57217112D01*
X146365722Y-57253448D01*
X146347314Y-57284423D01*
X146343671Y-57287607D01*
X146330741Y-57295812D01*
X146313024Y-57301521D01*
X146286570Y-57305162D01*
X146247432Y-57307167D01*
X146191662Y-57307964D01*
X146155994Y-57308045D01*
X145993555Y-57308045D01*
X145993555Y-57466089D01*
X146240161Y-57466089D01*
X146321580Y-57466231D01*
X146383410Y-57466814D01*
X146428637Y-57468068D01*
X146460248Y-57470227D01*
X146481231Y-57473523D01*
X146494573Y-57478189D01*
X146503261Y-57484457D01*
X146505450Y-57486733D01*
X146521614Y-57518280D01*
X146522797Y-57554168D01*
X146509536Y-57585285D01*
X146499043Y-57595271D01*
X146488129Y-57600769D01*
X146471217Y-57605022D01*
X146445633Y-57608180D01*
X146408701Y-57610392D01*
X146357746Y-57611806D01*
X146290094Y-57612572D01*
X146203069Y-57612838D01*
X146183394Y-57612845D01*
X146094911Y-57612787D01*
X146026227Y-57612467D01*
X145974564Y-57611667D01*
X145937145Y-57610167D01*
X145911190Y-57607749D01*
X145893922Y-57604194D01*
X145882562Y-57599282D01*
X145874332Y-57592795D01*
X145869817Y-57588138D01*
X145863021Y-57579889D01*
X145857712Y-57569669D01*
X145853706Y-57554800D01*
X145850821Y-57532602D01*
X145848874Y-57500393D01*
X145847681Y-57455496D01*
X145847061Y-57395228D01*
X145846829Y-57316911D01*
X145846800Y-57250994D01*
X145846871Y-57158628D01*
X145847208Y-57086117D01*
X145847998Y-57030737D01*
X145849426Y-56989765D01*
X145851679Y-56960478D01*
X145854943Y-56940153D01*
X145859404Y-56926066D01*
X145865248Y-56915495D01*
X145870197Y-56908811D01*
X145893594Y-56879067D01*
X146183774Y-56879067D01*
X146280343Y-56879260D01*
G37*
X146280343Y-56879260D02*
X146356701Y-56880174D01*
X146415217Y-56882311D01*
X146458255Y-56886175D01*
X146488183Y-56892267D01*
X146507368Y-56901090D01*
X146518176Y-56913146D01*
X146522973Y-56928939D01*
X146524127Y-56948970D01*
X146524133Y-56951335D01*
X146523131Y-56973992D01*
X146518396Y-56991503D01*
X146507333Y-57004574D01*
X146487348Y-57013913D01*
X146455846Y-57020227D01*
X146410232Y-57024222D01*
X146347913Y-57026606D01*
X146266293Y-57028086D01*
X146241277Y-57028414D01*
X145999200Y-57031467D01*
X145995814Y-57096378D01*
X145992429Y-57161289D01*
X146160576Y-57161289D01*
X146226266Y-57161531D01*
X146273172Y-57162556D01*
X146305083Y-57164811D01*
X146325791Y-57168742D01*
X146339084Y-57174798D01*
X146348755Y-57183424D01*
X146348817Y-57183493D01*
X146366356Y-57217112D01*
X146365722Y-57253448D01*
X146347314Y-57284423D01*
X146343671Y-57287607D01*
X146330741Y-57295812D01*
X146313024Y-57301521D01*
X146286570Y-57305162D01*
X146247432Y-57307167D01*
X146191662Y-57307964D01*
X146155994Y-57308045D01*
X145993555Y-57308045D01*
X145993555Y-57466089D01*
X146240161Y-57466089D01*
X146321580Y-57466231D01*
X146383410Y-57466814D01*
X146428637Y-57468068D01*
X146460248Y-57470227D01*
X146481231Y-57473523D01*
X146494573Y-57478189D01*
X146503261Y-57484457D01*
X146505450Y-57486733D01*
X146521614Y-57518280D01*
X146522797Y-57554168D01*
X146509536Y-57585285D01*
X146499043Y-57595271D01*
X146488129Y-57600769D01*
X146471217Y-57605022D01*
X146445633Y-57608180D01*
X146408701Y-57610392D01*
X146357746Y-57611806D01*
X146290094Y-57612572D01*
X146203069Y-57612838D01*
X146183394Y-57612845D01*
X146094911Y-57612787D01*
X146026227Y-57612467D01*
X145974564Y-57611667D01*
X145937145Y-57610167D01*
X145911190Y-57607749D01*
X145893922Y-57604194D01*
X145882562Y-57599282D01*
X145874332Y-57592795D01*
X145869817Y-57588138D01*
X145863021Y-57579889D01*
X145857712Y-57569669D01*
X145853706Y-57554800D01*
X145850821Y-57532602D01*
X145848874Y-57500393D01*
X145847681Y-57455496D01*
X145847061Y-57395228D01*
X145846829Y-57316911D01*
X145846800Y-57250994D01*
X145846871Y-57158628D01*
X145847208Y-57086117D01*
X145847998Y-57030737D01*
X145849426Y-56989765D01*
X145851679Y-56960478D01*
X145854943Y-56940153D01*
X145859404Y-56926066D01*
X145865248Y-56915495D01*
X145870197Y-56908811D01*
X145893594Y-56879067D01*
X146183774Y-56879067D01*
X146280343Y-56879260D01*
G36*
X144749886Y-56883448D02*
G01*
X144773452Y-56897273D01*
X144804265Y-56919881D01*
X144843922Y-56952338D01*
X144894020Y-56995708D01*
X144956157Y-57051058D01*
X145031928Y-57119451D01*
X145118666Y-57198084D01*
X145299289Y-57361878D01*
X145304933Y-57142029D01*
X145306971Y-57066351D01*
X145308937Y-57009994D01*
X145311266Y-56969706D01*
X145314394Y-56942235D01*
X145318755Y-56924329D01*
X145324784Y-56912737D01*
X145332916Y-56904208D01*
X145337228Y-56900623D01*
X145371759Y-56881670D01*
X145404617Y-56884441D01*
X145430682Y-56900633D01*
X145457333Y-56922199D01*
X145460648Y-57237151D01*
X145461565Y-57329779D01*
X145462032Y-57402544D01*
X145461887Y-57458161D01*
X145460968Y-57499342D01*
X145459113Y-57528803D01*
X145456161Y-57549255D01*
X145451950Y-57563413D01*
X145446318Y-57573991D01*
X145440073Y-57582474D01*
X145426561Y-57598207D01*
X145413117Y-57608636D01*
X145397876Y-57612639D01*
X145378974Y-57609094D01*
X145354545Y-57596879D01*
X145322727Y-57574871D01*
X145281652Y-57541949D01*
X145229458Y-57496991D01*
X145164278Y-57438875D01*
X145090444Y-57372099D01*
X144825155Y-57131458D01*
X144819511Y-57350589D01*
X144817469Y-57426128D01*
X144815498Y-57482354D01*
X144813161Y-57522524D01*
X144810019Y-57549896D01*
X144805636Y-57567728D01*
X144799576Y-57579279D01*
X144791400Y-57587807D01*
X144787216Y-57591282D01*
X144750235Y-57610372D01*
X144715292Y-57607493D01*
X144684864Y-57583100D01*
X144677903Y-57573286D01*
X144672477Y-57561826D01*
X144668397Y-57545968D01*
X144665471Y-57522963D01*
X144663508Y-57490062D01*
X144662317Y-57444516D01*
X144661708Y-57383573D01*
X144661489Y-57304486D01*
X144661466Y-57245956D01*
X144661540Y-57154407D01*
X144661887Y-57082687D01*
X144662699Y-57028045D01*
X144664167Y-56987732D01*
X144666481Y-56958998D01*
X144669833Y-56939093D01*
X144674412Y-56925268D01*
X144680411Y-56914772D01*
X144684864Y-56908811D01*
X144696150Y-56894691D01*
X144706699Y-56884029D01*
X144718107Y-56877892D01*
X144731970Y-56877343D01*
X144749886Y-56883448D01*
G37*
X144749886Y-56883448D02*
X144773452Y-56897273D01*
X144804265Y-56919881D01*
X144843922Y-56952338D01*
X144894020Y-56995708D01*
X144956157Y-57051058D01*
X145031928Y-57119451D01*
X145118666Y-57198084D01*
X145299289Y-57361878D01*
X145304933Y-57142029D01*
X145306971Y-57066351D01*
X145308937Y-57009994D01*
X145311266Y-56969706D01*
X145314394Y-56942235D01*
X145318755Y-56924329D01*
X145324784Y-56912737D01*
X145332916Y-56904208D01*
X145337228Y-56900623D01*
X145371759Y-56881670D01*
X145404617Y-56884441D01*
X145430682Y-56900633D01*
X145457333Y-56922199D01*
X145460648Y-57237151D01*
X145461565Y-57329779D01*
X145462032Y-57402544D01*
X145461887Y-57458161D01*
X145460968Y-57499342D01*
X145459113Y-57528803D01*
X145456161Y-57549255D01*
X145451950Y-57563413D01*
X145446318Y-57573991D01*
X145440073Y-57582474D01*
X145426561Y-57598207D01*
X145413117Y-57608636D01*
X145397876Y-57612639D01*
X145378974Y-57609094D01*
X145354545Y-57596879D01*
X145322727Y-57574871D01*
X145281652Y-57541949D01*
X145229458Y-57496991D01*
X145164278Y-57438875D01*
X145090444Y-57372099D01*
X144825155Y-57131458D01*
X144819511Y-57350589D01*
X144817469Y-57426128D01*
X144815498Y-57482354D01*
X144813161Y-57522524D01*
X144810019Y-57549896D01*
X144805636Y-57567728D01*
X144799576Y-57579279D01*
X144791400Y-57587807D01*
X144787216Y-57591282D01*
X144750235Y-57610372D01*
X144715292Y-57607493D01*
X144684864Y-57583100D01*
X144677903Y-57573286D01*
X144672477Y-57561826D01*
X144668397Y-57545968D01*
X144665471Y-57522963D01*
X144663508Y-57490062D01*
X144662317Y-57444516D01*
X144661708Y-57383573D01*
X144661489Y-57304486D01*
X144661466Y-57245956D01*
X144661540Y-57154407D01*
X144661887Y-57082687D01*
X144662699Y-57028045D01*
X144664167Y-56987732D01*
X144666481Y-56958998D01*
X144669833Y-56939093D01*
X144674412Y-56925268D01*
X144680411Y-56914772D01*
X144684864Y-56908811D01*
X144696150Y-56894691D01*
X144706699Y-56884029D01*
X144718107Y-56877892D01*
X144731970Y-56877343D01*
X144749886Y-56883448D01*
G36*
X144099919Y-56884599D02*
G01*
X144168435Y-56896095D01*
X144221057Y-56913967D01*
X144255292Y-56937499D01*
X144264621Y-56950924D01*
X144274107Y-56982148D01*
X144267723Y-57010395D01*
X144247570Y-57037182D01*
X144216255Y-57049713D01*
X144170817Y-57048696D01*
X144135674Y-57041906D01*
X144057581Y-57028971D01*
X143977774Y-57027742D01*
X143888445Y-57038241D01*
X143863771Y-57042690D01*
X143780709Y-57066108D01*
X143715727Y-57100945D01*
X143669539Y-57146604D01*
X143642855Y-57202494D01*
X143637337Y-57231388D01*
X143640949Y-57290012D01*
X143664271Y-57341879D01*
X143705176Y-57385978D01*
X143761541Y-57421299D01*
X143831240Y-57446829D01*
X143912148Y-57461559D01*
X144002140Y-57464478D01*
X144099090Y-57454575D01*
X144104564Y-57453641D01*
X144143125Y-57446459D01*
X144164506Y-57439521D01*
X144173773Y-57429227D01*
X144175994Y-57411976D01*
X144176044Y-57402841D01*
X144176044Y-57364489D01*
X144107569Y-57364489D01*
X144047100Y-57360347D01*
X144005835Y-57347147D01*
X143981825Y-57323730D01*
X143973123Y-57288936D01*
X143973017Y-57284394D01*
X143978108Y-57254654D01*
X143995567Y-57233419D01*
X144028061Y-57219366D01*
X144078257Y-57211173D01*
X144126877Y-57208161D01*
X144197544Y-57206433D01*
X144248802Y-57209070D01*
X144283761Y-57218800D01*
X144305530Y-57238353D01*
X144317220Y-57270456D01*
X144321940Y-57317838D01*
X144322800Y-57380071D01*
X144321391Y-57449535D01*
X144317152Y-57496786D01*
X144310064Y-57522012D01*
X144308689Y-57523988D01*
X144269772Y-57555508D01*
X144212714Y-57580470D01*
X144141131Y-57598340D01*
X144058642Y-57608586D01*
X143968861Y-57610673D01*
X143875408Y-57604068D01*
X143820444Y-57595956D01*
X143734234Y-57571554D01*
X143654108Y-57531662D01*
X143587023Y-57479887D01*
X143576827Y-57469539D01*
X143543698Y-57426035D01*
X143513806Y-57372118D01*
X143490643Y-57315592D01*
X143477702Y-57264259D01*
X143476142Y-57244544D01*
X143482782Y-57203419D01*
X143500432Y-57152252D01*
X143525703Y-57098394D01*
X143555211Y-57049195D01*
X143581281Y-57016334D01*
X143642235Y-56967452D01*
X143721031Y-56928545D01*
X143814843Y-56900494D01*
X143920850Y-56884179D01*
X144018000Y-56880192D01*
X144099919Y-56884599D01*
G37*
X144099919Y-56884599D02*
X144168435Y-56896095D01*
X144221057Y-56913967D01*
X144255292Y-56937499D01*
X144264621Y-56950924D01*
X144274107Y-56982148D01*
X144267723Y-57010395D01*
X144247570Y-57037182D01*
X144216255Y-57049713D01*
X144170817Y-57048696D01*
X144135674Y-57041906D01*
X144057581Y-57028971D01*
X143977774Y-57027742D01*
X143888445Y-57038241D01*
X143863771Y-57042690D01*
X143780709Y-57066108D01*
X143715727Y-57100945D01*
X143669539Y-57146604D01*
X143642855Y-57202494D01*
X143637337Y-57231388D01*
X143640949Y-57290012D01*
X143664271Y-57341879D01*
X143705176Y-57385978D01*
X143761541Y-57421299D01*
X143831240Y-57446829D01*
X143912148Y-57461559D01*
X144002140Y-57464478D01*
X144099090Y-57454575D01*
X144104564Y-57453641D01*
X144143125Y-57446459D01*
X144164506Y-57439521D01*
X144173773Y-57429227D01*
X144175994Y-57411976D01*
X144176044Y-57402841D01*
X144176044Y-57364489D01*
X144107569Y-57364489D01*
X144047100Y-57360347D01*
X144005835Y-57347147D01*
X143981825Y-57323730D01*
X143973123Y-57288936D01*
X143973017Y-57284394D01*
X143978108Y-57254654D01*
X143995567Y-57233419D01*
X144028061Y-57219366D01*
X144078257Y-57211173D01*
X144126877Y-57208161D01*
X144197544Y-57206433D01*
X144248802Y-57209070D01*
X144283761Y-57218800D01*
X144305530Y-57238353D01*
X144317220Y-57270456D01*
X144321940Y-57317838D01*
X144322800Y-57380071D01*
X144321391Y-57449535D01*
X144317152Y-57496786D01*
X144310064Y-57522012D01*
X144308689Y-57523988D01*
X144269772Y-57555508D01*
X144212714Y-57580470D01*
X144141131Y-57598340D01*
X144058642Y-57608586D01*
X143968861Y-57610673D01*
X143875408Y-57604068D01*
X143820444Y-57595956D01*
X143734234Y-57571554D01*
X143654108Y-57531662D01*
X143587023Y-57479887D01*
X143576827Y-57469539D01*
X143543698Y-57426035D01*
X143513806Y-57372118D01*
X143490643Y-57315592D01*
X143477702Y-57264259D01*
X143476142Y-57244544D01*
X143482782Y-57203419D01*
X143500432Y-57152252D01*
X143525703Y-57098394D01*
X143555211Y-57049195D01*
X143581281Y-57016334D01*
X143642235Y-56967452D01*
X143721031Y-56928545D01*
X143814843Y-56900494D01*
X143920850Y-56884179D01*
X144018000Y-56880192D01*
X144099919Y-56884599D01*
G36*
X143126178Y-56901645D02*
G01*
X143132758Y-56909218D01*
X143137921Y-56918987D01*
X143141836Y-56933571D01*
X143144676Y-56955585D01*
X143146613Y-56987648D01*
X143147817Y-57032375D01*
X143148461Y-57092385D01*
X143148716Y-57170294D01*
X143148755Y-57245956D01*
X143148686Y-57339802D01*
X143148362Y-57413689D01*
X143147614Y-57470232D01*
X143146268Y-57512049D01*
X143144154Y-57541757D01*
X143141100Y-57561973D01*
X143136934Y-57575314D01*
X143131484Y-57584398D01*
X143126178Y-57590267D01*
X143093174Y-57609947D01*
X143058009Y-57608181D01*
X143026545Y-57586717D01*
X143019316Y-57578337D01*
X143013666Y-57568614D01*
X143009401Y-57554861D01*
X143006327Y-57534389D01*
X143004248Y-57504512D01*
X143002970Y-57462541D01*
X143002299Y-57405789D01*
X143002041Y-57331567D01*
X143002000Y-57247537D01*
X143002000Y-56934485D01*
X143029709Y-56906776D01*
X143063863Y-56883463D01*
X143096994Y-56882623D01*
X143126178Y-56901645D01*
G37*
X143126178Y-56901645D02*
X143132758Y-56909218D01*
X143137921Y-56918987D01*
X143141836Y-56933571D01*
X143144676Y-56955585D01*
X143146613Y-56987648D01*
X143147817Y-57032375D01*
X143148461Y-57092385D01*
X143148716Y-57170294D01*
X143148755Y-57245956D01*
X143148686Y-57339802D01*
X143148362Y-57413689D01*
X143147614Y-57470232D01*
X143146268Y-57512049D01*
X143144154Y-57541757D01*
X143141100Y-57561973D01*
X143136934Y-57575314D01*
X143131484Y-57584398D01*
X143126178Y-57590267D01*
X143093174Y-57609947D01*
X143058009Y-57608181D01*
X143026545Y-57586717D01*
X143019316Y-57578337D01*
X143013666Y-57568614D01*
X143009401Y-57554861D01*
X143006327Y-57534389D01*
X143004248Y-57504512D01*
X143002970Y-57462541D01*
X143002299Y-57405789D01*
X143002041Y-57331567D01*
X143002000Y-57247537D01*
X143002000Y-56934485D01*
X143029709Y-56906776D01*
X143063863Y-56883463D01*
X143096994Y-56882623D01*
X143126178Y-56901645D01*
G36*
X142358297Y-56880351D02*
G01*
X142433112Y-56885581D01*
X142502694Y-56893750D01*
X142562998Y-56904550D01*
X142609980Y-56917673D01*
X142639594Y-56932813D01*
X142644140Y-56937269D01*
X142659946Y-56971850D01*
X142655153Y-57007351D01*
X142630636Y-57037725D01*
X142629466Y-57038596D01*
X142615046Y-57047954D01*
X142599992Y-57052876D01*
X142578995Y-57053473D01*
X142546743Y-57049861D01*
X142497927Y-57042154D01*
X142494000Y-57041505D01*
X142421261Y-57032569D01*
X142342783Y-57028161D01*
X142264073Y-57028119D01*
X142190639Y-57032279D01*
X142127989Y-57040479D01*
X142081630Y-57052557D01*
X142078584Y-57053771D01*
X142044952Y-57072615D01*
X142033136Y-57091685D01*
X142042386Y-57110439D01*
X142071953Y-57128337D01*
X142121089Y-57144837D01*
X142189043Y-57159396D01*
X142234355Y-57166406D01*
X142328544Y-57179889D01*
X142403456Y-57192214D01*
X142462283Y-57204449D01*
X142508215Y-57217661D01*
X142544445Y-57232917D01*
X142574162Y-57251285D01*
X142600558Y-57273831D01*
X142621770Y-57295971D01*
X142646935Y-57326819D01*
X142659319Y-57353345D01*
X142663192Y-57386026D01*
X142663333Y-57397995D01*
X142660424Y-57437712D01*
X142648798Y-57467259D01*
X142628677Y-57493486D01*
X142587784Y-57533576D01*
X142542183Y-57564149D01*
X142488487Y-57586203D01*
X142423308Y-57600735D01*
X142343256Y-57608741D01*
X142244943Y-57611218D01*
X142228711Y-57611177D01*
X142163151Y-57609818D01*
X142098134Y-57606730D01*
X142040748Y-57602356D01*
X141998078Y-57597140D01*
X141994628Y-57596541D01*
X141952204Y-57586491D01*
X141916220Y-57573796D01*
X141895850Y-57562190D01*
X141876893Y-57531572D01*
X141875573Y-57495918D01*
X141891915Y-57464144D01*
X141895571Y-57460551D01*
X141910685Y-57449876D01*
X141929585Y-57445276D01*
X141958838Y-57446059D01*
X141994349Y-57450127D01*
X142034030Y-57453762D01*
X142089655Y-57456828D01*
X142154594Y-57459053D01*
X142222215Y-57460164D01*
X142240000Y-57460237D01*
X142307872Y-57459964D01*
X142357546Y-57458646D01*
X142393390Y-57455827D01*
X142419776Y-57451050D01*
X142441074Y-57443857D01*
X142453874Y-57437867D01*
X142482000Y-57421233D01*
X142499932Y-57406168D01*
X142502553Y-57401897D01*
X142497024Y-57384263D01*
X142470740Y-57367192D01*
X142425522Y-57351458D01*
X142363192Y-57337838D01*
X142344829Y-57334804D01*
X142248910Y-57319738D01*
X142172359Y-57307146D01*
X142112220Y-57296111D01*
X142065540Y-57285720D01*
X142029363Y-57275056D01*
X142000735Y-57263205D01*
X141976702Y-57249251D01*
X141954308Y-57232281D01*
X141930598Y-57211378D01*
X141922620Y-57204049D01*
X141894647Y-57176699D01*
X141879840Y-57155029D01*
X141874048Y-57130232D01*
X141873111Y-57098983D01*
X141883425Y-57037705D01*
X141914248Y-56985640D01*
X141965405Y-56942958D01*
X142036717Y-56909825D01*
X142087600Y-56894964D01*
X142142900Y-56885366D01*
X142209147Y-56879936D01*
X142282294Y-56878367D01*
X142358297Y-56880351D01*
G37*
X142358297Y-56880351D02*
X142433112Y-56885581D01*
X142502694Y-56893750D01*
X142562998Y-56904550D01*
X142609980Y-56917673D01*
X142639594Y-56932813D01*
X142644140Y-56937269D01*
X142659946Y-56971850D01*
X142655153Y-57007351D01*
X142630636Y-57037725D01*
X142629466Y-57038596D01*
X142615046Y-57047954D01*
X142599992Y-57052876D01*
X142578995Y-57053473D01*
X142546743Y-57049861D01*
X142497927Y-57042154D01*
X142494000Y-57041505D01*
X142421261Y-57032569D01*
X142342783Y-57028161D01*
X142264073Y-57028119D01*
X142190639Y-57032279D01*
X142127989Y-57040479D01*
X142081630Y-57052557D01*
X142078584Y-57053771D01*
X142044952Y-57072615D01*
X142033136Y-57091685D01*
X142042386Y-57110439D01*
X142071953Y-57128337D01*
X142121089Y-57144837D01*
X142189043Y-57159396D01*
X142234355Y-57166406D01*
X142328544Y-57179889D01*
X142403456Y-57192214D01*
X142462283Y-57204449D01*
X142508215Y-57217661D01*
X142544445Y-57232917D01*
X142574162Y-57251285D01*
X142600558Y-57273831D01*
X142621770Y-57295971D01*
X142646935Y-57326819D01*
X142659319Y-57353345D01*
X142663192Y-57386026D01*
X142663333Y-57397995D01*
X142660424Y-57437712D01*
X142648798Y-57467259D01*
X142628677Y-57493486D01*
X142587784Y-57533576D01*
X142542183Y-57564149D01*
X142488487Y-57586203D01*
X142423308Y-57600735D01*
X142343256Y-57608741D01*
X142244943Y-57611218D01*
X142228711Y-57611177D01*
X142163151Y-57609818D01*
X142098134Y-57606730D01*
X142040748Y-57602356D01*
X141998078Y-57597140D01*
X141994628Y-57596541D01*
X141952204Y-57586491D01*
X141916220Y-57573796D01*
X141895850Y-57562190D01*
X141876893Y-57531572D01*
X141875573Y-57495918D01*
X141891915Y-57464144D01*
X141895571Y-57460551D01*
X141910685Y-57449876D01*
X141929585Y-57445276D01*
X141958838Y-57446059D01*
X141994349Y-57450127D01*
X142034030Y-57453762D01*
X142089655Y-57456828D01*
X142154594Y-57459053D01*
X142222215Y-57460164D01*
X142240000Y-57460237D01*
X142307872Y-57459964D01*
X142357546Y-57458646D01*
X142393390Y-57455827D01*
X142419776Y-57451050D01*
X142441074Y-57443857D01*
X142453874Y-57437867D01*
X142482000Y-57421233D01*
X142499932Y-57406168D01*
X142502553Y-57401897D01*
X142497024Y-57384263D01*
X142470740Y-57367192D01*
X142425522Y-57351458D01*
X142363192Y-57337838D01*
X142344829Y-57334804D01*
X142248910Y-57319738D01*
X142172359Y-57307146D01*
X142112220Y-57296111D01*
X142065540Y-57285720D01*
X142029363Y-57275056D01*
X142000735Y-57263205D01*
X141976702Y-57249251D01*
X141954308Y-57232281D01*
X141930598Y-57211378D01*
X141922620Y-57204049D01*
X141894647Y-57176699D01*
X141879840Y-57155029D01*
X141874048Y-57130232D01*
X141873111Y-57098983D01*
X141883425Y-57037705D01*
X141914248Y-56985640D01*
X141965405Y-56942958D01*
X142036717Y-56909825D01*
X142087600Y-56894964D01*
X142142900Y-56885366D01*
X142209147Y-56879936D01*
X142282294Y-56878367D01*
X142358297Y-56880351D01*
G36*
X141337206Y-56879146D02*
G01*
X141406614Y-56879518D01*
X141459003Y-56880385D01*
X141497153Y-56881946D01*
X141523841Y-56884403D01*
X141541847Y-56887957D01*
X141553951Y-56892810D01*
X141562931Y-56899161D01*
X141566182Y-56902084D01*
X141585957Y-56933142D01*
X141589518Y-56968828D01*
X141576509Y-57000510D01*
X141570494Y-57006913D01*
X141560765Y-57013121D01*
X141545099Y-57017910D01*
X141520592Y-57021514D01*
X141484339Y-57024164D01*
X141433435Y-57026095D01*
X141364974Y-57027539D01*
X141302383Y-57028418D01*
X141054666Y-57031467D01*
X141051281Y-57096378D01*
X141047895Y-57161289D01*
X141216042Y-57161289D01*
X141289041Y-57161919D01*
X141342483Y-57164553D01*
X141379372Y-57170309D01*
X141402712Y-57180304D01*
X141415506Y-57195656D01*
X141420758Y-57217482D01*
X141421555Y-57237738D01*
X141419077Y-57262592D01*
X141409723Y-57280906D01*
X141390617Y-57293637D01*
X141358882Y-57301741D01*
X141311641Y-57306176D01*
X141246017Y-57307899D01*
X141210199Y-57308045D01*
X141049022Y-57308045D01*
X141049022Y-57466089D01*
X141297378Y-57466089D01*
X141378787Y-57466202D01*
X141440658Y-57466712D01*
X141486032Y-57467870D01*
X141517946Y-57469930D01*
X141539441Y-57473146D01*
X141553557Y-57477772D01*
X141563332Y-57484059D01*
X141568311Y-57488667D01*
X141585390Y-57515560D01*
X141590889Y-57539467D01*
X141583037Y-57568667D01*
X141568311Y-57590267D01*
X141560454Y-57597066D01*
X141550312Y-57602346D01*
X141535156Y-57606298D01*
X141512259Y-57609113D01*
X141478891Y-57610982D01*
X141432325Y-57612098D01*
X141369833Y-57612651D01*
X141288686Y-57612833D01*
X141246578Y-57612845D01*
X141156402Y-57612765D01*
X141086076Y-57612398D01*
X141032871Y-57611552D01*
X140994060Y-57610036D01*
X140966913Y-57607659D01*
X140948702Y-57604229D01*
X140936700Y-57599554D01*
X140928178Y-57593444D01*
X140924844Y-57590267D01*
X140918245Y-57582670D01*
X140913073Y-57572870D01*
X140909154Y-57558239D01*
X140906316Y-57536152D01*
X140904385Y-57503982D01*
X140903188Y-57459103D01*
X140902552Y-57398889D01*
X140902303Y-57320713D01*
X140902266Y-57247923D01*
X140902300Y-57154707D01*
X140902535Y-57081431D01*
X140903170Y-57025458D01*
X140904406Y-56984151D01*
X140906444Y-56954872D01*
X140909483Y-56934984D01*
X140913723Y-56921850D01*
X140919365Y-56912832D01*
X140926609Y-56905293D01*
X140928394Y-56903612D01*
X140937055Y-56896172D01*
X140947118Y-56890409D01*
X140961375Y-56886112D01*
X140982617Y-56883064D01*
X141013636Y-56881051D01*
X141057223Y-56879860D01*
X141116169Y-56879275D01*
X141193266Y-56879083D01*
X141247999Y-56879067D01*
X141337206Y-56879146D01*
G37*
X141337206Y-56879146D02*
X141406614Y-56879518D01*
X141459003Y-56880385D01*
X141497153Y-56881946D01*
X141523841Y-56884403D01*
X141541847Y-56887957D01*
X141553951Y-56892810D01*
X141562931Y-56899161D01*
X141566182Y-56902084D01*
X141585957Y-56933142D01*
X141589518Y-56968828D01*
X141576509Y-57000510D01*
X141570494Y-57006913D01*
X141560765Y-57013121D01*
X141545099Y-57017910D01*
X141520592Y-57021514D01*
X141484339Y-57024164D01*
X141433435Y-57026095D01*
X141364974Y-57027539D01*
X141302383Y-57028418D01*
X141054666Y-57031467D01*
X141051281Y-57096378D01*
X141047895Y-57161289D01*
X141216042Y-57161289D01*
X141289041Y-57161919D01*
X141342483Y-57164553D01*
X141379372Y-57170309D01*
X141402712Y-57180304D01*
X141415506Y-57195656D01*
X141420758Y-57217482D01*
X141421555Y-57237738D01*
X141419077Y-57262592D01*
X141409723Y-57280906D01*
X141390617Y-57293637D01*
X141358882Y-57301741D01*
X141311641Y-57306176D01*
X141246017Y-57307899D01*
X141210199Y-57308045D01*
X141049022Y-57308045D01*
X141049022Y-57466089D01*
X141297378Y-57466089D01*
X141378787Y-57466202D01*
X141440658Y-57466712D01*
X141486032Y-57467870D01*
X141517946Y-57469930D01*
X141539441Y-57473146D01*
X141553557Y-57477772D01*
X141563332Y-57484059D01*
X141568311Y-57488667D01*
X141585390Y-57515560D01*
X141590889Y-57539467D01*
X141583037Y-57568667D01*
X141568311Y-57590267D01*
X141560454Y-57597066D01*
X141550312Y-57602346D01*
X141535156Y-57606298D01*
X141512259Y-57609113D01*
X141478891Y-57610982D01*
X141432325Y-57612098D01*
X141369833Y-57612651D01*
X141288686Y-57612833D01*
X141246578Y-57612845D01*
X141156402Y-57612765D01*
X141086076Y-57612398D01*
X141032871Y-57611552D01*
X140994060Y-57610036D01*
X140966913Y-57607659D01*
X140948702Y-57604229D01*
X140936700Y-57599554D01*
X140928178Y-57593444D01*
X140924844Y-57590267D01*
X140918245Y-57582670D01*
X140913073Y-57572870D01*
X140909154Y-57558239D01*
X140906316Y-57536152D01*
X140904385Y-57503982D01*
X140903188Y-57459103D01*
X140902552Y-57398889D01*
X140902303Y-57320713D01*
X140902266Y-57247923D01*
X140902300Y-57154707D01*
X140902535Y-57081431D01*
X140903170Y-57025458D01*
X140904406Y-56984151D01*
X140906444Y-56954872D01*
X140909483Y-56934984D01*
X140913723Y-56921850D01*
X140919365Y-56912832D01*
X140926609Y-56905293D01*
X140928394Y-56903612D01*
X140937055Y-56896172D01*
X140947118Y-56890409D01*
X140961375Y-56886112D01*
X140982617Y-56883064D01*
X141013636Y-56881051D01*
X141057223Y-56879860D01*
X141116169Y-56879275D01*
X141193266Y-56879083D01*
X141247999Y-56879067D01*
X141337206Y-56879146D01*
G36*
X139928629Y-56879066D02*
G01*
X139968111Y-56879467D01*
X140083800Y-56882259D01*
X140180689Y-56890550D01*
X140262081Y-56905232D01*
X140331277Y-56927193D01*
X140391580Y-56957322D01*
X140446292Y-56996510D01*
X140465833Y-57013532D01*
X140498250Y-57053363D01*
X140527480Y-57107413D01*
X140550009Y-57167323D01*
X140562321Y-57224739D01*
X140563600Y-57245956D01*
X140555583Y-57304769D01*
X140534101Y-57369013D01*
X140503001Y-57429821D01*
X140466134Y-57478330D01*
X140460146Y-57484182D01*
X140409421Y-57525321D01*
X140353875Y-57557435D01*
X140290304Y-57581365D01*
X140215506Y-57597953D01*
X140126278Y-57608041D01*
X140019418Y-57612469D01*
X139970472Y-57612845D01*
X139908238Y-57612545D01*
X139864472Y-57611292D01*
X139835069Y-57608554D01*
X139815921Y-57603801D01*
X139802923Y-57596501D01*
X139795955Y-57590267D01*
X139789374Y-57582694D01*
X139784212Y-57572924D01*
X139780297Y-57558340D01*
X139777457Y-57536326D01*
X139775520Y-57504264D01*
X139774316Y-57459536D01*
X139773672Y-57399526D01*
X139773417Y-57321617D01*
X139773378Y-57245956D01*
X139773130Y-57145041D01*
X139773183Y-57064427D01*
X139774143Y-57025822D01*
X139920133Y-57025822D01*
X139920133Y-57466089D01*
X140013266Y-57466004D01*
X140069307Y-57464396D01*
X140128001Y-57460256D01*
X140176972Y-57454464D01*
X140178462Y-57454226D01*
X140257608Y-57435090D01*
X140318998Y-57405287D01*
X140365695Y-57362878D01*
X140395365Y-57316961D01*
X140413647Y-57266026D01*
X140412229Y-57218200D01*
X140391012Y-57166933D01*
X140349511Y-57113899D01*
X140292002Y-57074600D01*
X140217250Y-57048331D01*
X140167292Y-57039035D01*
X140110584Y-57032507D01*
X140050481Y-57027782D01*
X139999361Y-57025817D01*
X139996333Y-57025808D01*
X139920133Y-57025822D01*
X139774143Y-57025822D01*
X139774740Y-57001851D01*
X139779002Y-56955055D01*
X139787170Y-56921778D01*
X139800444Y-56899759D01*
X139820026Y-56886739D01*
X139847117Y-56880457D01*
X139882918Y-56878653D01*
X139928629Y-56879066D01*
G37*
X139928629Y-56879066D02*
X139968111Y-56879467D01*
X140083800Y-56882259D01*
X140180689Y-56890550D01*
X140262081Y-56905232D01*
X140331277Y-56927193D01*
X140391580Y-56957322D01*
X140446292Y-56996510D01*
X140465833Y-57013532D01*
X140498250Y-57053363D01*
X140527480Y-57107413D01*
X140550009Y-57167323D01*
X140562321Y-57224739D01*
X140563600Y-57245956D01*
X140555583Y-57304769D01*
X140534101Y-57369013D01*
X140503001Y-57429821D01*
X140466134Y-57478330D01*
X140460146Y-57484182D01*
X140409421Y-57525321D01*
X140353875Y-57557435D01*
X140290304Y-57581365D01*
X140215506Y-57597953D01*
X140126278Y-57608041D01*
X140019418Y-57612469D01*
X139970472Y-57612845D01*
X139908238Y-57612545D01*
X139864472Y-57611292D01*
X139835069Y-57608554D01*
X139815921Y-57603801D01*
X139802923Y-57596501D01*
X139795955Y-57590267D01*
X139789374Y-57582694D01*
X139784212Y-57572924D01*
X139780297Y-57558340D01*
X139777457Y-57536326D01*
X139775520Y-57504264D01*
X139774316Y-57459536D01*
X139773672Y-57399526D01*
X139773417Y-57321617D01*
X139773378Y-57245956D01*
X139773130Y-57145041D01*
X139773183Y-57064427D01*
X139774143Y-57025822D01*
X139920133Y-57025822D01*
X139920133Y-57466089D01*
X140013266Y-57466004D01*
X140069307Y-57464396D01*
X140128001Y-57460256D01*
X140176972Y-57454464D01*
X140178462Y-57454226D01*
X140257608Y-57435090D01*
X140318998Y-57405287D01*
X140365695Y-57362878D01*
X140395365Y-57316961D01*
X140413647Y-57266026D01*
X140412229Y-57218200D01*
X140391012Y-57166933D01*
X140349511Y-57113899D01*
X140292002Y-57074600D01*
X140217250Y-57048331D01*
X140167292Y-57039035D01*
X140110584Y-57032507D01*
X140050481Y-57027782D01*
X139999361Y-57025817D01*
X139996333Y-57025808D01*
X139920133Y-57025822D01*
X139774143Y-57025822D01*
X139774740Y-57001851D01*
X139779002Y-56955055D01*
X139787170Y-56921778D01*
X139800444Y-56899759D01*
X139820026Y-56886739D01*
X139847117Y-56880457D01*
X139882918Y-56878653D01*
X139928629Y-56879066D01*
G36*
X143776957Y-51636571D02*
G01*
X143873232Y-51660809D01*
X143959816Y-51703641D01*
X144034627Y-51763419D01*
X144095582Y-51838494D01*
X144140601Y-51927220D01*
X144166864Y-52023530D01*
X144172714Y-52120795D01*
X144157860Y-52214654D01*
X144124160Y-52302511D01*
X144073472Y-52381770D01*
X144007655Y-52449836D01*
X143928566Y-52504112D01*
X143838066Y-52542002D01*
X143786800Y-52554426D01*
X143742302Y-52561947D01*
X143708001Y-52564919D01*
X143675040Y-52563094D01*
X143634566Y-52556225D01*
X143601469Y-52549250D01*
X143508053Y-52517741D01*
X143424381Y-52466617D01*
X143352335Y-52397429D01*
X143293800Y-52311728D01*
X143279852Y-52284489D01*
X143263414Y-52248122D01*
X143253106Y-52217582D01*
X143247540Y-52185450D01*
X143245331Y-52144307D01*
X143245052Y-52098222D01*
X143249139Y-52013865D01*
X143262554Y-51944586D01*
X143287744Y-51883961D01*
X143327154Y-51825567D01*
X143365702Y-51781302D01*
X143437594Y-51715484D01*
X143512687Y-51670053D01*
X143595438Y-51642850D01*
X143673072Y-51632576D01*
X143776957Y-51636571D01*
G37*
X143776957Y-51636571D02*
X143873232Y-51660809D01*
X143959816Y-51703641D01*
X144034627Y-51763419D01*
X144095582Y-51838494D01*
X144140601Y-51927220D01*
X144166864Y-52023530D01*
X144172714Y-52120795D01*
X144157860Y-52214654D01*
X144124160Y-52302511D01*
X144073472Y-52381770D01*
X144007655Y-52449836D01*
X143928566Y-52504112D01*
X143838066Y-52542002D01*
X143786800Y-52554426D01*
X143742302Y-52561947D01*
X143708001Y-52564919D01*
X143675040Y-52563094D01*
X143634566Y-52556225D01*
X143601469Y-52549250D01*
X143508053Y-52517741D01*
X143424381Y-52466617D01*
X143352335Y-52397429D01*
X143293800Y-52311728D01*
X143279852Y-52284489D01*
X143263414Y-52248122D01*
X143253106Y-52217582D01*
X143247540Y-52185450D01*
X143245331Y-52144307D01*
X143245052Y-52098222D01*
X143249139Y-52013865D01*
X143262554Y-51944586D01*
X143287744Y-51883961D01*
X143327154Y-51825567D01*
X143365702Y-51781302D01*
X143437594Y-51715484D01*
X143512687Y-51670053D01*
X143595438Y-51642850D01*
X143673072Y-51632576D01*
X143776957Y-51636571D01*
G36*
X152236507Y-54082245D02*
G01*
X152236526Y-54316662D01*
X152236552Y-54529603D01*
X152236625Y-54722168D01*
X152236782Y-54895459D01*
X152237064Y-55050576D01*
X152237509Y-55188620D01*
X152238156Y-55310692D01*
X152239045Y-55417894D01*
X152240213Y-55511326D01*
X152241701Y-55592090D01*
X152243546Y-55661286D01*
X152245789Y-55720015D01*
X152248469Y-55769379D01*
X152251623Y-55810478D01*
X152255292Y-55844413D01*
X152259513Y-55872286D01*
X152264327Y-55895198D01*
X152269773Y-55914249D01*
X152275888Y-55930540D01*
X152282712Y-55945173D01*
X152290285Y-55959249D01*
X152298645Y-55973868D01*
X152303839Y-55982974D01*
X152338104Y-56043689D01*
X151479955Y-56043689D01*
X151479955Y-55947733D01*
X151479224Y-55904370D01*
X151477272Y-55871205D01*
X151474463Y-55853424D01*
X151473221Y-55851778D01*
X151461799Y-55858662D01*
X151439084Y-55876505D01*
X151416385Y-55895879D01*
X151361800Y-55936614D01*
X151292321Y-55977617D01*
X151215270Y-56015123D01*
X151137965Y-56045364D01*
X151107113Y-56055012D01*
X151038616Y-56069578D01*
X150955764Y-56079539D01*
X150866371Y-56084583D01*
X150778248Y-56084396D01*
X150699207Y-56078666D01*
X150661511Y-56072858D01*
X150523414Y-56034797D01*
X150396113Y-55977073D01*
X150280292Y-55900211D01*
X150176637Y-55804739D01*
X150085833Y-55691179D01*
X150019031Y-55580381D01*
X149964164Y-55463625D01*
X149922163Y-55344276D01*
X149892167Y-55218283D01*
X149873311Y-55081594D01*
X149864732Y-54930158D01*
X149864006Y-54852711D01*
X149866100Y-54795934D01*
X150695217Y-54795934D01*
X150695424Y-54889002D01*
X150698337Y-54976692D01*
X150704000Y-55053772D01*
X150712455Y-55115009D01*
X150715038Y-55127350D01*
X150746840Y-55234633D01*
X150788498Y-55321658D01*
X150840363Y-55388642D01*
X150902781Y-55435805D01*
X150976100Y-55463365D01*
X151060669Y-55471541D01*
X151156835Y-55460551D01*
X151220311Y-55444829D01*
X151269454Y-55426639D01*
X151323583Y-55400791D01*
X151364244Y-55377089D01*
X151434800Y-55330721D01*
X151434800Y-54180530D01*
X151367392Y-54136962D01*
X151288867Y-54096040D01*
X151204681Y-54069389D01*
X151119557Y-54057465D01*
X151038216Y-54060722D01*
X150965380Y-54079615D01*
X150933426Y-54095184D01*
X150875501Y-54138181D01*
X150826544Y-54194953D01*
X150785390Y-54267575D01*
X150750874Y-54358121D01*
X150721833Y-54468666D01*
X150720552Y-54474533D01*
X150710381Y-54536788D01*
X150702739Y-54614594D01*
X150697670Y-54702720D01*
X150695217Y-54795934D01*
X149866100Y-54795934D01*
X149871857Y-54639895D01*
X149893802Y-54444059D01*
X149929786Y-54265332D01*
X149979759Y-54103845D01*
X150043668Y-53959726D01*
X150121462Y-53833106D01*
X150213089Y-53724115D01*
X150318497Y-53632883D01*
X150363662Y-53601932D01*
X150464611Y-53545785D01*
X150567901Y-53506174D01*
X150677989Y-53482014D01*
X150799330Y-53472219D01*
X150891836Y-53473265D01*
X151021490Y-53484231D01*
X151134084Y-53506046D01*
X151232875Y-53539714D01*
X151321121Y-53586236D01*
X151369986Y-53620448D01*
X151399353Y-53642362D01*
X151421043Y-53657333D01*
X151429253Y-53661733D01*
X151430868Y-53650904D01*
X151432159Y-53620251D01*
X151433138Y-53572526D01*
X151433817Y-53510479D01*
X151434210Y-53436862D01*
X151434330Y-53354427D01*
X151434188Y-53265925D01*
X151433797Y-53174107D01*
X151433171Y-53081724D01*
X151432320Y-52991528D01*
X151431260Y-52906271D01*
X151430001Y-52828703D01*
X151428556Y-52761576D01*
X151426938Y-52707641D01*
X151425161Y-52669650D01*
X151424669Y-52662667D01*
X151417092Y-52592251D01*
X151405531Y-52537102D01*
X151387792Y-52489981D01*
X151361682Y-52443647D01*
X151355415Y-52434067D01*
X151330983Y-52397378D01*
X152236311Y-52397378D01*
X152236507Y-54082245D01*
G37*
X152236507Y-54082245D02*
X152236526Y-54316662D01*
X152236552Y-54529603D01*
X152236625Y-54722168D01*
X152236782Y-54895459D01*
X152237064Y-55050576D01*
X152237509Y-55188620D01*
X152238156Y-55310692D01*
X152239045Y-55417894D01*
X152240213Y-55511326D01*
X152241701Y-55592090D01*
X152243546Y-55661286D01*
X152245789Y-55720015D01*
X152248469Y-55769379D01*
X152251623Y-55810478D01*
X152255292Y-55844413D01*
X152259513Y-55872286D01*
X152264327Y-55895198D01*
X152269773Y-55914249D01*
X152275888Y-55930540D01*
X152282712Y-55945173D01*
X152290285Y-55959249D01*
X152298645Y-55973868D01*
X152303839Y-55982974D01*
X152338104Y-56043689D01*
X151479955Y-56043689D01*
X151479955Y-55947733D01*
X151479224Y-55904370D01*
X151477272Y-55871205D01*
X151474463Y-55853424D01*
X151473221Y-55851778D01*
X151461799Y-55858662D01*
X151439084Y-55876505D01*
X151416385Y-55895879D01*
X151361800Y-55936614D01*
X151292321Y-55977617D01*
X151215270Y-56015123D01*
X151137965Y-56045364D01*
X151107113Y-56055012D01*
X151038616Y-56069578D01*
X150955764Y-56079539D01*
X150866371Y-56084583D01*
X150778248Y-56084396D01*
X150699207Y-56078666D01*
X150661511Y-56072858D01*
X150523414Y-56034797D01*
X150396113Y-55977073D01*
X150280292Y-55900211D01*
X150176637Y-55804739D01*
X150085833Y-55691179D01*
X150019031Y-55580381D01*
X149964164Y-55463625D01*
X149922163Y-55344276D01*
X149892167Y-55218283D01*
X149873311Y-55081594D01*
X149864732Y-54930158D01*
X149864006Y-54852711D01*
X149866100Y-54795934D01*
X150695217Y-54795934D01*
X150695424Y-54889002D01*
X150698337Y-54976692D01*
X150704000Y-55053772D01*
X150712455Y-55115009D01*
X150715038Y-55127350D01*
X150746840Y-55234633D01*
X150788498Y-55321658D01*
X150840363Y-55388642D01*
X150902781Y-55435805D01*
X150976100Y-55463365D01*
X151060669Y-55471541D01*
X151156835Y-55460551D01*
X151220311Y-55444829D01*
X151269454Y-55426639D01*
X151323583Y-55400791D01*
X151364244Y-55377089D01*
X151434800Y-55330721D01*
X151434800Y-54180530D01*
X151367392Y-54136962D01*
X151288867Y-54096040D01*
X151204681Y-54069389D01*
X151119557Y-54057465D01*
X151038216Y-54060722D01*
X150965380Y-54079615D01*
X150933426Y-54095184D01*
X150875501Y-54138181D01*
X150826544Y-54194953D01*
X150785390Y-54267575D01*
X150750874Y-54358121D01*
X150721833Y-54468666D01*
X150720552Y-54474533D01*
X150710381Y-54536788D01*
X150702739Y-54614594D01*
X150697670Y-54702720D01*
X150695217Y-54795934D01*
X149866100Y-54795934D01*
X149871857Y-54639895D01*
X149893802Y-54444059D01*
X149929786Y-54265332D01*
X149979759Y-54103845D01*
X150043668Y-53959726D01*
X150121462Y-53833106D01*
X150213089Y-53724115D01*
X150318497Y-53632883D01*
X150363662Y-53601932D01*
X150464611Y-53545785D01*
X150567901Y-53506174D01*
X150677989Y-53482014D01*
X150799330Y-53472219D01*
X150891836Y-53473265D01*
X151021490Y-53484231D01*
X151134084Y-53506046D01*
X151232875Y-53539714D01*
X151321121Y-53586236D01*
X151369986Y-53620448D01*
X151399353Y-53642362D01*
X151421043Y-53657333D01*
X151429253Y-53661733D01*
X151430868Y-53650904D01*
X151432159Y-53620251D01*
X151433138Y-53572526D01*
X151433817Y-53510479D01*
X151434210Y-53436862D01*
X151434330Y-53354427D01*
X151434188Y-53265925D01*
X151433797Y-53174107D01*
X151433171Y-53081724D01*
X151432320Y-52991528D01*
X151431260Y-52906271D01*
X151430001Y-52828703D01*
X151428556Y-52761576D01*
X151426938Y-52707641D01*
X151425161Y-52669650D01*
X151424669Y-52662667D01*
X151417092Y-52592251D01*
X151405531Y-52537102D01*
X151387792Y-52489981D01*
X151361682Y-52443647D01*
X151355415Y-52434067D01*
X151330983Y-52397378D01*
X152236311Y-52397378D01*
X152236507Y-54082245D01*
G36*
X148723574Y-53476552D02*
G01*
X148875492Y-53496567D01*
X149010756Y-53530202D01*
X149130239Y-53577725D01*
X149234815Y-53639405D01*
X149312424Y-53702965D01*
X149381265Y-53777099D01*
X149435006Y-53856871D01*
X149477910Y-53949091D01*
X149493384Y-53992161D01*
X149506244Y-54031142D01*
X149517446Y-54067289D01*
X149527120Y-54102434D01*
X149535396Y-54138410D01*
X149542403Y-54177050D01*
X149548272Y-54220185D01*
X149553131Y-54269649D01*
X149557110Y-54327273D01*
X149560340Y-54394891D01*
X149562949Y-54474334D01*
X149565067Y-54567436D01*
X149566824Y-54676027D01*
X149568349Y-54801942D01*
X149569772Y-54947012D01*
X149571025Y-55089778D01*
X149572351Y-55245968D01*
X149573556Y-55381239D01*
X149574766Y-55497246D01*
X149576106Y-55595645D01*
X149577700Y-55678093D01*
X149579675Y-55746246D01*
X149582156Y-55801760D01*
X149585269Y-55846292D01*
X149589138Y-55881498D01*
X149593889Y-55909034D01*
X149599648Y-55930556D01*
X149606539Y-55947722D01*
X149614689Y-55962186D01*
X149624223Y-55975606D01*
X149635266Y-55989638D01*
X149639566Y-55995071D01*
X149655386Y-56017910D01*
X149662422Y-56033463D01*
X149662444Y-56033922D01*
X149651567Y-56036121D01*
X149620582Y-56038147D01*
X149571957Y-56039942D01*
X149508163Y-56041451D01*
X149431669Y-56042616D01*
X149344944Y-56043380D01*
X149250457Y-56043686D01*
X149239550Y-56043689D01*
X148816657Y-56043689D01*
X148813395Y-55947622D01*
X148810133Y-55851556D01*
X148748044Y-55902543D01*
X148650714Y-55970057D01*
X148540813Y-56024749D01*
X148454349Y-56054978D01*
X148385278Y-56069666D01*
X148301925Y-56079659D01*
X148212159Y-56084646D01*
X148123845Y-56084313D01*
X148044851Y-56078351D01*
X148008622Y-56072638D01*
X147868603Y-56034776D01*
X147742178Y-55979932D01*
X147630260Y-55908924D01*
X147533762Y-55822568D01*
X147453600Y-55721679D01*
X147390687Y-55607076D01*
X147346312Y-55480984D01*
X147333978Y-55424401D01*
X147326368Y-55362202D01*
X147322739Y-55287363D01*
X147322245Y-55253467D01*
X147322310Y-55250282D01*
X148082248Y-55250282D01*
X148091541Y-55325333D01*
X148119728Y-55389160D01*
X148168197Y-55444798D01*
X148173254Y-55449211D01*
X148221548Y-55484037D01*
X148273257Y-55506620D01*
X148333989Y-55518540D01*
X148409352Y-55521383D01*
X148427459Y-55520978D01*
X148481278Y-55518325D01*
X148521308Y-55512909D01*
X148556324Y-55502745D01*
X148595103Y-55485850D01*
X148605745Y-55480672D01*
X148666396Y-55444844D01*
X148713215Y-55402212D01*
X148725952Y-55386973D01*
X148770622Y-55330462D01*
X148770622Y-55134586D01*
X148770086Y-55055939D01*
X148768396Y-54997988D01*
X148765428Y-54958875D01*
X148761057Y-54936741D01*
X148756972Y-54930274D01*
X148741047Y-54927111D01*
X148707264Y-54924488D01*
X148660340Y-54922655D01*
X148604993Y-54921857D01*
X148596106Y-54921842D01*
X148475330Y-54927096D01*
X148372660Y-54943263D01*
X148286106Y-54970961D01*
X148213681Y-55010808D01*
X148158751Y-55057758D01*
X148114204Y-55115645D01*
X148089480Y-55178693D01*
X148082248Y-55250282D01*
X147322310Y-55250282D01*
X147324178Y-55159712D01*
X147332522Y-55080812D01*
X147348768Y-55009590D01*
X147374405Y-54938864D01*
X147398401Y-54886493D01*
X147457020Y-54791196D01*
X147535117Y-54703170D01*
X147630315Y-54624017D01*
X147740238Y-54555340D01*
X147862510Y-54498741D01*
X147994755Y-54455821D01*
X148059422Y-54440882D01*
X148195604Y-54418777D01*
X148344049Y-54404194D01*
X148495505Y-54397813D01*
X148622064Y-54399445D01*
X148783950Y-54406224D01*
X148776530Y-54347245D01*
X148757238Y-54248092D01*
X148726104Y-54167372D01*
X148682269Y-54104466D01*
X148624871Y-54058756D01*
X148553048Y-54029622D01*
X148465941Y-54016447D01*
X148362686Y-54018611D01*
X148324711Y-54022612D01*
X148183520Y-54047780D01*
X148046707Y-54088814D01*
X147952178Y-54126815D01*
X147907018Y-54146190D01*
X147868585Y-54161760D01*
X147842234Y-54171405D01*
X147834546Y-54173452D01*
X147824802Y-54164374D01*
X147808083Y-54135405D01*
X147784232Y-54086217D01*
X147753093Y-54016484D01*
X147714507Y-53925879D01*
X147707910Y-53910089D01*
X147677853Y-53837772D01*
X147650874Y-53772425D01*
X147628136Y-53716906D01*
X147610806Y-53674072D01*
X147600048Y-53646781D01*
X147596941Y-53637942D01*
X147606940Y-53633187D01*
X147633217Y-53627910D01*
X147661489Y-53624231D01*
X147691646Y-53619474D01*
X147739433Y-53610028D01*
X147800612Y-53596820D01*
X147870946Y-53580776D01*
X147946194Y-53562820D01*
X147974755Y-53555797D01*
X148079816Y-53530209D01*
X148167480Y-53510147D01*
X148242068Y-53494969D01*
X148307903Y-53484035D01*
X148369307Y-53476704D01*
X148430602Y-53472335D01*
X148496110Y-53470287D01*
X148554128Y-53469889D01*
X148723574Y-53476552D01*
G37*
X148723574Y-53476552D02*
X148875492Y-53496567D01*
X149010756Y-53530202D01*
X149130239Y-53577725D01*
X149234815Y-53639405D01*
X149312424Y-53702965D01*
X149381265Y-53777099D01*
X149435006Y-53856871D01*
X149477910Y-53949091D01*
X149493384Y-53992161D01*
X149506244Y-54031142D01*
X149517446Y-54067289D01*
X149527120Y-54102434D01*
X149535396Y-54138410D01*
X149542403Y-54177050D01*
X149548272Y-54220185D01*
X149553131Y-54269649D01*
X149557110Y-54327273D01*
X149560340Y-54394891D01*
X149562949Y-54474334D01*
X149565067Y-54567436D01*
X149566824Y-54676027D01*
X149568349Y-54801942D01*
X149569772Y-54947012D01*
X149571025Y-55089778D01*
X149572351Y-55245968D01*
X149573556Y-55381239D01*
X149574766Y-55497246D01*
X149576106Y-55595645D01*
X149577700Y-55678093D01*
X149579675Y-55746246D01*
X149582156Y-55801760D01*
X149585269Y-55846292D01*
X149589138Y-55881498D01*
X149593889Y-55909034D01*
X149599648Y-55930556D01*
X149606539Y-55947722D01*
X149614689Y-55962186D01*
X149624223Y-55975606D01*
X149635266Y-55989638D01*
X149639566Y-55995071D01*
X149655386Y-56017910D01*
X149662422Y-56033463D01*
X149662444Y-56033922D01*
X149651567Y-56036121D01*
X149620582Y-56038147D01*
X149571957Y-56039942D01*
X149508163Y-56041451D01*
X149431669Y-56042616D01*
X149344944Y-56043380D01*
X149250457Y-56043686D01*
X149239550Y-56043689D01*
X148816657Y-56043689D01*
X148813395Y-55947622D01*
X148810133Y-55851556D01*
X148748044Y-55902543D01*
X148650714Y-55970057D01*
X148540813Y-56024749D01*
X148454349Y-56054978D01*
X148385278Y-56069666D01*
X148301925Y-56079659D01*
X148212159Y-56084646D01*
X148123845Y-56084313D01*
X148044851Y-56078351D01*
X148008622Y-56072638D01*
X147868603Y-56034776D01*
X147742178Y-55979932D01*
X147630260Y-55908924D01*
X147533762Y-55822568D01*
X147453600Y-55721679D01*
X147390687Y-55607076D01*
X147346312Y-55480984D01*
X147333978Y-55424401D01*
X147326368Y-55362202D01*
X147322739Y-55287363D01*
X147322245Y-55253467D01*
X147322310Y-55250282D01*
X148082248Y-55250282D01*
X148091541Y-55325333D01*
X148119728Y-55389160D01*
X148168197Y-55444798D01*
X148173254Y-55449211D01*
X148221548Y-55484037D01*
X148273257Y-55506620D01*
X148333989Y-55518540D01*
X148409352Y-55521383D01*
X148427459Y-55520978D01*
X148481278Y-55518325D01*
X148521308Y-55512909D01*
X148556324Y-55502745D01*
X148595103Y-55485850D01*
X148605745Y-55480672D01*
X148666396Y-55444844D01*
X148713215Y-55402212D01*
X148725952Y-55386973D01*
X148770622Y-55330462D01*
X148770622Y-55134586D01*
X148770086Y-55055939D01*
X148768396Y-54997988D01*
X148765428Y-54958875D01*
X148761057Y-54936741D01*
X148756972Y-54930274D01*
X148741047Y-54927111D01*
X148707264Y-54924488D01*
X148660340Y-54922655D01*
X148604993Y-54921857D01*
X148596106Y-54921842D01*
X148475330Y-54927096D01*
X148372660Y-54943263D01*
X148286106Y-54970961D01*
X148213681Y-55010808D01*
X148158751Y-55057758D01*
X148114204Y-55115645D01*
X148089480Y-55178693D01*
X148082248Y-55250282D01*
X147322310Y-55250282D01*
X147324178Y-55159712D01*
X147332522Y-55080812D01*
X147348768Y-55009590D01*
X147374405Y-54938864D01*
X147398401Y-54886493D01*
X147457020Y-54791196D01*
X147535117Y-54703170D01*
X147630315Y-54624017D01*
X147740238Y-54555340D01*
X147862510Y-54498741D01*
X147994755Y-54455821D01*
X148059422Y-54440882D01*
X148195604Y-54418777D01*
X148344049Y-54404194D01*
X148495505Y-54397813D01*
X148622064Y-54399445D01*
X148783950Y-54406224D01*
X148776530Y-54347245D01*
X148757238Y-54248092D01*
X148726104Y-54167372D01*
X148682269Y-54104466D01*
X148624871Y-54058756D01*
X148553048Y-54029622D01*
X148465941Y-54016447D01*
X148362686Y-54018611D01*
X148324711Y-54022612D01*
X148183520Y-54047780D01*
X148046707Y-54088814D01*
X147952178Y-54126815D01*
X147907018Y-54146190D01*
X147868585Y-54161760D01*
X147842234Y-54171405D01*
X147834546Y-54173452D01*
X147824802Y-54164374D01*
X147808083Y-54135405D01*
X147784232Y-54086217D01*
X147753093Y-54016484D01*
X147714507Y-53925879D01*
X147707910Y-53910089D01*
X147677853Y-53837772D01*
X147650874Y-53772425D01*
X147628136Y-53716906D01*
X147610806Y-53674072D01*
X147600048Y-53646781D01*
X147596941Y-53637942D01*
X147606940Y-53633187D01*
X147633217Y-53627910D01*
X147661489Y-53624231D01*
X147691646Y-53619474D01*
X147739433Y-53610028D01*
X147800612Y-53596820D01*
X147870946Y-53580776D01*
X147946194Y-53562820D01*
X147974755Y-53555797D01*
X148079816Y-53530209D01*
X148167480Y-53510147D01*
X148242068Y-53494969D01*
X148307903Y-53484035D01*
X148369307Y-53476704D01*
X148430602Y-53472335D01*
X148496110Y-53470287D01*
X148554128Y-53469889D01*
X148723574Y-53476552D01*
G36*
X146378429Y-52559071D02*
G01*
X146538570Y-52580245D01*
X146702510Y-52620385D01*
X146872313Y-52679889D01*
X147050043Y-52759154D01*
X147061310Y-52764699D01*
X147119005Y-52792725D01*
X147170552Y-52816802D01*
X147212191Y-52835249D01*
X147240162Y-52846386D01*
X147249733Y-52848933D01*
X147268950Y-52853941D01*
X147273561Y-52858147D01*
X147268458Y-52868580D01*
X147252418Y-52894868D01*
X147227288Y-52934257D01*
X147194914Y-52983991D01*
X147157143Y-53041315D01*
X147115822Y-53103476D01*
X147072798Y-53167718D01*
X147029917Y-53231285D01*
X146989026Y-53291425D01*
X146951971Y-53345380D01*
X146920600Y-53390397D01*
X146896759Y-53423721D01*
X146882294Y-53442597D01*
X146880309Y-53444787D01*
X146870191Y-53440138D01*
X146847850Y-53422962D01*
X146817280Y-53396440D01*
X146801536Y-53381964D01*
X146705047Y-53306682D01*
X146598336Y-53251241D01*
X146482832Y-53216141D01*
X146359962Y-53201880D01*
X146290561Y-53203051D01*
X146169423Y-53220212D01*
X146060205Y-53256094D01*
X145962582Y-53310959D01*
X145876228Y-53385070D01*
X145800815Y-53478688D01*
X145736018Y-53592076D01*
X145698601Y-53678667D01*
X145654748Y-53814366D01*
X145622428Y-53961850D01*
X145601557Y-54117314D01*
X145592051Y-54276956D01*
X145593827Y-54436973D01*
X145606803Y-54593561D01*
X145630894Y-54742918D01*
X145666018Y-54881240D01*
X145712092Y-55004724D01*
X145728373Y-55038978D01*
X145796620Y-55153064D01*
X145877079Y-55249557D01*
X145968570Y-55327670D01*
X146069911Y-55386617D01*
X146179920Y-55425612D01*
X146297415Y-55443868D01*
X146338883Y-55445211D01*
X146460441Y-55434290D01*
X146580878Y-55401474D01*
X146698666Y-55347439D01*
X146812277Y-55272865D01*
X146903685Y-55194539D01*
X146950215Y-55150008D01*
X147131483Y-55447271D01*
X147176580Y-55521433D01*
X147217819Y-55589646D01*
X147253735Y-55649459D01*
X147282866Y-55698420D01*
X147303750Y-55734079D01*
X147314924Y-55753984D01*
X147316375Y-55757079D01*
X147308146Y-55766718D01*
X147282567Y-55783999D01*
X147242873Y-55807283D01*
X147192297Y-55834934D01*
X147134074Y-55865315D01*
X147071437Y-55896790D01*
X147007621Y-55927722D01*
X146945860Y-55956473D01*
X146889388Y-55981408D01*
X146841438Y-56000889D01*
X146817986Y-56009318D01*
X146684221Y-56047133D01*
X146546327Y-56072136D01*
X146398622Y-56085140D01*
X146271833Y-56087468D01*
X146203878Y-56086373D01*
X146138277Y-56084275D01*
X146080847Y-56081434D01*
X146037403Y-56078106D01*
X146023298Y-56076422D01*
X145884284Y-56047587D01*
X145742757Y-56002468D01*
X145605275Y-55943750D01*
X145478394Y-55874120D01*
X145400889Y-55821441D01*
X145273481Y-55713239D01*
X145155178Y-55586671D01*
X145048172Y-55444866D01*
X144954652Y-55290951D01*
X144876810Y-55128053D01*
X144832956Y-55010756D01*
X144782708Y-54827128D01*
X144749209Y-54632581D01*
X144732449Y-54431325D01*
X144732416Y-54227568D01*
X144749101Y-54025521D01*
X144782493Y-53829392D01*
X144832580Y-53643391D01*
X144836397Y-53631803D01*
X144899281Y-53469750D01*
X144976028Y-53321832D01*
X145069242Y-53183865D01*
X145181527Y-53051661D01*
X145225392Y-53006399D01*
X145361534Y-52882457D01*
X145501491Y-52779915D01*
X145647411Y-52697656D01*
X145801442Y-52634564D01*
X145965732Y-52589523D01*
X146061289Y-52572033D01*
X146220023Y-52556466D01*
X146378429Y-52559071D01*
G37*
X146378429Y-52559071D02*
X146538570Y-52580245D01*
X146702510Y-52620385D01*
X146872313Y-52679889D01*
X147050043Y-52759154D01*
X147061310Y-52764699D01*
X147119005Y-52792725D01*
X147170552Y-52816802D01*
X147212191Y-52835249D01*
X147240162Y-52846386D01*
X147249733Y-52848933D01*
X147268950Y-52853941D01*
X147273561Y-52858147D01*
X147268458Y-52868580D01*
X147252418Y-52894868D01*
X147227288Y-52934257D01*
X147194914Y-52983991D01*
X147157143Y-53041315D01*
X147115822Y-53103476D01*
X147072798Y-53167718D01*
X147029917Y-53231285D01*
X146989026Y-53291425D01*
X146951971Y-53345380D01*
X146920600Y-53390397D01*
X146896759Y-53423721D01*
X146882294Y-53442597D01*
X146880309Y-53444787D01*
X146870191Y-53440138D01*
X146847850Y-53422962D01*
X146817280Y-53396440D01*
X146801536Y-53381964D01*
X146705047Y-53306682D01*
X146598336Y-53251241D01*
X146482832Y-53216141D01*
X146359962Y-53201880D01*
X146290561Y-53203051D01*
X146169423Y-53220212D01*
X146060205Y-53256094D01*
X145962582Y-53310959D01*
X145876228Y-53385070D01*
X145800815Y-53478688D01*
X145736018Y-53592076D01*
X145698601Y-53678667D01*
X145654748Y-53814366D01*
X145622428Y-53961850D01*
X145601557Y-54117314D01*
X145592051Y-54276956D01*
X145593827Y-54436973D01*
X145606803Y-54593561D01*
X145630894Y-54742918D01*
X145666018Y-54881240D01*
X145712092Y-55004724D01*
X145728373Y-55038978D01*
X145796620Y-55153064D01*
X145877079Y-55249557D01*
X145968570Y-55327670D01*
X146069911Y-55386617D01*
X146179920Y-55425612D01*
X146297415Y-55443868D01*
X146338883Y-55445211D01*
X146460441Y-55434290D01*
X146580878Y-55401474D01*
X146698666Y-55347439D01*
X146812277Y-55272865D01*
X146903685Y-55194539D01*
X146950215Y-55150008D01*
X147131483Y-55447271D01*
X147176580Y-55521433D01*
X147217819Y-55589646D01*
X147253735Y-55649459D01*
X147282866Y-55698420D01*
X147303750Y-55734079D01*
X147314924Y-55753984D01*
X147316375Y-55757079D01*
X147308146Y-55766718D01*
X147282567Y-55783999D01*
X147242873Y-55807283D01*
X147192297Y-55834934D01*
X147134074Y-55865315D01*
X147071437Y-55896790D01*
X147007621Y-55927722D01*
X146945860Y-55956473D01*
X146889388Y-55981408D01*
X146841438Y-56000889D01*
X146817986Y-56009318D01*
X146684221Y-56047133D01*
X146546327Y-56072136D01*
X146398622Y-56085140D01*
X146271833Y-56087468D01*
X146203878Y-56086373D01*
X146138277Y-56084275D01*
X146080847Y-56081434D01*
X146037403Y-56078106D01*
X146023298Y-56076422D01*
X145884284Y-56047587D01*
X145742757Y-56002468D01*
X145605275Y-55943750D01*
X145478394Y-55874120D01*
X145400889Y-55821441D01*
X145273481Y-55713239D01*
X145155178Y-55586671D01*
X145048172Y-55444866D01*
X144954652Y-55290951D01*
X144876810Y-55128053D01*
X144832956Y-55010756D01*
X144782708Y-54827128D01*
X144749209Y-54632581D01*
X144732449Y-54431325D01*
X144732416Y-54227568D01*
X144749101Y-54025521D01*
X144782493Y-53829392D01*
X144832580Y-53643391D01*
X144836397Y-53631803D01*
X144899281Y-53469750D01*
X144976028Y-53321832D01*
X145069242Y-53183865D01*
X145181527Y-53051661D01*
X145225392Y-53006399D01*
X145361534Y-52882457D01*
X145501491Y-52779915D01*
X145647411Y-52697656D01*
X145801442Y-52634564D01*
X145965732Y-52589523D01*
X146061289Y-52572033D01*
X146220023Y-52556466D01*
X146378429Y-52559071D01*
G36*
X143103600Y-52099054D02*
G01*
X143114465Y-52212993D01*
X143146082Y-52320616D01*
X143196985Y-52419615D01*
X143265707Y-52507684D01*
X143350781Y-52582516D01*
X143447768Y-52640384D01*
X143554036Y-52680005D01*
X143661050Y-52698573D01*
X143766700Y-52697434D01*
X143868875Y-52677930D01*
X143965466Y-52641406D01*
X144054362Y-52589205D01*
X144133454Y-52522673D01*
X144200631Y-52443152D01*
X144253783Y-52351987D01*
X144290801Y-52250523D01*
X144309573Y-52140102D01*
X144311511Y-52090206D01*
X144311511Y-52002267D01*
X144363440Y-52002267D01*
X144399747Y-52005111D01*
X144426645Y-52016911D01*
X144453751Y-52040649D01*
X144492133Y-52079031D01*
X144492133Y-54270602D01*
X144492124Y-54532739D01*
X144492092Y-54773241D01*
X144492028Y-54993048D01*
X144491924Y-55193101D01*
X144491773Y-55374344D01*
X144491566Y-55537716D01*
X144491294Y-55684160D01*
X144490950Y-55814617D01*
X144490526Y-55930029D01*
X144490013Y-56031338D01*
X144489403Y-56119484D01*
X144488688Y-56195410D01*
X144487860Y-56260057D01*
X144486911Y-56314367D01*
X144485833Y-56359280D01*
X144484617Y-56395740D01*
X144483255Y-56424687D01*
X144481739Y-56447063D01*
X144480062Y-56463809D01*
X144478214Y-56475868D01*
X144476187Y-56484180D01*
X144473975Y-56489687D01*
X144472892Y-56491537D01*
X144468729Y-56498549D01*
X144465195Y-56504996D01*
X144461365Y-56510900D01*
X144456318Y-56516286D01*
X144449129Y-56521178D01*
X144438877Y-56525598D01*
X144424636Y-56529572D01*
X144405486Y-56533121D01*
X144380501Y-56536270D01*
X144348760Y-56539042D01*
X144309338Y-56541461D01*
X144261314Y-56543551D01*
X144203763Y-56545335D01*
X144135763Y-56546837D01*
X144056390Y-56548080D01*
X143964721Y-56549089D01*
X143859834Y-56549885D01*
X143740804Y-56550494D01*
X143606710Y-56550939D01*
X143456627Y-56551243D01*
X143289633Y-56551430D01*
X143104804Y-56551524D01*
X142901217Y-56551548D01*
X142677950Y-56551525D01*
X142434078Y-56551480D01*
X142168679Y-56551437D01*
X142130296Y-56551432D01*
X141863318Y-56551389D01*
X141617998Y-56551318D01*
X141393417Y-56551213D01*
X141188655Y-56551066D01*
X141002794Y-56550869D01*
X140834912Y-56550616D01*
X140684092Y-56550300D01*
X140549413Y-56549913D01*
X140429956Y-56549447D01*
X140324801Y-56548897D01*
X140233029Y-56548253D01*
X140153721Y-56547511D01*
X140085957Y-56546661D01*
X140028818Y-56545697D01*
X139981383Y-56544611D01*
X139942734Y-56543397D01*
X139911951Y-56542047D01*
X139888115Y-56540555D01*
X139870306Y-56538911D01*
X139857605Y-56537111D01*
X139849092Y-56535145D01*
X139844734Y-56533477D01*
X139836272Y-56529906D01*
X139828503Y-56527270D01*
X139821398Y-56524634D01*
X139814927Y-56521062D01*
X139809061Y-56515621D01*
X139803771Y-56507375D01*
X139799026Y-56495390D01*
X139794798Y-56478731D01*
X139791057Y-56456463D01*
X139787773Y-56427652D01*
X139784917Y-56391363D01*
X139782460Y-56346661D01*
X139780371Y-56292611D01*
X139778622Y-56228279D01*
X139777183Y-56152730D01*
X139776024Y-56065030D01*
X139775117Y-55964243D01*
X139774431Y-55849434D01*
X139773937Y-55719670D01*
X139773605Y-55574015D01*
X139773407Y-55411535D01*
X139773313Y-55231295D01*
X139773292Y-55032360D01*
X139773315Y-54813796D01*
X139773354Y-54574668D01*
X139773378Y-54314040D01*
X139773378Y-54271889D01*
X139773364Y-54008992D01*
X139773339Y-53767732D01*
X139773329Y-53547165D01*
X139773358Y-53346352D01*
X139773452Y-53164349D01*
X139773638Y-53000216D01*
X139773941Y-52853011D01*
X139774386Y-52721792D01*
X139774966Y-52611867D01*
X140077803Y-52611867D01*
X140117593Y-52669711D01*
X140128764Y-52685479D01*
X140138834Y-52699441D01*
X140147862Y-52712784D01*
X140155903Y-52726693D01*
X140163014Y-52742356D01*
X140169253Y-52760958D01*
X140174675Y-52783686D01*
X140179338Y-52811727D01*
X140183299Y-52846267D01*
X140186615Y-52888492D01*
X140189341Y-52939589D01*
X140191536Y-53000744D01*
X140193255Y-53073144D01*
X140194556Y-53157975D01*
X140195495Y-53256422D01*
X140196130Y-53369674D01*
X140196516Y-53498916D01*
X140196712Y-53645334D01*
X140196773Y-53810116D01*
X140196757Y-53994447D01*
X140196720Y-54199513D01*
X140196711Y-54322133D01*
X140196735Y-54539082D01*
X140196769Y-54734642D01*
X140196757Y-54909999D01*
X140196642Y-55066341D01*
X140196370Y-55204857D01*
X140195882Y-55326734D01*
X140195124Y-55433160D01*
X140194038Y-55525322D01*
X140192569Y-55604409D01*
X140190660Y-55671608D01*
X140188256Y-55728107D01*
X140185299Y-55775093D01*
X140181734Y-55813755D01*
X140177505Y-55845280D01*
X140172554Y-55870855D01*
X140166827Y-55891670D01*
X140160267Y-55908911D01*
X140152817Y-55923765D01*
X140144421Y-55937422D01*
X140135024Y-55951069D01*
X140124568Y-55965893D01*
X140118477Y-55974783D01*
X140079704Y-56032400D01*
X140611268Y-56032400D01*
X140734517Y-56032365D01*
X140837013Y-56032215D01*
X140920580Y-56031878D01*
X140987044Y-56031286D01*
X141038229Y-56030367D01*
X141075959Y-56029051D01*
X141102060Y-56027269D01*
X141118356Y-56024951D01*
X141126672Y-56022026D01*
X141128832Y-56018424D01*
X141126661Y-56014075D01*
X141125465Y-56012645D01*
X141100315Y-55975573D01*
X141074417Y-55922772D01*
X141050808Y-55860770D01*
X141042539Y-55834357D01*
X141037922Y-55816416D01*
X141034021Y-55795355D01*
X141030752Y-55769089D01*
X141028034Y-55735532D01*
X141025785Y-55692599D01*
X141023923Y-55638204D01*
X141022364Y-55570262D01*
X141021028Y-55486688D01*
X141019831Y-55385395D01*
X141018692Y-55264300D01*
X141018315Y-55219600D01*
X141017298Y-55094449D01*
X141016540Y-54990082D01*
X141016097Y-54904707D01*
X141016030Y-54836533D01*
X141016395Y-54783765D01*
X141017252Y-54744614D01*
X141018659Y-54717285D01*
X141020675Y-54699986D01*
X141023357Y-54690926D01*
X141026764Y-54688312D01*
X141030956Y-54690351D01*
X141035429Y-54694667D01*
X141045784Y-54707602D01*
X141067842Y-54736676D01*
X141100043Y-54779759D01*
X141140826Y-54834718D01*
X141188630Y-54899423D01*
X141241895Y-54971742D01*
X141299060Y-55049544D01*
X141358563Y-55130698D01*
X141418845Y-55213072D01*
X141478345Y-55294536D01*
X141535502Y-55372957D01*
X141588755Y-55446204D01*
X141636543Y-55512147D01*
X141677307Y-55568654D01*
X141709484Y-55613593D01*
X141731515Y-55644834D01*
X141736083Y-55651466D01*
X141759004Y-55688369D01*
X141785812Y-55736359D01*
X141811211Y-55785897D01*
X141814432Y-55792577D01*
X141836110Y-55840772D01*
X141848696Y-55878334D01*
X141854426Y-55914160D01*
X141855544Y-55956200D01*
X141854910Y-56032400D01*
X143009349Y-56032400D01*
X142918185Y-55938669D01*
X142871388Y-55888775D01*
X142821101Y-55832295D01*
X142775056Y-55778026D01*
X142754631Y-55752673D01*
X142724193Y-55713128D01*
X142684138Y-55659916D01*
X142635639Y-55594667D01*
X142579865Y-55519011D01*
X142517989Y-55434577D01*
X142451181Y-55342994D01*
X142380613Y-55245892D01*
X142307455Y-55144901D01*
X142232879Y-55041650D01*
X142158056Y-54937768D01*
X142084157Y-54834885D01*
X142012354Y-54734631D01*
X141943816Y-54638636D01*
X141879716Y-54548527D01*
X141821225Y-54465936D01*
X141769514Y-54392492D01*
X141725753Y-54329824D01*
X141691115Y-54279561D01*
X141666770Y-54243334D01*
X141653889Y-54222771D01*
X141652131Y-54218668D01*
X141660090Y-54207342D01*
X141680885Y-54180162D01*
X141713153Y-54138829D01*
X141755530Y-54085044D01*
X141806653Y-54020506D01*
X141865159Y-53946918D01*
X141929686Y-53865978D01*
X141998869Y-53779388D01*
X142071347Y-53688848D01*
X142145754Y-53596060D01*
X142205483Y-53521702D01*
X143216489Y-53521702D01*
X143222398Y-53534659D01*
X143236728Y-53556908D01*
X143237775Y-53558391D01*
X143256562Y-53588544D01*
X143276209Y-53625375D01*
X143280108Y-53633511D01*
X143283644Y-53641940D01*
X143286770Y-53652059D01*
X143289514Y-53665260D01*
X143291908Y-53682938D01*
X143293981Y-53706484D01*
X143295765Y-53737293D01*
X143297288Y-53776757D01*
X143298581Y-53826269D01*
X143299674Y-53887223D01*
X143300597Y-53961011D01*
X143301381Y-54049028D01*
X143302055Y-54152665D01*
X143302650Y-54273316D01*
X143303195Y-54412374D01*
X143303721Y-54571232D01*
X143304255Y-54750089D01*
X143304794Y-54935207D01*
X143305228Y-55099145D01*
X143305491Y-55243303D01*
X143305516Y-55369079D01*
X143305235Y-55477871D01*
X143304581Y-55571077D01*
X143303486Y-55650097D01*
X143301882Y-55716328D01*
X143299703Y-55771170D01*
X143296881Y-55816021D01*
X143293349Y-55852278D01*
X143289039Y-55881341D01*
X143283883Y-55904609D01*
X143277815Y-55923479D01*
X143270767Y-55939351D01*
X143262671Y-55953622D01*
X143253460Y-55967691D01*
X143244960Y-55980158D01*
X143227824Y-56006452D01*
X143217678Y-56024037D01*
X143216489Y-56027257D01*
X143227396Y-56028334D01*
X143258589Y-56029335D01*
X143307777Y-56030235D01*
X143372667Y-56031010D01*
X143450970Y-56031637D01*
X143540393Y-56032091D01*
X143638644Y-56032349D01*
X143707555Y-56032400D01*
X143812548Y-56032180D01*
X143909390Y-56031548D01*
X143995893Y-56030549D01*
X144069868Y-56029227D01*
X144129126Y-56027626D01*
X144171480Y-56025791D01*
X144194740Y-56023765D01*
X144198622Y-56022493D01*
X144190924Y-56007591D01*
X144182926Y-55999560D01*
X144169754Y-55982434D01*
X144152515Y-55952183D01*
X144140593Y-55927622D01*
X144113955Y-55868711D01*
X144110880Y-54691845D01*
X144107805Y-53514978D01*
X143662147Y-53514978D01*
X143564330Y-53515142D01*
X143473936Y-53515611D01*
X143393370Y-53516347D01*
X143325038Y-53517316D01*
X143271344Y-53518480D01*
X143234695Y-53519803D01*
X143217496Y-53521249D01*
X143216489Y-53521702D01*
X142205483Y-53521702D01*
X142220730Y-53502722D01*
X142294910Y-53410537D01*
X142366931Y-53321204D01*
X142435431Y-53236424D01*
X142499045Y-53157898D01*
X142556412Y-53087326D01*
X142606167Y-53026409D01*
X142646948Y-52976847D01*
X142664112Y-52956178D01*
X142750404Y-52855516D01*
X142827003Y-52772259D01*
X142895817Y-52704438D01*
X142958752Y-52650089D01*
X142968133Y-52642722D01*
X143007644Y-52612117D01*
X141875884Y-52611867D01*
X141881173Y-52659844D01*
X141877870Y-52717188D01*
X141856339Y-52785463D01*
X141816365Y-52865212D01*
X141771057Y-52937495D01*
X141754839Y-52960140D01*
X141726786Y-52997696D01*
X141688570Y-53048021D01*
X141641863Y-53108973D01*
X141588339Y-53178411D01*
X141529669Y-53254194D01*
X141467525Y-53334180D01*
X141403579Y-53416228D01*
X141339505Y-53498196D01*
X141276973Y-53577943D01*
X141217657Y-53653327D01*
X141163229Y-53722207D01*
X141115361Y-53782442D01*
X141075725Y-53831889D01*
X141045994Y-53868408D01*
X141027839Y-53889858D01*
X141024780Y-53893156D01*
X141021921Y-53885149D01*
X141019707Y-53854855D01*
X141018143Y-53802556D01*
X141017233Y-53728531D01*
X141016980Y-53633063D01*
X141017387Y-53516434D01*
X141018296Y-53396445D01*
X141019618Y-53264333D01*
X141021143Y-53152594D01*
X141023119Y-53059025D01*
X141025794Y-52981419D01*
X141029418Y-52917574D01*
X141034239Y-52865283D01*
X141040506Y-52822344D01*
X141048468Y-52786551D01*
X141058373Y-52755700D01*
X141070469Y-52727586D01*
X141085007Y-52700005D01*
X141099689Y-52674966D01*
X141137686Y-52611867D01*
X140077803Y-52611867D01*
X139774966Y-52611867D01*
X139774999Y-52605617D01*
X139775805Y-52503544D01*
X139776830Y-52414633D01*
X139778100Y-52337941D01*
X139779640Y-52272527D01*
X139781476Y-52217449D01*
X139783633Y-52171765D01*
X139786137Y-52134534D01*
X139789013Y-52104813D01*
X139792287Y-52081662D01*
X139795985Y-52064139D01*
X139800131Y-52051301D01*
X139804753Y-52042208D01*
X139809874Y-52035918D01*
X139815522Y-52031488D01*
X139821721Y-52027978D01*
X139828496Y-52024445D01*
X139834492Y-52020876D01*
X139839725Y-52018300D01*
X139847901Y-52015972D01*
X139860114Y-52013878D01*
X139877459Y-52012007D01*
X139901031Y-52010347D01*
X139931923Y-52008884D01*
X139971232Y-52007608D01*
X140020050Y-52006504D01*
X140079473Y-52005561D01*
X140150596Y-52004767D01*
X140234512Y-52004109D01*
X140332317Y-52003575D01*
X140445106Y-52003153D01*
X140573971Y-52002829D01*
X140720009Y-52002592D01*
X140884314Y-52002430D01*
X141067980Y-52002330D01*
X141272103Y-52002280D01*
X141483247Y-52002267D01*
X143103600Y-52002267D01*
X143103600Y-52099054D01*
G37*
X143103600Y-52099054D02*
X143114465Y-52212993D01*
X143146082Y-52320616D01*
X143196985Y-52419615D01*
X143265707Y-52507684D01*
X143350781Y-52582516D01*
X143447768Y-52640384D01*
X143554036Y-52680005D01*
X143661050Y-52698573D01*
X143766700Y-52697434D01*
X143868875Y-52677930D01*
X143965466Y-52641406D01*
X144054362Y-52589205D01*
X144133454Y-52522673D01*
X144200631Y-52443152D01*
X144253783Y-52351987D01*
X144290801Y-52250523D01*
X144309573Y-52140102D01*
X144311511Y-52090206D01*
X144311511Y-52002267D01*
X144363440Y-52002267D01*
X144399747Y-52005111D01*
X144426645Y-52016911D01*
X144453751Y-52040649D01*
X144492133Y-52079031D01*
X144492133Y-54270602D01*
X144492124Y-54532739D01*
X144492092Y-54773241D01*
X144492028Y-54993048D01*
X144491924Y-55193101D01*
X144491773Y-55374344D01*
X144491566Y-55537716D01*
X144491294Y-55684160D01*
X144490950Y-55814617D01*
X144490526Y-55930029D01*
X144490013Y-56031338D01*
X144489403Y-56119484D01*
X144488688Y-56195410D01*
X144487860Y-56260057D01*
X144486911Y-56314367D01*
X144485833Y-56359280D01*
X144484617Y-56395740D01*
X144483255Y-56424687D01*
X144481739Y-56447063D01*
X144480062Y-56463809D01*
X144478214Y-56475868D01*
X144476187Y-56484180D01*
X144473975Y-56489687D01*
X144472892Y-56491537D01*
X144468729Y-56498549D01*
X144465195Y-56504996D01*
X144461365Y-56510900D01*
X144456318Y-56516286D01*
X144449129Y-56521178D01*
X144438877Y-56525598D01*
X144424636Y-56529572D01*
X144405486Y-56533121D01*
X144380501Y-56536270D01*
X144348760Y-56539042D01*
X144309338Y-56541461D01*
X144261314Y-56543551D01*
X144203763Y-56545335D01*
X144135763Y-56546837D01*
X144056390Y-56548080D01*
X143964721Y-56549089D01*
X143859834Y-56549885D01*
X143740804Y-56550494D01*
X143606710Y-56550939D01*
X143456627Y-56551243D01*
X143289633Y-56551430D01*
X143104804Y-56551524D01*
X142901217Y-56551548D01*
X142677950Y-56551525D01*
X142434078Y-56551480D01*
X142168679Y-56551437D01*
X142130296Y-56551432D01*
X141863318Y-56551389D01*
X141617998Y-56551318D01*
X141393417Y-56551213D01*
X141188655Y-56551066D01*
X141002794Y-56550869D01*
X140834912Y-56550616D01*
X140684092Y-56550300D01*
X140549413Y-56549913D01*
X140429956Y-56549447D01*
X140324801Y-56548897D01*
X140233029Y-56548253D01*
X140153721Y-56547511D01*
X140085957Y-56546661D01*
X140028818Y-56545697D01*
X139981383Y-56544611D01*
X139942734Y-56543397D01*
X139911951Y-56542047D01*
X139888115Y-56540555D01*
X139870306Y-56538911D01*
X139857605Y-56537111D01*
X139849092Y-56535145D01*
X139844734Y-56533477D01*
X139836272Y-56529906D01*
X139828503Y-56527270D01*
X139821398Y-56524634D01*
X139814927Y-56521062D01*
X139809061Y-56515621D01*
X139803771Y-56507375D01*
X139799026Y-56495390D01*
X139794798Y-56478731D01*
X139791057Y-56456463D01*
X139787773Y-56427652D01*
X139784917Y-56391363D01*
X139782460Y-56346661D01*
X139780371Y-56292611D01*
X139778622Y-56228279D01*
X139777183Y-56152730D01*
X139776024Y-56065030D01*
X139775117Y-55964243D01*
X139774431Y-55849434D01*
X139773937Y-55719670D01*
X139773605Y-55574015D01*
X139773407Y-55411535D01*
X139773313Y-55231295D01*
X139773292Y-55032360D01*
X139773315Y-54813796D01*
X139773354Y-54574668D01*
X139773378Y-54314040D01*
X139773378Y-54271889D01*
X139773364Y-54008992D01*
X139773339Y-53767732D01*
X139773329Y-53547165D01*
X139773358Y-53346352D01*
X139773452Y-53164349D01*
X139773638Y-53000216D01*
X139773941Y-52853011D01*
X139774386Y-52721792D01*
X139774966Y-52611867D01*
X140077803Y-52611867D01*
X140117593Y-52669711D01*
X140128764Y-52685479D01*
X140138834Y-52699441D01*
X140147862Y-52712784D01*
X140155903Y-52726693D01*
X140163014Y-52742356D01*
X140169253Y-52760958D01*
X140174675Y-52783686D01*
X140179338Y-52811727D01*
X140183299Y-52846267D01*
X140186615Y-52888492D01*
X140189341Y-52939589D01*
X140191536Y-53000744D01*
X140193255Y-53073144D01*
X140194556Y-53157975D01*
X140195495Y-53256422D01*
X140196130Y-53369674D01*
X140196516Y-53498916D01*
X140196712Y-53645334D01*
X140196773Y-53810116D01*
X140196757Y-53994447D01*
X140196720Y-54199513D01*
X140196711Y-54322133D01*
X140196735Y-54539082D01*
X140196769Y-54734642D01*
X140196757Y-54909999D01*
X140196642Y-55066341D01*
X140196370Y-55204857D01*
X140195882Y-55326734D01*
X140195124Y-55433160D01*
X140194038Y-55525322D01*
X140192569Y-55604409D01*
X140190660Y-55671608D01*
X140188256Y-55728107D01*
X140185299Y-55775093D01*
X140181734Y-55813755D01*
X140177505Y-55845280D01*
X140172554Y-55870855D01*
X140166827Y-55891670D01*
X140160267Y-55908911D01*
X140152817Y-55923765D01*
X140144421Y-55937422D01*
X140135024Y-55951069D01*
X140124568Y-55965893D01*
X140118477Y-55974783D01*
X140079704Y-56032400D01*
X140611268Y-56032400D01*
X140734517Y-56032365D01*
X140837013Y-56032215D01*
X140920580Y-56031878D01*
X140987044Y-56031286D01*
X141038229Y-56030367D01*
X141075959Y-56029051D01*
X141102060Y-56027269D01*
X141118356Y-56024951D01*
X141126672Y-56022026D01*
X141128832Y-56018424D01*
X141126661Y-56014075D01*
X141125465Y-56012645D01*
X141100315Y-55975573D01*
X141074417Y-55922772D01*
X141050808Y-55860770D01*
X141042539Y-55834357D01*
X141037922Y-55816416D01*
X141034021Y-55795355D01*
X141030752Y-55769089D01*
X141028034Y-55735532D01*
X141025785Y-55692599D01*
X141023923Y-55638204D01*
X141022364Y-55570262D01*
X141021028Y-55486688D01*
X141019831Y-55385395D01*
X141018692Y-55264300D01*
X141018315Y-55219600D01*
X141017298Y-55094449D01*
X141016540Y-54990082D01*
X141016097Y-54904707D01*
X141016030Y-54836533D01*
X141016395Y-54783765D01*
X141017252Y-54744614D01*
X141018659Y-54717285D01*
X141020675Y-54699986D01*
X141023357Y-54690926D01*
X141026764Y-54688312D01*
X141030956Y-54690351D01*
X141035429Y-54694667D01*
X141045784Y-54707602D01*
X141067842Y-54736676D01*
X141100043Y-54779759D01*
X141140826Y-54834718D01*
X141188630Y-54899423D01*
X141241895Y-54971742D01*
X141299060Y-55049544D01*
X141358563Y-55130698D01*
X141418845Y-55213072D01*
X141478345Y-55294536D01*
X141535502Y-55372957D01*
X141588755Y-55446204D01*
X141636543Y-55512147D01*
X141677307Y-55568654D01*
X141709484Y-55613593D01*
X141731515Y-55644834D01*
X141736083Y-55651466D01*
X141759004Y-55688369D01*
X141785812Y-55736359D01*
X141811211Y-55785897D01*
X141814432Y-55792577D01*
X141836110Y-55840772D01*
X141848696Y-55878334D01*
X141854426Y-55914160D01*
X141855544Y-55956200D01*
X141854910Y-56032400D01*
X143009349Y-56032400D01*
X142918185Y-55938669D01*
X142871388Y-55888775D01*
X142821101Y-55832295D01*
X142775056Y-55778026D01*
X142754631Y-55752673D01*
X142724193Y-55713128D01*
X142684138Y-55659916D01*
X142635639Y-55594667D01*
X142579865Y-55519011D01*
X142517989Y-55434577D01*
X142451181Y-55342994D01*
X142380613Y-55245892D01*
X142307455Y-55144901D01*
X142232879Y-55041650D01*
X142158056Y-54937768D01*
X142084157Y-54834885D01*
X142012354Y-54734631D01*
X141943816Y-54638636D01*
X141879716Y-54548527D01*
X141821225Y-54465936D01*
X141769514Y-54392492D01*
X141725753Y-54329824D01*
X141691115Y-54279561D01*
X141666770Y-54243334D01*
X141653889Y-54222771D01*
X141652131Y-54218668D01*
X141660090Y-54207342D01*
X141680885Y-54180162D01*
X141713153Y-54138829D01*
X141755530Y-54085044D01*
X141806653Y-54020506D01*
X141865159Y-53946918D01*
X141929686Y-53865978D01*
X141998869Y-53779388D01*
X142071347Y-53688848D01*
X142145754Y-53596060D01*
X142205483Y-53521702D01*
X143216489Y-53521702D01*
X143222398Y-53534659D01*
X143236728Y-53556908D01*
X143237775Y-53558391D01*
X143256562Y-53588544D01*
X143276209Y-53625375D01*
X143280108Y-53633511D01*
X143283644Y-53641940D01*
X143286770Y-53652059D01*
X143289514Y-53665260D01*
X143291908Y-53682938D01*
X143293981Y-53706484D01*
X143295765Y-53737293D01*
X143297288Y-53776757D01*
X143298581Y-53826269D01*
X143299674Y-53887223D01*
X143300597Y-53961011D01*
X143301381Y-54049028D01*
X143302055Y-54152665D01*
X143302650Y-54273316D01*
X143303195Y-54412374D01*
X143303721Y-54571232D01*
X143304255Y-54750089D01*
X143304794Y-54935207D01*
X143305228Y-55099145D01*
X143305491Y-55243303D01*
X143305516Y-55369079D01*
X143305235Y-55477871D01*
X143304581Y-55571077D01*
X143303486Y-55650097D01*
X143301882Y-55716328D01*
X143299703Y-55771170D01*
X143296881Y-55816021D01*
X143293349Y-55852278D01*
X143289039Y-55881341D01*
X143283883Y-55904609D01*
X143277815Y-55923479D01*
X143270767Y-55939351D01*
X143262671Y-55953622D01*
X143253460Y-55967691D01*
X143244960Y-55980158D01*
X143227824Y-56006452D01*
X143217678Y-56024037D01*
X143216489Y-56027257D01*
X143227396Y-56028334D01*
X143258589Y-56029335D01*
X143307777Y-56030235D01*
X143372667Y-56031010D01*
X143450970Y-56031637D01*
X143540393Y-56032091D01*
X143638644Y-56032349D01*
X143707555Y-56032400D01*
X143812548Y-56032180D01*
X143909390Y-56031548D01*
X143995893Y-56030549D01*
X144069868Y-56029227D01*
X144129126Y-56027626D01*
X144171480Y-56025791D01*
X144194740Y-56023765D01*
X144198622Y-56022493D01*
X144190924Y-56007591D01*
X144182926Y-55999560D01*
X144169754Y-55982434D01*
X144152515Y-55952183D01*
X144140593Y-55927622D01*
X144113955Y-55868711D01*
X144110880Y-54691845D01*
X144107805Y-53514978D01*
X143662147Y-53514978D01*
X143564330Y-53515142D01*
X143473936Y-53515611D01*
X143393370Y-53516347D01*
X143325038Y-53517316D01*
X143271344Y-53518480D01*
X143234695Y-53519803D01*
X143217496Y-53521249D01*
X143216489Y-53521702D01*
X142205483Y-53521702D01*
X142220730Y-53502722D01*
X142294910Y-53410537D01*
X142366931Y-53321204D01*
X142435431Y-53236424D01*
X142499045Y-53157898D01*
X142556412Y-53087326D01*
X142606167Y-53026409D01*
X142646948Y-52976847D01*
X142664112Y-52956178D01*
X142750404Y-52855516D01*
X142827003Y-52772259D01*
X142895817Y-52704438D01*
X142958752Y-52650089D01*
X142968133Y-52642722D01*
X143007644Y-52612117D01*
X141875884Y-52611867D01*
X141881173Y-52659844D01*
X141877870Y-52717188D01*
X141856339Y-52785463D01*
X141816365Y-52865212D01*
X141771057Y-52937495D01*
X141754839Y-52960140D01*
X141726786Y-52997696D01*
X141688570Y-53048021D01*
X141641863Y-53108973D01*
X141588339Y-53178411D01*
X141529669Y-53254194D01*
X141467525Y-53334180D01*
X141403579Y-53416228D01*
X141339505Y-53498196D01*
X141276973Y-53577943D01*
X141217657Y-53653327D01*
X141163229Y-53722207D01*
X141115361Y-53782442D01*
X141075725Y-53831889D01*
X141045994Y-53868408D01*
X141027839Y-53889858D01*
X141024780Y-53893156D01*
X141021921Y-53885149D01*
X141019707Y-53854855D01*
X141018143Y-53802556D01*
X141017233Y-53728531D01*
X141016980Y-53633063D01*
X141017387Y-53516434D01*
X141018296Y-53396445D01*
X141019618Y-53264333D01*
X141021143Y-53152594D01*
X141023119Y-53059025D01*
X141025794Y-52981419D01*
X141029418Y-52917574D01*
X141034239Y-52865283D01*
X141040506Y-52822344D01*
X141048468Y-52786551D01*
X141058373Y-52755700D01*
X141070469Y-52727586D01*
X141085007Y-52700005D01*
X141099689Y-52674966D01*
X141137686Y-52611867D01*
X140077803Y-52611867D01*
X139774966Y-52611867D01*
X139774999Y-52605617D01*
X139775805Y-52503544D01*
X139776830Y-52414633D01*
X139778100Y-52337941D01*
X139779640Y-52272527D01*
X139781476Y-52217449D01*
X139783633Y-52171765D01*
X139786137Y-52134534D01*
X139789013Y-52104813D01*
X139792287Y-52081662D01*
X139795985Y-52064139D01*
X139800131Y-52051301D01*
X139804753Y-52042208D01*
X139809874Y-52035918D01*
X139815522Y-52031488D01*
X139821721Y-52027978D01*
X139828496Y-52024445D01*
X139834492Y-52020876D01*
X139839725Y-52018300D01*
X139847901Y-52015972D01*
X139860114Y-52013878D01*
X139877459Y-52012007D01*
X139901031Y-52010347D01*
X139931923Y-52008884D01*
X139971232Y-52007608D01*
X140020050Y-52006504D01*
X140079473Y-52005561D01*
X140150596Y-52004767D01*
X140234512Y-52004109D01*
X140332317Y-52003575D01*
X140445106Y-52003153D01*
X140573971Y-52002829D01*
X140720009Y-52002592D01*
X140884314Y-52002430D01*
X141067980Y-52002330D01*
X141272103Y-52002280D01*
X141483247Y-52002267D01*
X143103600Y-52002267D01*
X143103600Y-52099054D01*
D12*
%TO.C,SW1*%
X148360000Y-97390000D02*
X146860000Y-97390000D01*
X144360000Y-98640000D02*
X144360000Y-103140000D01*
X146860000Y-104390000D02*
X148360000Y-104390000D01*
X150860000Y-103140000D02*
X150860000Y-98640000D01*
%TO.C,R3*%
X148590000Y-81050000D02*
X148590000Y-81740000D01*
X148590000Y-91670000D02*
X148590000Y-90980000D01*
X146870000Y-81740000D02*
X146870000Y-90980000D01*
X150310000Y-81740000D02*
X146870000Y-81740000D01*
X150310000Y-90980000D02*
X150310000Y-81740000D01*
X146870000Y-90980000D02*
X150310000Y-90980000D01*
%TO.C,R2*%
X150090000Y-71120000D02*
X149400000Y-71120000D01*
X139470000Y-71120000D02*
X140160000Y-71120000D01*
X149400000Y-69400000D02*
X140160000Y-69400000D01*
X149400000Y-72840000D02*
X149400000Y-69400000D01*
X140160000Y-72840000D02*
X149400000Y-72840000D01*
X140160000Y-69400000D02*
X140160000Y-72840000D01*
%TO.C,R1*%
X139470000Y-62230000D02*
X140160000Y-62230000D01*
X150090000Y-62230000D02*
X149400000Y-62230000D01*
X140160000Y-63950000D02*
X149400000Y-63950000D01*
X140160000Y-60510000D02*
X140160000Y-63950000D01*
X149400000Y-60510000D02*
X140160000Y-60510000D01*
X149400000Y-63950000D02*
X149400000Y-60510000D01*
%TO.C,A1*%
X115700000Y-58290000D02*
X97660000Y-58290000D01*
X115700000Y-101730000D02*
X115700000Y-58290000D01*
X97660000Y-101730000D02*
X115700000Y-101730000D01*
X100330000Y-99060000D02*
X97660000Y-99060000D01*
X100330000Y-63500000D02*
X100330000Y-99060000D01*
X100330000Y-63500000D02*
X97660000Y-63500000D01*
X113030000Y-99060000D02*
X115700000Y-99060000D01*
X113030000Y-60960000D02*
X113030000Y-99060000D01*
X113030000Y-60960000D02*
X115700000Y-60960000D01*
X97660000Y-58290000D02*
X97660000Y-60960000D01*
X97660000Y-63500000D02*
X97660000Y-101730000D01*
X100330000Y-60960000D02*
X97660000Y-60960000D01*
X100330000Y-63500000D02*
X100330000Y-60960000D01*
%TO.C,J1*%
X139760000Y-78620000D02*
X129480000Y-78620000D01*
X139760000Y-101720000D02*
X139760000Y-78620000D01*
X129480000Y-101720000D02*
X139760000Y-101720000D01*
X129480000Y-78620000D02*
X129480000Y-101720000D01*
X137270000Y-78680000D02*
X135620000Y-78680000D01*
X137270000Y-101660000D02*
X137270000Y-78680000D01*
X131970000Y-101660000D02*
X137270000Y-101660000D01*
X131970000Y-78680000D02*
X131970000Y-101660000D01*
X133620000Y-78680000D02*
X131970000Y-78680000D01*
X135620000Y-78680000D02*
G75*
G02*
X133620000Y-78680000I-1000000J0D01*
G01*
%TO.C,D2*%
X125250000Y-70040000D02*
X125250000Y-69721000D01*
X125250000Y-72519000D02*
X125250000Y-72200000D01*
X121507287Y-70039039D02*
G75*
G02*
X124873330Y-70040000I1682713J-1080961D01*
G01*
X121507287Y-72200961D02*
G75*
G03*
X124873330Y-72200000I1682713J1080961D01*
G01*
X120946758Y-70039276D02*
G75*
G02*
X125250000Y-69721251I2243242J-1080724D01*
G01*
X120946758Y-72200724D02*
G75*
G03*
X125250000Y-72518749I2243242J1080724D01*
G01*
%TO.C,D1*%
X125250000Y-61150000D02*
X125250000Y-60831000D01*
X125250000Y-63629000D02*
X125250000Y-63310000D01*
X121507287Y-61149039D02*
G75*
G02*
X124873330Y-61150000I1682713J-1080961D01*
G01*
X121507287Y-63310961D02*
G75*
G03*
X124873330Y-63310000I1682713J1080961D01*
G01*
X120946758Y-61149276D02*
G75*
G02*
X125250000Y-60831251I2243242J-1080724D01*
G01*
X120946758Y-63310724D02*
G75*
G03*
X125250000Y-63628749I2243242J1080724D01*
G01*
%TO.C,SW1*%
D10*
X143764761Y-102223333D02*
X143812380Y-102080476D01*
X143812380Y-101842380D01*
X143764761Y-101747142D01*
X143717142Y-101699523D01*
X143621904Y-101651904D01*
X143526666Y-101651904D01*
X143431428Y-101699523D01*
X143383809Y-101747142D01*
X143336190Y-101842380D01*
X143288571Y-102032857D01*
X143240952Y-102128095D01*
X143193333Y-102175714D01*
X143098095Y-102223333D01*
X143002857Y-102223333D01*
X142907619Y-102175714D01*
X142860000Y-102128095D01*
X142812380Y-102032857D01*
X142812380Y-101794761D01*
X142860000Y-101651904D01*
X142812380Y-101318571D02*
X143812380Y-101080476D01*
X143098095Y-100890000D01*
X143812380Y-100699523D01*
X142812380Y-100461428D01*
X143812380Y-99556666D02*
X143812380Y-100128095D01*
X143812380Y-99842380D02*
X142812380Y-99842380D01*
X142955238Y-99937619D01*
X143050476Y-100032857D01*
X143098095Y-100128095D01*
%TO.C,R3*%
X146322380Y-86526666D02*
X145846190Y-86860000D01*
X146322380Y-87098095D02*
X145322380Y-87098095D01*
X145322380Y-86717142D01*
X145370000Y-86621904D01*
X145417619Y-86574285D01*
X145512857Y-86526666D01*
X145655714Y-86526666D01*
X145750952Y-86574285D01*
X145798571Y-86621904D01*
X145846190Y-86717142D01*
X145846190Y-87098095D01*
X145322380Y-86193333D02*
X145322380Y-85574285D01*
X145703333Y-85907619D01*
X145703333Y-85764761D01*
X145750952Y-85669523D01*
X145798571Y-85621904D01*
X145893809Y-85574285D01*
X146131904Y-85574285D01*
X146227142Y-85621904D01*
X146274761Y-85669523D01*
X146322380Y-85764761D01*
X146322380Y-86050476D01*
X146274761Y-86145714D01*
X146227142Y-86193333D01*
%TO.C,R2*%
X144613333Y-74112380D02*
X144280000Y-73636190D01*
X144041904Y-74112380D02*
X144041904Y-73112380D01*
X144422857Y-73112380D01*
X144518095Y-73160000D01*
X144565714Y-73207619D01*
X144613333Y-73302857D01*
X144613333Y-73445714D01*
X144565714Y-73540952D01*
X144518095Y-73588571D01*
X144422857Y-73636190D01*
X144041904Y-73636190D01*
X144994285Y-73207619D02*
X145041904Y-73160000D01*
X145137142Y-73112380D01*
X145375238Y-73112380D01*
X145470476Y-73160000D01*
X145518095Y-73207619D01*
X145565714Y-73302857D01*
X145565714Y-73398095D01*
X145518095Y-73540952D01*
X144946666Y-74112380D01*
X145565714Y-74112380D01*
%TO.C,R1*%
X144613333Y-65222380D02*
X144280000Y-64746190D01*
X144041904Y-65222380D02*
X144041904Y-64222380D01*
X144422857Y-64222380D01*
X144518095Y-64270000D01*
X144565714Y-64317619D01*
X144613333Y-64412857D01*
X144613333Y-64555714D01*
X144565714Y-64650952D01*
X144518095Y-64698571D01*
X144422857Y-64746190D01*
X144041904Y-64746190D01*
X145565714Y-65222380D02*
X144994285Y-65222380D01*
X145280000Y-65222380D02*
X145280000Y-64222380D01*
X145184761Y-64365238D01*
X145089523Y-64460476D01*
X144994285Y-64508095D01*
%TO.C,A1*%
X105965714Y-57316666D02*
X106441904Y-57316666D01*
X105870476Y-57602380D02*
X106203809Y-56602380D01*
X106537142Y-57602380D01*
X107394285Y-57602380D02*
X106822857Y-57602380D01*
X107108571Y-57602380D02*
X107108571Y-56602380D01*
X107013333Y-56745238D01*
X106918095Y-56840476D01*
X106822857Y-56888095D01*
%TO.C,J1*%
X134286666Y-77132380D02*
X134286666Y-77846666D01*
X134239047Y-77989523D01*
X134143809Y-78084761D01*
X134000952Y-78132380D01*
X133905714Y-78132380D01*
X135286666Y-78132380D02*
X134715238Y-78132380D01*
X135000952Y-78132380D02*
X135000952Y-77132380D01*
X134905714Y-77275238D01*
X134810476Y-77370476D01*
X134715238Y-77418095D01*
%TO.C,D2*%
X122451904Y-75032380D02*
X122451904Y-74032380D01*
X122690000Y-74032380D01*
X122832857Y-74080000D01*
X122928095Y-74175238D01*
X122975714Y-74270476D01*
X123023333Y-74460952D01*
X123023333Y-74603809D01*
X122975714Y-74794285D01*
X122928095Y-74889523D01*
X122832857Y-74984761D01*
X122690000Y-75032380D01*
X122451904Y-75032380D01*
X123404285Y-74127619D02*
X123451904Y-74080000D01*
X123547142Y-74032380D01*
X123785238Y-74032380D01*
X123880476Y-74080000D01*
X123928095Y-74127619D01*
X123975714Y-74222857D01*
X123975714Y-74318095D01*
X123928095Y-74460952D01*
X123356666Y-75032380D01*
X123975714Y-75032380D01*
%TO.C,D1*%
X122451904Y-66142380D02*
X122451904Y-65142380D01*
X122690000Y-65142380D01*
X122832857Y-65190000D01*
X122928095Y-65285238D01*
X122975714Y-65380476D01*
X123023333Y-65570952D01*
X123023333Y-65713809D01*
X122975714Y-65904285D01*
X122928095Y-65999523D01*
X122832857Y-66094761D01*
X122690000Y-66142380D01*
X122451904Y-66142380D01*
X123975714Y-66142380D02*
X123404285Y-66142380D01*
X123690000Y-66142380D02*
X123690000Y-65142380D01*
X123594761Y-65285238D01*
X123499523Y-65380476D01*
X123404285Y-65428095D01*
%TD*%
M02*
